<svg xmlns="http://www.w3.org/2000/svg" xmlns:xlink="http://www.w3.org/1999/xlink" width="500" zoomAndPan="magnify" viewBox="0 0 375 374.999991" height="500" preserveAspectRatio="xMidYMid meet" version="1.0"><defs><filter x="0%" y="0%" width="100%" height="100%" id="0e48f14162"><feColorMatrix values="0 0 0 0 1 0 0 0 0 1 0 0 0 0 1 0 0 0 1 0" color-interpolation-filters="sRGB"/></filter><g/><mask id="99ae6919e1"><g filter="url(#0e48f14162)"><rect x="-37.5" width="450" fill="#000000" y="-37.499999" height="449.999989" fill-opacity="0.1"/></g></mask><clipPath id="2021c7fb03"><path d="M 0.457031 0.617188 L 148.574219 0.617188 L 148.574219 26.167969 L 0.457031 26.167969 Z M 0.457031 0.617188 " clip-rule="nonzero"/></clipPath><clipPath id="d0f26647b7"><path d="M 74.5 0.617188 C 33.609375 0.617188 0.457031 6.335938 0.457031 13.394531 C 0.457031 20.449219 33.609375 26.167969 74.5 26.167969 C 115.390625 26.167969 148.542969 20.449219 148.542969 13.394531 C 148.542969 6.335938 115.390625 0.617188 74.5 0.617188 Z M 74.5 0.617188 " clip-rule="nonzero"/></clipPath><clipPath id="de79e27de6"><path d="M 0.457031 0.617188 L 148.574219 0.617188 L 148.574219 26.167969 L 0.457031 26.167969 Z M 0.457031 0.617188 " clip-rule="nonzero"/></clipPath><clipPath id="bb3d629bf7"><path d="M 74.5 0.617188 C 33.609375 0.617188 0.457031 6.335938 0.457031 13.394531 C 0.457031 20.449219 33.609375 26.167969 74.5 26.167969 C 115.390625 26.167969 148.542969 20.449219 148.542969 13.394531 C 148.542969 6.335938 115.390625 0.617188 74.5 0.617188 Z M 74.5 0.617188 " clip-rule="nonzero"/></clipPath><clipPath id="d5e55fc0de"><rect x="0" width="149" y="0" height="27"/></clipPath><clipPath id="e76af4c697"><rect x="0" width="149" y="0" height="27"/></clipPath><clipPath id="83bbd87862"><path d="M 90.128906 41.402344 L 284.871094 41.402344 L 284.871094 236.144531 L 90.128906 236.144531 Z M 90.128906 41.402344 " clip-rule="nonzero"/></clipPath><clipPath id="48d370099f"><path d="M 187.5 41.402344 C 133.722656 41.402344 90.128906 84.996094 90.128906 138.773438 C 90.128906 192.546875 133.722656 236.144531 187.5 236.144531 C 241.277344 236.144531 284.871094 192.546875 284.871094 138.773438 C 284.871094 84.996094 241.277344 41.402344 187.5 41.402344 Z M 187.5 41.402344 " clip-rule="nonzero"/></clipPath><clipPath id="6631ef0dec"><path d="M 0.128906 0.402344 L 194.871094 0.402344 L 194.871094 195.144531 L 0.128906 195.144531 Z M 0.128906 0.402344 " clip-rule="nonzero"/></clipPath><clipPath id="53f42dc617"><path d="M 97.5 0.402344 C 43.722656 0.402344 0.128906 43.996094 0.128906 97.773438 C 0.128906 151.546875 43.722656 195.144531 97.5 195.144531 C 151.277344 195.144531 194.871094 151.546875 194.871094 97.773438 C 194.871094 43.996094 151.277344 0.402344 97.5 0.402344 Z M 97.5 0.402344 " clip-rule="nonzero"/></clipPath><clipPath id="2a57358bb8"><rect x="0" width="195" y="0" height="196"/></clipPath><clipPath id="6bba190171"><path d="M 95.179688 83.570312 L 279.679688 83.570312 L 279.679688 232 L 95.179688 232 Z M 95.179688 83.570312 " clip-rule="nonzero"/></clipPath><clipPath id="99258cfc1e"><path d="M 88.691406 48.707031 L 282 48.707031 L 282 254.207031 L 88.691406 254.207031 Z M 88.691406 48.707031 " clip-rule="nonzero"/></clipPath><clipPath id="3cce57851b"><path d="M 88.691406 48.707031 L 282 48.707031 L 282 254.207031 L 88.691406 254.207031 Z M 88.691406 48.707031 " clip-rule="nonzero"/></clipPath><clipPath id="860e67f611"><rect x="0" width="177" y="0" height="54"/></clipPath><clipPath id="b1f29fd726"><rect x="0" width="139" y="0" height="21"/></clipPath></defs><g mask="url(#99ae6919e1)"><g transform="matrix(1, 0, 0, 1, 113, 228)"><g clip-path="url(#e76af4c697)"><g clip-path="url(#2021c7fb03)"><g clip-path="url(#d0f26647b7)"><g><g clip-path="url(#d5e55fc0de)"><g clip-path="url(#de79e27de6)"><g clip-path="url(#bb3d629bf7)"><path fill="#000000" d="M 0.457031 0.617188 L 148.574219 0.617188 L 148.574219 26.167969 L 0.457031 26.167969 Z M 0.457031 0.617188 " fill-opacity="1" fill-rule="nonzero"/></g></g></g></g></g></g></g></g></g><g clip-path="url(#83bbd87862)"><g clip-path="url(#48d370099f)"><g transform="matrix(1, 0, 0, 1, 90, 41)"><g clip-path="url(#2a57358bb8)"><g clip-path="url(#6631ef0dec)"><g clip-path="url(#53f42dc617)"><path fill="#ffc035" d="M 0.128906 0.402344 L 194.871094 0.402344 L 194.871094 195.144531 L 0.128906 195.144531 Z M 0.128906 0.402344 " fill-opacity="1" fill-rule="nonzero"/></g></g></g></g></g></g><g clip-path="url(#6bba190171)"><path fill="#ffad38" d="M 186.609375 133.828125 C 153.558594 133.828125 125.226562 113.699219 113.175781 85.027344 C 101.914062 100.324219 95.179688 119.152344 95.179688 139.601562 C 95.179688 190.578125 136.511719 231.886719 187.503906 231.886719 C 238.488281 231.886719 279.820312 190.578125 279.820312 139.601562 C 279.820312 118.433594 272.617188 98.996094 260.632812 83.425781 C 248.96875 112.929688 220.261719 133.828125 186.609375 133.828125 Z M 186.609375 133.828125 " fill-opacity="1" fill-rule="nonzero"/></g><g clip-path="url(#99258cfc1e)"><path fill="#000000" d="M 244.234375 130.914062 C 239.589844 126.785156 234.367188 123.335938 228.695312 120.613281 C 236.4375 113.429688 241.210938 103.683594 241.210938 92.957031 C 241.210938 89.136719 240.605469 85.257812 239.414062 81.414062 C 244.394531 78.140625 247.449219 72.550781 247.449219 66.554688 C 247.449219 56.765625 239.476562 48.796875 229.683594 48.796875 C 224.78125 48.796875 220.152344 50.796875 216.796875 54.328125 C 210.410156 50.914062 203.355469 49.109375 196.316406 49.109375 C 189.28125 49.109375 182.222656 50.914062 175.835938 54.328125 C 172.488281 50.796875 167.859375 48.796875 162.957031 48.796875 C 153.15625 48.796875 145.191406 56.765625 145.191406 66.566406 C 145.191406 72.5625 148.246094 78.15625 153.226562 81.429688 C 152.027344 85.265625 151.429688 89.144531 151.429688 92.96875 C 151.429688 104.886719 157.320312 115.59375 166.632812 122.925781 C 162.621094 125.21875 158.871094 127.902344 155.484375 130.925781 C 144.707031 140.492188 126.769531 164.40625 120.464844 184.972656 C 120.148438 184.96875 119.839844 184.953125 119.515625 184.953125 C 102.519531 184.953125 88.691406 198.78125 88.691406 215.777344 C 88.691406 232.777344 102.519531 246.601562 119.496094 246.601562 C 119.515625 246.601562 119.792969 246.609375 120.289062 246.609375 C 124.027344 246.609375 140.375 246.375 157.390625 242.609375 C 163.046875 249.609375 171.695312 254.097656 181.367188 254.097656 C 181.597656 254.097656 204.8125 253.96875 228.554688 244.921875 C 229.664062 244.546875 251.964844 236.6875 253.539062 215.476562 C 256.285156 217.101562 259.148438 217.921875 262.128906 217.921875 C 263.484375 217.921875 264.871094 217.753906 266.269531 217.410156 C 274.207031 215.488281 279.097656 211.007812 280.828125 204.089844 C 286.304688 182.152344 257.664062 142.855469 244.234375 130.914062 Z M 244.234375 130.914062 " fill-opacity="1" fill-rule="nonzero"/></g><path fill="#c16644" d="M 242.445312 132.921875 C 237.707031 128.714844 232.335938 125.234375 226.476562 122.558594 C 218.503906 129.011719 207.917969 132.949219 196.316406 132.949219 C 186.054688 132.949219 176.589844 129.855469 169.015625 124.675781 C 164.765625 127 160.808594 129.769531 157.265625 132.921875 C 147.09375 141.960938 129.472656 165.453125 123.207031 185.1875 C 131.378906 186.222656 137.679688 190.566406 142.039062 194.847656 C 147.988281 192.140625 149.117188 181.988281 150.113281 172.980469 C 150.199219 172.167969 150.292969 171.363281 150.382812 170.570312 C 152.929688 148.597656 162.472656 140.511719 162.878906 140.179688 C 163.449219 139.710938 164.296875 139.792969 164.773438 140.363281 C 165.242188 140.933594 165.164062 141.78125 164.585938 142.257812 C 164.496094 142.332031 155.464844 150.089844 153.058594 170.878906 C 152.964844 171.664062 152.875 172.472656 152.789062 173.277344 C 151.746094 182.640625 150.582031 193.140625 143.984375 196.871094 C 145.011719 198.019531 145.890625 199.121094 146.625 200.105469 C 147.066406 200.703125 146.945312 201.542969 146.347656 201.984375 C 145.757812 202.429688 144.910156 202.308594 144.46875 201.710938 C 140.5625 196.453125 132.121094 187.640625 119.515625 187.640625 C 104.003906 187.640625 91.378906 200.265625 91.378906 215.785156 C 91.378906 231.296875 104.003906 243.921875 119.515625 243.921875 C 119.71875 243.929688 137.113281 244.175781 155.652344 240.238281 C 152.425781 235.371094 150.542969 229.539062 150.542969 223.273438 C 150.542969 206.273438 164.371094 192.441406 181.367188 192.441406 C 195.148438 192.441406 204.269531 201.9375 208.484375 207.597656 C 208.925781 208.195312 208.800781 209.035156 208.207031 209.480469 C 207.609375 209.925781 206.769531 209.796875 206.324219 209.203125 C 202.414062 203.949219 193.972656 195.128906 181.367188 195.128906 C 165.855469 195.128906 153.230469 207.757812 153.230469 223.273438 C 153.230469 238.785156 165.855469 251.410156 181.367188 251.410156 C 181.589844 251.410156 204.347656 251.273438 227.617188 242.402344 C 227.640625 242.394531 227.667969 242.382812 227.6875 242.375 C 227.914062 242.300781 250.519531 234.714844 250.921875 213.667969 C 248.199219 211.484375 245.597656 208.464844 243.132812 204.613281 C 236.839844 194.773438 232.773438 181.550781 230.589844 174.449219 C 224.25 153.800781 216.386719 144.671875 216.308594 144.582031 C 215.816406 144.027344 215.875 143.171875 216.429688 142.683594 C 216.984375 142.199219 217.832031 142.25 218.324219 142.800781 C 218.660156 143.1875 226.632812 152.394531 233.15625 173.65625 C 235.308594 180.636719 239.300781 193.632812 245.398438 203.164062 C 251.480469 212.671875 258.289062 216.585938 265.636719 214.804688 C 272.621094 213.109375 276.734375 209.394531 278.21875 203.445312 C 283.039062 184.101562 257.441406 146.265625 242.445312 132.921875 Z M 116.847656 238.054688 C 106.046875 238.054688 97.253906 228.066406 97.253906 215.785156 C 97.253906 203.511719 106.046875 193.523438 116.847656 193.523438 C 127.65625 193.523438 136.449219 203.511719 136.449219 215.785156 C 136.449219 228.066406 127.65625 238.054688 116.847656 238.054688 Z M 178.699219 245.542969 C 167.898438 245.542969 159.105469 235.554688 159.105469 223.273438 C 159.105469 211 167.898438 201.011719 178.699219 201.011719 C 189.507812 201.011719 198.300781 211 198.300781 223.273438 C 198.300781 235.554688 189.507812 245.542969 178.699219 245.542969 Z M 155.492188 79.667969 C 156.046875 79.984375 156.304688 80.65625 156.101562 81.265625 C 154.777344 85.160156 154.113281 89.097656 154.113281 92.960938 C 154.113281 113.53125 173.046875 130.261719 196.316406 130.261719 C 219.585938 130.261719 238.519531 113.53125 238.519531 92.960938 C 238.519531 89.097656 237.855469 85.160156 236.53125 81.265625 C 236.332031 80.65625 236.578125 79.984375 237.144531 79.667969 C 241.84375 76.984375 244.757812 71.964844 244.757812 66.566406 C 244.757812 58.253906 237.992188 51.484375 229.675781 51.484375 C 225.207031 51.484375 220.992188 53.453125 218.113281 56.886719 C 217.699219 57.386719 216.984375 57.511719 216.421875 57.191406 C 210.195312 53.667969 203.246094 51.800781 196.316406 51.800781 C 189.386719 51.800781 182.4375 53.667969 176.210938 57.191406 C 175.648438 57.511719 174.9375 57.386719 174.519531 56.886719 C 171.640625 53.453125 167.429688 51.484375 162.957031 51.484375 C 154.644531 51.484375 147.875 58.253906 147.875 66.566406 C 147.875 71.964844 150.792969 76.984375 155.492188 79.667969 Z M 220.566406 58.183594 C 221.011719 57.59375 221.851562 57.464844 222.449219 57.902344 C 228.230469 62.171875 233.035156 67.742188 236.34375 74.019531 C 236.6875 74.679688 236.4375 75.492188 235.777344 75.835938 C 235.578125 75.945312 235.363281 75.992188 235.152344 75.992188 C 234.671875 75.992188 234.207031 75.726562 233.964844 75.269531 C 230.84375 69.351562 226.316406 64.09375 220.851562 60.066406 C 220.253906 59.628906 220.125 58.785156 220.566406 58.183594 Z M 205.742188 80.757812 C 208.335938 80.757812 210.453125 82.867188 210.453125 85.46875 C 210.453125 88.070312 208.335938 90.179688 205.742188 90.179688 C 203.140625 90.179688 201.027344 88.070312 201.027344 85.46875 C 201.027344 82.867188 203.140625 80.757812 205.742188 80.757812 Z M 208.878906 106.089844 C 208.878906 114.613281 199.746094 121.550781 188.511719 121.550781 C 177.289062 121.550781 168.152344 114.613281 168.152344 106.089844 C 168.152344 97.4375 177.234375 86.980469 188.511719 86.980469 C 199.796875 86.980469 208.878906 97.4375 208.878906 106.089844 Z M 177.578125 85.46875 C 177.578125 88.070312 175.460938 90.179688 172.867188 90.179688 C 170.265625 90.179688 168.152344 88.070312 168.152344 85.46875 C 168.152344 82.867188 170.265625 80.757812 172.867188 80.757812 C 175.460938 80.757812 177.578125 82.867188 177.578125 85.46875 Z M 156.289062 74.019531 C 159.597656 67.742188 164.402344 62.171875 170.183594 57.902344 C 170.78125 57.464844 171.621094 57.59375 172.066406 58.183594 C 172.503906 58.785156 172.382812 59.628906 171.785156 60.066406 C 166.320312 64.09375 161.789062 69.351562 158.667969 75.269531 C 158.425781 75.726562 157.964844 75.992188 157.480469 75.992188 C 157.273438 75.992188 157.054688 75.945312 156.855469 75.835938 C 156.195312 75.492188 155.949219 74.679688 156.289062 74.019531 Z M 156.289062 74.019531 " fill-opacity="1" fill-rule="nonzero"/><path fill="#ffffff" d="M 206.191406 106.089844 C 206.191406 112.636719 199.339844 118.039062 190.554688 118.773438 C 190.09375 118.746094 189.703125 118.542969 189.328125 118.128906 C 187.257812 115.835938 187.027344 109.128906 187.140625 105.558594 C 190.84375 105.113281 193.707031 101.601562 193.707031 98.65625 C 193.707031 95.449219 190.410156 92.847656 186.355469 92.847656 C 182.296875 92.847656 178.996094 95.449219 178.996094 98.65625 C 178.996094 101.296875 181.308594 104.390625 184.460938 105.324219 C 184.351562 108.167969 184.351562 115.015625 186.511719 118.78125 C 177.703125 118.054688 170.84375 112.644531 170.84375 106.089844 C 170.84375 98.695312 178.996094 89.667969 188.511719 89.667969 C 198.039062 89.667969 206.191406 98.695312 206.191406 106.089844 Z M 206.191406 106.089844 " fill-opacity="1" fill-rule="nonzero"/><path fill="#9d4c2d" d="M 133.757812 215.785156 C 133.757812 226.578125 126.175781 235.363281 116.847656 235.363281 C 107.527344 235.363281 99.945312 226.578125 99.945312 215.785156 C 99.945312 204.992188 107.527344 196.210938 116.847656 196.210938 C 126.175781 196.210938 133.757812 204.992188 133.757812 215.785156 Z M 178.699219 203.699219 C 169.378906 203.699219 161.796875 212.476562 161.796875 223.273438 C 161.796875 234.066406 169.378906 242.851562 178.699219 242.851562 C 188.027344 242.851562 195.609375 234.066406 195.609375 223.273438 C 195.609375 212.476562 188.027344 203.699219 178.699219 203.699219 Z M 178.699219 203.699219 " fill-opacity="1" fill-rule="nonzero"/><g clip-path="url(#3cce57851b)"><path fill="#000000" d="M 244.234375 130.914062 C 239.589844 126.785156 234.367188 123.335938 228.695312 120.613281 C 236.4375 113.429688 241.210938 103.683594 241.210938 92.957031 C 241.210938 89.136719 240.605469 85.257812 239.414062 81.414062 C 244.394531 78.140625 247.449219 72.550781 247.449219 66.554688 C 247.449219 56.765625 239.476562 48.796875 229.683594 48.796875 C 224.78125 48.796875 220.152344 50.796875 216.796875 54.328125 C 210.410156 50.914062 203.355469 49.109375 196.316406 49.109375 C 189.28125 49.109375 182.222656 50.914062 175.835938 54.328125 C 172.488281 50.796875 167.859375 48.796875 162.957031 48.796875 C 153.15625 48.796875 145.191406 56.765625 145.191406 66.566406 C 145.191406 72.5625 148.246094 78.15625 153.226562 81.429688 C 152.027344 85.265625 151.429688 89.144531 151.429688 92.96875 C 151.429688 104.886719 157.320312 115.59375 166.632812 122.925781 C 162.621094 125.21875 158.871094 127.902344 155.484375 130.925781 C 144.707031 140.492188 126.769531 164.40625 120.464844 184.972656 C 120.148438 184.96875 119.839844 184.953125 119.515625 184.953125 C 102.519531 184.953125 88.691406 198.78125 88.691406 215.777344 C 88.691406 232.777344 102.519531 246.601562 119.496094 246.601562 C 119.515625 246.601562 119.792969 246.609375 120.289062 246.609375 C 124.027344 246.609375 140.375 246.375 157.390625 242.609375 C 163.046875 249.609375 171.695312 254.097656 181.367188 254.097656 C 181.597656 254.097656 204.8125 253.96875 228.554688 244.921875 C 229.664062 244.546875 251.964844 236.6875 253.539062 215.476562 C 256.285156 217.101562 259.148438 217.921875 262.128906 217.921875 C 263.484375 217.921875 264.871094 217.753906 266.269531 217.410156 C 274.207031 215.488281 279.097656 211.007812 280.828125 204.089844 C 286.304688 182.152344 257.664062 142.855469 244.234375 130.914062 Z M 154.113281 92.960938 C 154.113281 89.097656 154.785156 85.160156 156.101562 81.265625 C 156.308594 80.65625 156.054688 79.988281 155.496094 79.667969 C 150.796875 76.984375 147.882812 71.964844 147.882812 66.566406 C 147.882812 58.246094 154.644531 51.484375 162.957031 51.484375 C 167.429688 51.484375 171.640625 53.453125 174.519531 56.886719 C 174.9375 57.386719 175.648438 57.511719 176.210938 57.195312 C 182.4375 53.667969 189.394531 51.804688 196.316406 51.804688 C 203.246094 51.804688 210.195312 53.667969 216.421875 57.195312 C 216.984375 57.519531 217.699219 57.386719 218.113281 56.886719 C 221 53.453125 225.210938 51.484375 229.683594 51.484375 C 237.996094 51.484375 244.765625 58.246094 244.765625 66.566406 C 244.765625 71.964844 241.847656 76.984375 237.148438 79.667969 C 236.59375 79.984375 236.335938 80.65625 236.546875 81.265625 C 237.863281 85.164062 238.535156 89.097656 238.535156 92.960938 C 238.535156 113.53125 219.601562 130.261719 196.332031 130.261719 C 173.046875 130.261719 154.113281 113.53125 154.113281 92.960938 Z M 278.21875 203.4375 C 276.734375 209.386719 272.621094 213.101562 265.636719 214.796875 C 258.289062 216.578125 251.480469 212.667969 245.40625 203.164062 C 239.308594 193.632812 235.316406 180.636719 233.164062 173.65625 C 226.636719 152.386719 218.667969 143.1875 218.328125 142.800781 C 217.839844 142.246094 216.992188 142.191406 216.433594 142.683594 C 215.875 143.171875 215.824219 144.019531 216.3125 144.578125 C 216.394531 144.664062 224.257812 153.800781 230.597656 174.441406 C 232.78125 181.546875 236.847656 194.765625 243.140625 204.605469 C 245.605469 208.457031 248.207031 211.484375 250.929688 213.667969 C 250.527344 234.714844 227.921875 242.300781 227.691406 242.375 C 227.671875 242.382812 227.644531 242.390625 227.625 242.394531 C 204.347656 251.269531 181.597656 251.402344 181.367188 251.402344 C 165.855469 251.402344 153.230469 238.78125 153.230469 223.265625 C 153.230469 207.746094 165.855469 195.125 181.367188 195.125 C 193.972656 195.125 202.414062 203.941406 206.324219 209.191406 C 206.769531 209.789062 207.609375 209.910156 208.207031 209.46875 C 208.804688 209.023438 208.925781 208.183594 208.484375 207.585938 C 204.273438 201.925781 195.148438 192.433594 181.367188 192.433594 C 164.371094 192.433594 150.542969 206.265625 150.542969 223.265625 C 150.542969 229.53125 152.425781 235.363281 155.652344 240.230469 C 137.113281 244.171875 119.71875 243.914062 119.515625 243.914062 C 104.003906 243.921875 91.378906 231.296875 91.378906 215.777344 C 91.378906 200.265625 104.003906 187.640625 119.515625 187.640625 C 132.121094 187.640625 140.5625 196.453125 144.46875 201.710938 C 144.910156 202.308594 145.75 202.429688 146.347656 201.984375 C 146.945312 201.542969 147.066406 200.703125 146.625 200.105469 C 145.890625 199.121094 145.003906 198.019531 143.976562 196.871094 C 150.578125 193.140625 151.746094 182.632812 152.78125 173.277344 C 152.867188 172.472656 152.964844 171.664062 153.050781 170.871094 C 155.457031 150.089844 164.492188 142.324219 164.578125 142.25 C 165.148438 141.78125 165.238281 140.933594 164.757812 140.363281 C 164.289062 139.792969 163.441406 139.703125 162.871094 140.179688 C 162.46875 140.515625 152.921875 148.597656 150.375 170.570312 C 150.28125 171.363281 150.195312 172.167969 150.105469 172.980469 C 149.113281 181.984375 147.980469 192.140625 142.035156 194.839844 C 137.671875 190.566406 131.375 186.21875 123.199219 185.183594 C 129.457031 165.453125 147.089844 141.960938 157.257812 132.921875 C 160.808594 129.761719 164.757812 126.992188 169.007812 124.667969 C 176.574219 129.851562 186.046875 132.941406 196.308594 132.941406 C 207.910156 132.941406 218.496094 129.003906 226.46875 122.550781 C 232.332031 125.226562 237.703125 128.707031 242.441406 132.921875 C 257.441406 146.257812 283.046875 184.101562 278.21875 203.4375 Z M 220.855469 60.066406 C 226.316406 64.09375 230.851562 69.351562 233.964844 75.269531 C 234.207031 75.726562 234.671875 75.992188 235.152344 75.992188 C 235.363281 75.992188 235.578125 75.945312 235.777344 75.835938 C 236.4375 75.492188 236.6875 74.679688 236.34375 74.019531 C 233.035156 67.742188 228.238281 62.164062 222.449219 57.902344 C 221.851562 57.460938 221.011719 57.585938 220.566406 58.183594 C 220.132812 58.785156 220.257812 59.625 220.855469 60.066406 Z M 172.066406 58.183594 C 171.628906 57.585938 170.78125 57.460938 170.183594 57.902344 C 164.394531 62.164062 159.589844 67.742188 156.289062 74.019531 C 155.949219 74.679688 156.195312 75.492188 156.855469 75.835938 C 157.054688 75.945312 157.273438 75.992188 157.480469 75.992188 C 157.964844 75.992188 158.425781 75.726562 158.667969 75.269531 C 161.789062 69.351562 166.320312 64.09375 171.777344 60.066406 C 172.382812 59.625 172.507812 58.785156 172.066406 58.183594 Z M 208.886719 106.089844 C 208.886719 97.433594 199.796875 86.980469 188.519531 86.980469 C 177.242188 86.980469 168.152344 97.433594 168.152344 106.089844 C 168.152344 114.613281 177.289062 121.550781 188.519531 121.550781 C 199.75 121.550781 208.886719 114.613281 208.886719 106.089844 Z M 190.554688 118.773438 C 190.09375 118.746094 189.703125 118.542969 189.332031 118.128906 C 187.261719 115.835938 187.035156 109.128906 187.148438 105.558594 C 190.851562 105.109375 193.714844 101.59375 193.714844 98.648438 C 193.714844 95.449219 190.414062 92.839844 186.363281 92.839844 C 182.308594 92.839844 179.007812 95.441406 179.007812 98.648438 C 179.007812 101.289062 181.320312 104.390625 184.46875 105.316406 C 184.359375 108.160156 184.359375 115.007812 186.523438 118.765625 C 177.71875 118.046875 170.847656 112.628906 170.847656 106.082031 C 170.847656 98.6875 179.007812 89.664062 188.527344 89.664062 C 198.042969 89.664062 206.203125 98.6875 206.203125 106.082031 C 206.199219 112.628906 199.347656 118.039062 190.554688 118.773438 Z M 205.742188 90.179688 C 208.339844 90.179688 210.453125 88.0625 210.453125 85.46875 C 210.453125 82.867188 208.335938 80.757812 205.742188 80.757812 C 203.144531 80.757812 201.027344 82.875 201.027344 85.46875 C 201.027344 88.0625 203.144531 90.179688 205.742188 90.179688 Z M 168.152344 85.46875 C 168.152344 88.070312 170.269531 90.179688 172.867188 90.179688 C 175.464844 90.179688 177.578125 88.0625 177.578125 85.46875 C 177.578125 82.867188 175.460938 80.757812 172.867188 80.757812 C 170.269531 80.757812 168.152344 82.867188 168.152344 85.46875 Z M 116.855469 193.523438 C 106.046875 193.523438 97.253906 203.511719 97.253906 215.785156 C 97.253906 228.058594 106.046875 238.046875 116.855469 238.046875 C 127.664062 238.046875 136.453125 228.058594 136.453125 215.785156 C 136.453125 203.511719 127.664062 193.523438 116.855469 193.523438 Z M 116.855469 235.363281 C 107.53125 235.363281 99.945312 226.578125 99.945312 215.792969 C 99.945312 204.996094 107.53125 196.21875 116.855469 196.21875 C 126.175781 196.21875 133.765625 205.003906 133.765625 215.792969 C 133.765625 226.578125 126.175781 235.363281 116.855469 235.363281 Z M 178.707031 201.011719 C 167.898438 201.011719 159.105469 211 159.105469 223.273438 C 159.105469 235.554688 167.898438 245.535156 178.707031 245.535156 C 189.515625 245.535156 198.304688 235.546875 198.304688 223.273438 C 198.304688 211 189.515625 201.011719 178.707031 201.011719 Z M 178.707031 242.851562 C 169.382812 242.851562 161.796875 234.066406 161.796875 223.28125 C 161.796875 212.484375 169.382812 203.707031 178.707031 203.707031 C 188.027344 203.707031 195.617188 212.492188 195.617188 223.28125 C 195.617188 234.066406 188.027344 242.851562 178.707031 242.851562 Z M 178.707031 242.851562 " fill-opacity="1" fill-rule="nonzero"/></g><g transform="matrix(1, 0, 0, 1, 99, 266)"><g clip-path="url(#860e67f611)"><g fill="#000000" fill-opacity="1"><g transform="translate(1.571147, 41.25241)"><g><path d="M 1.828125 0.53125 C 1.273438 0.382812 0.898438 0.09375 0.703125 -0.34375 C 0.515625 -0.78125 0.421875 -1.3125 0.421875 -1.9375 L 0.421875 -9.703125 C 0.421875 -10.359375 0.75 -10.804688 1.40625 -11.046875 C 2.070312 -11.296875 2.90625 -11.429688 3.90625 -11.453125 C 4.90625 -11.472656 5.921875 -11.445312 6.953125 -11.375 C 7.984375 -11.300781 8.847656 -11.285156 9.546875 -11.328125 C 10.734375 -11.390625 11.535156 -11.664062 11.953125 -12.15625 C 12.367188 -12.644531 12.394531 -13.210938 12.03125 -13.859375 C 11.664062 -14.503906 10.890625 -15.039062 9.703125 -15.46875 C 7.460938 -16.300781 5.625 -17.160156 4.1875 -18.046875 C 2.757812 -18.941406 1.703125 -19.984375 1.015625 -21.171875 C 0.335938 -22.359375 0 -23.796875 0 -25.484375 C 0 -27.367188 0.269531 -29.070312 0.8125 -30.59375 C 1.351562 -32.113281 2.359375 -33.445312 3.828125 -34.59375 C 4.804688 -35.363281 5.941406 -35.941406 7.234375 -36.328125 C 8.523438 -36.710938 9.878906 -36.972656 11.296875 -37.109375 C 12.710938 -37.253906 14.050781 -37.34375 15.3125 -37.375 C 15.90625 -37.40625 16.785156 -37.421875 17.953125 -37.421875 C 19.117188 -37.421875 20.335938 -37.382812 21.609375 -37.3125 C 22.890625 -37.25 24.03125 -37.140625 25.03125 -36.984375 C 26.03125 -36.828125 26.648438 -36.609375 26.890625 -36.328125 C 27.097656 -36.085938 27.238281 -35.722656 27.3125 -35.234375 C 27.382812 -34.742188 27.410156 -33.898438 27.390625 -32.703125 C 27.367188 -31.515625 27.34375 -29.703125 27.3125 -27.265625 C 27.3125 -26.003906 26.5625 -25.375 25.0625 -25.375 C 24.257812 -25.375 23.359375 -25.398438 22.359375 -25.453125 C 21.359375 -25.503906 20.40625 -25.53125 19.5 -25.53125 C 18.59375 -25.53125 17.894531 -25.40625 17.40625 -25.15625 C 16.5625 -24.769531 16.078125 -24.203125 15.953125 -23.453125 C 15.835938 -22.703125 16.320312 -22.050781 17.40625 -21.5 C 18.03125 -21.175781 18.804688 -20.835938 19.734375 -20.484375 C 20.660156 -20.140625 21.5625 -19.773438 22.4375 -19.390625 C 24.945312 -18.203125 26.675781 -16.578125 27.625 -14.515625 C 28.570312 -12.453125 28.75 -10.179688 28.15625 -7.703125 C 27.90625 -6.617188 27.5 -5.570312 26.9375 -4.5625 C 26.382812 -3.550781 25.65625 -2.675781 24.75 -1.9375 C 23.488281 -0.925781 21.722656 -0.210938 19.453125 0.203125 C 17.179688 0.628906 14.550781 0.832031 11.5625 0.8125 C 8.570312 0.789062 5.328125 0.695312 1.828125 0.53125 Z M 1.828125 0.53125 "/></g></g></g><g fill="#000000" fill-opacity="1"><g transform="translate(32.174812, 41.25241)"><g><path d="M 18.078125 0.46875 C 17.660156 0.46875 17.296875 0.257812 16.984375 -0.15625 C 16.671875 -0.570312 16.515625 -1.046875 16.515625 -1.578125 L 16.625 -14.578125 C 16.507812 -16.390625 16.15625 -17.828125 15.5625 -18.890625 C 14.96875 -19.960938 14.023438 -20.269531 12.734375 -19.8125 C 12.242188 -19.570312 11.804688 -19.171875 11.421875 -18.609375 C 11.035156 -18.046875 10.84375 -17.488281 10.84375 -16.9375 L 10.84375 -16.625 L 11.265625 -2.046875 C 11.335938 -1.484375 11.164062 -0.992188 10.75 -0.578125 C 10.394531 -0.160156 9.957031 0.046875 9.4375 0.046875 L 1.890625 0.109375 C 1.429688 0.109375 1.007812 -0.0820312 0.625 -0.46875 C 0.28125 -0.820312 0.109375 -1.3125 0.109375 -1.9375 L 0 -34.75 C 0 -35.238281 0.191406 -35.710938 0.578125 -36.171875 C 0.960938 -36.585938 1.363281 -36.796875 1.78125 -36.796875 L 8.5 -36.75 C 8.976562 -36.75 9.410156 -36.554688 9.796875 -36.171875 C 10.148438 -35.785156 10.328125 -35.296875 10.328125 -34.703125 L 10.53125 -28.09375 C 13.050781 -28.550781 15.332031 -28.65625 17.375 -28.40625 C 19.414062 -28.164062 21.117188 -27.644531 22.484375 -26.84375 C 23.742188 -26.101562 24.722656 -25.304688 25.421875 -24.453125 C 26.117188 -23.597656 26.609375 -22.601562 26.890625 -21.46875 C 27.171875 -20.332031 27.34375 -18.976562 27.40625 -17.40625 C 27.476562 -15.832031 27.515625 -13.960938 27.515625 -11.796875 L 27.46875 -1.578125 C 27.46875 -1.015625 27.3125 -0.539062 27 -0.15625 C 26.644531 0.257812 26.257812 0.46875 25.84375 0.46875 Z M 18.078125 0.46875 "/></g></g></g><g fill="#000000" fill-opacity="1"><g transform="translate(61.782798, 41.25241)"><g><path d="M 17.40625 0.9375 C 16.25 0.9375 15.757812 0.1875 15.9375 -1.3125 C 13.070312 0.40625 10.132812 1.050781 7.125 0.625 C 5.414062 0.382812 4.050781 -0.0976562 3.03125 -0.828125 C 2.019531 -1.566406 1.285156 -2.429688 0.828125 -3.421875 C 0.378906 -4.421875 0.128906 -5.445312 0.078125 -6.5 C 0.0234375 -7.550781 0.0664062 -8.515625 0.203125 -9.390625 C 0.484375 -10.816406 1.15625 -12.007812 2.21875 -12.96875 C 3.289062 -13.9375 4.585938 -14.691406 6.109375 -15.234375 C 7.628906 -15.773438 9.15625 -16.078125 10.6875 -16.140625 L 15.9375 -16.453125 C 15.863281 -17.429688 15.773438 -18.207031 15.671875 -18.78125 C 15.566406 -19.363281 15.273438 -19.769531 14.796875 -20 C 14.328125 -20.226562 13.445312 -20.320312 12.15625 -20.28125 C 11.5625 -20.28125 11.113281 -20.125 10.8125 -19.8125 C 10.519531 -19.5 10.273438 -19.148438 10.078125 -18.765625 C 9.890625 -18.378906 9.679688 -18.046875 9.453125 -17.765625 C 9.234375 -17.492188 8.894531 -17.390625 8.4375 -17.453125 L 2.78125 -18.1875 C 2.289062 -18.257812 1.914062 -18.375 1.65625 -18.53125 C 1.394531 -18.6875 1.265625 -18.972656 1.265625 -19.390625 C 1.265625 -20.679688 1.425781 -21.878906 1.75 -22.984375 C 2.082031 -24.085938 2.765625 -25.050781 3.796875 -25.875 C 4.828125 -26.695312 6.375 -27.332031 8.4375 -27.78125 C 10.601562 -28.269531 12.695312 -28.492188 14.71875 -28.453125 C 16.75 -28.421875 18.59375 -28.097656 20.25 -27.484375 C 21.914062 -26.878906 23.28125 -25.945312 24.34375 -24.6875 C 25.414062 -23.425781 26.070312 -21.800781 26.3125 -19.8125 C 26.351562 -19.53125 26.390625 -18.503906 26.421875 -16.734375 C 26.453125 -14.972656 26.484375 -12.703125 26.515625 -9.921875 C 26.554688 -7.148438 26.578125 -4.085938 26.578125 -0.734375 C 26.648438 -0.242188 26.484375 0.144531 26.078125 0.4375 C 25.679688 0.738281 25.320312 0.890625 25 0.890625 Z M 14.15625 -11.375 C 13.070312 -11.375 12.265625 -11.09375 11.734375 -10.53125 C 11.210938 -9.976562 10.960938 -9.320312 10.984375 -8.5625 C 11.003906 -7.8125 11.289062 -7.15625 11.84375 -6.59375 C 12.40625 -6.039062 13.226562 -5.765625 14.3125 -5.765625 C 14.9375 -5.765625 15.25 -6.007812 15.25 -6.5 L 15.25 -10.640625 C 15.25 -11.128906 14.882812 -11.375 14.15625 -11.375 Z M 14.15625 -11.375 "/></g></g></g><g fill="#000000" fill-opacity="1"><g transform="translate(90.447531, 41.25241)"><g><path d="M 18.34375 0.46875 C 17.925781 0.46875 17.5625 0.257812 17.25 -0.15625 C 16.9375 -0.570312 16.78125 -1.046875 16.78125 -1.578125 L 16.875 -14.578125 C 16.769531 -16.390625 16.421875 -17.828125 15.828125 -18.890625 C 15.234375 -19.960938 14.289062 -20.269531 13 -19.8125 C 12.539062 -19.601562 12.082031 -19.289062 11.625 -18.875 C 11.175781 -18.457031 10.914062 -17.828125 10.84375 -16.984375 L 11.21875 -1.3125 C 11.289062 -0.820312 11.085938 -0.425781 10.609375 -0.125 C 10.140625 0.164062 9.695312 0.3125 9.28125 0.3125 L 1.984375 0.359375 C 1.460938 0.359375 1.019531 0.210938 0.65625 -0.078125 C 0.289062 -0.378906 0.109375 -0.773438 0.109375 -1.265625 L 0 -26.84375 C 0 -27.257812 0.191406 -27.632812 0.578125 -27.96875 C 0.960938 -28.300781 1.398438 -28.46875 1.890625 -28.46875 L 8.703125 -28.46875 C 9.296875 -28.46875 9.75 -28.3125 10.0625 -28 C 12.75 -28.519531 15.1875 -28.664062 17.375 -28.4375 C 19.5625 -28.207031 21.351562 -27.675781 22.75 -26.84375 C 24.007812 -26.101562 24.988281 -25.304688 25.6875 -24.453125 C 26.382812 -23.597656 26.875 -22.601562 27.15625 -21.46875 C 27.4375 -20.332031 27.609375 -18.976562 27.671875 -17.40625 C 27.742188 -15.832031 27.78125 -13.960938 27.78125 -11.796875 L 27.734375 -1.578125 C 27.734375 -1.015625 27.578125 -0.539062 27.265625 -0.15625 C 26.910156 0.257812 26.523438 0.46875 26.109375 0.46875 Z M 18.34375 0.46875 "/></g></g></g><g fill="#000000" fill-opacity="1"><g transform="translate(120.317549, 41.25241)"><g><path d="M 15.09375 0.3125 C 14.78125 0.3125 14.484375 0.222656 14.203125 0.046875 C 13.992188 -0.191406 13.835938 -0.4375 13.734375 -0.6875 L 10.59375 -8.4375 L 10.75 -1.359375 C 10.8125 -0.910156 10.671875 -0.507812 10.328125 -0.15625 C 9.972656 0.15625 9.585938 0.3125 9.171875 0.3125 L 1.578125 0.3125 C 1.148438 0.3125 0.800781 0.171875 0.53125 -0.109375 C 0.25 -0.390625 0.109375 -0.789062 0.109375 -1.3125 L 0 -35.4375 C 0 -35.820312 0.15625 -36.1875 0.46875 -36.53125 C 0.78125 -36.851562 1.128906 -37.015625 1.515625 -37.015625 L 8.5 -37.015625 C 8.945312 -37.015625 9.328125 -36.851562 9.640625 -36.53125 C 9.921875 -36.1875 10.0625 -35.820312 10.0625 -35.4375 L 10.375 -19.078125 L 14 -27.421875 C 14.132812 -27.804688 14.328125 -28.066406 14.578125 -28.203125 C 14.742188 -28.273438 14.992188 -28.328125 15.328125 -28.359375 C 15.660156 -28.390625 15.914062 -28.40625 16.09375 -28.40625 L 22.75 -28.40625 C 23.238281 -28.40625 23.640625 -28.160156 23.953125 -27.671875 C 24.265625 -27.179688 24.316406 -26.691406 24.109375 -26.203125 L 18.71875 -13.9375 L 24.21875 -1.734375 C 24.394531 -1.171875 24.328125 -0.660156 24.015625 -0.203125 C 23.691406 0.210938 23.253906 0.421875 22.703125 0.421875 Z M 15.09375 0.3125 "/></g></g></g><g fill="#000000" fill-opacity="1"><g transform="translate(146.728914, 41.25241)"><g><path d="M 17.40625 0.9375 C 16.25 0.9375 15.757812 0.1875 15.9375 -1.3125 C 13.070312 0.40625 10.132812 1.050781 7.125 0.625 C 5.414062 0.382812 4.050781 -0.0976562 3.03125 -0.828125 C 2.019531 -1.566406 1.285156 -2.429688 0.828125 -3.421875 C 0.378906 -4.421875 0.128906 -5.445312 0.078125 -6.5 C 0.0234375 -7.550781 0.0664062 -8.515625 0.203125 -9.390625 C 0.484375 -10.816406 1.15625 -12.007812 2.21875 -12.96875 C 3.289062 -13.9375 4.585938 -14.691406 6.109375 -15.234375 C 7.628906 -15.773438 9.15625 -16.078125 10.6875 -16.140625 L 15.9375 -16.453125 C 15.863281 -17.429688 15.773438 -18.207031 15.671875 -18.78125 C 15.566406 -19.363281 15.273438 -19.769531 14.796875 -20 C 14.328125 -20.226562 13.445312 -20.320312 12.15625 -20.28125 C 11.5625 -20.28125 11.113281 -20.125 10.8125 -19.8125 C 10.519531 -19.5 10.273438 -19.148438 10.078125 -18.765625 C 9.890625 -18.378906 9.679688 -18.046875 9.453125 -17.765625 C 9.234375 -17.492188 8.894531 -17.390625 8.4375 -17.453125 L 2.78125 -18.1875 C 2.289062 -18.257812 1.914062 -18.375 1.65625 -18.53125 C 1.394531 -18.6875 1.265625 -18.972656 1.265625 -19.390625 C 1.265625 -20.679688 1.425781 -21.878906 1.75 -22.984375 C 2.082031 -24.085938 2.765625 -25.050781 3.796875 -25.875 C 4.828125 -26.695312 6.375 -27.332031 8.4375 -27.78125 C 10.601562 -28.269531 12.695312 -28.492188 14.71875 -28.453125 C 16.75 -28.421875 18.59375 -28.097656 20.25 -27.484375 C 21.914062 -26.878906 23.28125 -25.945312 24.34375 -24.6875 C 25.414062 -23.425781 26.070312 -21.800781 26.3125 -19.8125 C 26.351562 -19.53125 26.390625 -18.503906 26.421875 -16.734375 C 26.453125 -14.972656 26.484375 -12.703125 26.515625 -9.921875 C 26.554688 -7.148438 26.578125 -4.085938 26.578125 -0.734375 C 26.648438 -0.242188 26.484375 0.144531 26.078125 0.4375 C 25.679688 0.738281 25.320312 0.890625 25 0.890625 Z M 14.15625 -11.375 C 13.070312 -11.375 12.265625 -11.09375 11.734375 -10.53125 C 11.210938 -9.976562 10.960938 -9.320312 10.984375 -8.5625 C 11.003906 -7.8125 11.289062 -7.15625 11.84375 -6.59375 C 12.40625 -6.039062 13.226562 -5.765625 14.3125 -5.765625 C 14.9375 -5.765625 15.25 -6.007812 15.25 -6.5 L 15.25 -10.640625 C 15.25 -11.128906 14.882812 -11.375 14.15625 -11.375 Z M 14.15625 -11.375 "/></g></g></g></g></g><g transform="matrix(1, 0, 0, 1, 118, 315)"><g clip-path="url(#b1f29fd726)"><g fill="#000000" fill-opacity="1"><g transform="translate(1.8831, 15.530485)"><g><path d="M 10.5625 0 L 9.15625 0 C 8.769531 0 8.445312 -0.257812 8.1875 -0.78125 L 6.671875 -3.859375 C 6.546875 -4.117188 6.410156 -4.3125 6.265625 -4.4375 C 6.117188 -4.570312 5.914062 -4.644531 5.65625 -4.65625 L 3.609375 -4.65625 L 3.609375 -1.203125 L 5.0625 -1.203125 C 5.1875 -1.203125 5.25 -1.140625 5.25 -1.015625 L 5.25 -0.1875 C 5.25 -0.0625 5.1875 0 5.0625 0 L 0.984375 0 C 0.847656 0 0.78125 -0.0625 0.78125 -0.1875 L 0.78125 -1.015625 C 0.78125 -1.140625 0.847656 -1.203125 0.984375 -1.203125 L 2.203125 -1.203125 L 2.203125 -10.375 L 0.984375 -10.375 C 0.847656 -10.375 0.78125 -10.4375 0.78125 -10.5625 L 0.78125 -11.390625 C 0.78125 -11.515625 0.847656 -11.578125 0.984375 -11.578125 L 5.953125 -11.578125 C 7.097656 -11.578125 8.03125 -11.269531 8.75 -10.65625 C 9.476562 -10.050781 9.84375 -9.195312 9.84375 -8.09375 C 9.84375 -6.40625 9.050781 -5.351562 7.46875 -4.9375 C 7.664062 -4.769531 7.914062 -4.410156 8.21875 -3.859375 L 9.578125 -1.203125 L 10.5625 -1.203125 C 10.6875 -1.203125 10.75 -1.140625 10.75 -1.015625 L 10.75 -0.1875 C 10.75 -0.0625 10.6875 0 10.5625 0 Z M 3.609375 -5.8125 L 5.671875 -5.8125 C 7.503906 -5.8125 8.421875 -6.554688 8.421875 -8.046875 C 8.421875 -9.597656 7.503906 -10.375 5.671875 -10.375 L 3.609375 -10.375 Z M 3.609375 -5.8125 "/></g></g></g><g fill="#000000" fill-opacity="1"><g transform="translate(14.216831, 15.530485)"><g><path d="M 9.546875 0 L 0.984375 0 C 0.847656 0 0.78125 -0.0625 0.78125 -0.1875 L 0.78125 -1.015625 C 0.78125 -1.140625 0.847656 -1.203125 0.984375 -1.203125 L 2.203125 -1.203125 L 2.203125 -10.375 L 0.984375 -10.375 C 0.847656 -10.375 0.78125 -10.4375 0.78125 -10.5625 L 0.78125 -11.390625 C 0.78125 -11.515625 0.847656 -11.578125 0.984375 -11.578125 L 9.546875 -11.578125 C 9.679688 -11.578125 9.75 -11.515625 9.75 -11.390625 L 9.75 -8.78125 C 9.75 -8.644531 9.679688 -8.578125 9.546875 -8.578125 L 8.671875 -8.578125 C 8.546875 -8.578125 8.484375 -8.644531 8.484375 -8.78125 L 8.484375 -10.375 L 3.609375 -10.375 L 3.609375 -6.375 L 7.6875 -6.375 C 7.832031 -6.375 7.90625 -6.304688 7.90625 -6.171875 L 7.90625 -5.359375 C 7.90625 -5.222656 7.832031 -5.15625 7.6875 -5.15625 L 3.609375 -5.15625 L 3.609375 -1.203125 L 8.46875 -1.203125 L 8.46875 -2.796875 C 8.46875 -2.921875 8.535156 -2.984375 8.671875 -2.984375 L 9.546875 -2.984375 C 9.679688 -2.984375 9.75 -2.921875 9.75 -2.796875 L 9.75 -0.1875 C 9.75 -0.0625 9.679688 0 9.546875 0 Z M 9.546875 0 "/></g></g></g><g fill="#000000" fill-opacity="1"><g transform="translate(25.550967, 15.530485)"><g><path d="M 7.703125 0 L 3.953125 0 C 3.804688 0 3.734375 -0.0664062 3.734375 -0.203125 L 3.734375 -1 C 3.734375 -1.132812 3.804688 -1.203125 3.953125 -1.203125 L 5.171875 -1.203125 L 5.171875 -10.375 L 2.125 -10.375 L 2.125 -8.65625 C 2.125 -8.507812 2.050781 -8.4375 1.90625 -8.4375 L 1 -8.4375 C 0.851562 -8.4375 0.78125 -8.507812 0.78125 -8.65625 L 0.78125 -11.375 C 0.78125 -11.507812 0.851562 -11.578125 1 -11.578125 L 10.71875 -11.578125 C 10.875 -11.578125 10.953125 -11.507812 10.953125 -11.375 L 10.953125 -8.65625 C 10.953125 -8.507812 10.875 -8.4375 10.71875 -8.4375 L 9.796875 -8.4375 C 9.660156 -8.4375 9.59375 -8.507812 9.59375 -8.65625 L 9.59375 -10.375 L 6.578125 -10.375 L 6.578125 -1.203125 L 7.703125 -1.203125 C 7.859375 -1.203125 7.9375 -1.132812 7.9375 -1 L 7.9375 -0.203125 C 7.9375 -0.0664062 7.859375 0 7.703125 0 Z M 7.703125 0 "/></g></g></g><g fill="#000000" fill-opacity="1"><g transform="translate(38.078164, 15.530485)"><g><path d="M 12.390625 0 L 8.734375 0 C 8.609375 0 8.546875 -0.0625 8.546875 -0.1875 L 8.546875 -1.015625 C 8.546875 -1.140625 8.609375 -1.203125 8.734375 -1.203125 L 9.875 -1.203125 L 8.828125 -4 L 4.328125 -4 L 3.265625 -1.203125 L 4.40625 -1.203125 C 4.53125 -1.203125 4.59375 -1.140625 4.59375 -1.015625 L 4.59375 -0.1875 C 4.59375 -0.0625 4.53125 0 4.40625 0 L 0.78125 0 C 0.644531 0 0.578125 -0.0625 0.578125 -0.1875 L 0.578125 -1.015625 C 0.578125 -1.140625 0.644531 -1.203125 0.78125 -1.203125 L 1.859375 -1.203125 L 5.328125 -10.375 L 4.453125 -10.375 C 4.304688 -10.375 4.234375 -10.4375 4.234375 -10.5625 L 4.234375 -11.390625 C 4.234375 -11.515625 4.304688 -11.578125 4.453125 -11.578125 L 6.640625 -11.578125 C 6.898438 -11.578125 7.097656 -11.519531 7.234375 -11.40625 C 7.367188 -11.300781 7.484375 -11.128906 7.578125 -10.890625 L 11.28125 -1.203125 L 12.390625 -1.203125 C 12.515625 -1.203125 12.578125 -1.140625 12.578125 -1.015625 L 12.578125 -0.1875 C 12.578125 -0.0625 12.515625 0 12.390625 0 Z M 8.390625 -5.109375 L 6.59375 -9.90625 L 6.546875 -9.90625 L 4.734375 -5.109375 Z M 8.390625 -5.109375 "/></g></g></g><g fill="#000000" fill-opacity="1"><g transform="translate(52.443333, 15.530485)"><g><path d="M 4.859375 0 L 0.984375 0 C 0.847656 0 0.78125 -0.0625 0.78125 -0.1875 L 0.78125 -1.015625 C 0.78125 -1.140625 0.847656 -1.203125 0.984375 -1.203125 L 2.203125 -1.203125 L 2.203125 -10.375 L 0.984375 -10.375 C 0.847656 -10.375 0.78125 -10.4375 0.78125 -10.5625 L 0.78125 -11.390625 C 0.78125 -11.515625 0.847656 -11.578125 0.984375 -11.578125 L 4.859375 -11.578125 C 4.992188 -11.578125 5.0625 -11.515625 5.0625 -11.390625 L 5.0625 -10.5625 C 5.0625 -10.4375 4.992188 -10.375 4.859375 -10.375 L 3.609375 -10.375 L 3.609375 -1.203125 L 4.859375 -1.203125 C 4.992188 -1.203125 5.0625 -1.140625 5.0625 -1.015625 L 5.0625 -0.1875 C 5.0625 -0.0625 4.992188 0 4.859375 0 Z M 4.859375 0 "/></g></g></g><g fill="#000000" fill-opacity="1"><g transform="translate(59.085795, 15.530485)"><g><path d="M 9.796875 0 L 0.984375 0 C 0.847656 0 0.78125 -0.0625 0.78125 -0.1875 L 0.78125 -1.015625 C 0.78125 -1.140625 0.847656 -1.203125 0.984375 -1.203125 L 2.203125 -1.203125 L 2.203125 -10.375 L 0.984375 -10.375 C 0.847656 -10.375 0.78125 -10.4375 0.78125 -10.5625 L 0.78125 -11.390625 C 0.78125 -11.515625 0.847656 -11.578125 0.984375 -11.578125 L 4.84375 -11.578125 C 4.976562 -11.578125 5.046875 -11.507812 5.046875 -11.375 L 5.046875 -10.578125 C 5.046875 -10.441406 4.976562 -10.375 4.84375 -10.375 L 3.609375 -10.375 L 3.609375 -1.203125 L 8.734375 -1.203125 L 8.734375 -2.796875 C 8.734375 -2.921875 8.804688 -2.984375 8.953125 -2.984375 L 9.8125 -2.984375 C 9.945312 -2.984375 10.015625 -2.921875 10.015625 -2.796875 L 10.015625 -0.203125 C 10.015625 -0.0664062 9.941406 0 9.796875 0 Z M 9.796875 0 "/></g></g></g><g fill="#000000" fill-opacity="1"><g transform="translate(70.694005, 15.530485)"><g/></g></g><g fill="#000000" fill-opacity="1"><g transform="translate(76.546471, 15.530485)"><g><path d="M 1.890625 0 L 0.984375 0 C 0.847656 0 0.78125 -0.0625 0.78125 -0.1875 L 0.78125 -3.96875 C 0.78125 -4.101562 0.847656 -4.171875 0.984375 -4.171875 L 2 -4.171875 C 2.125 -4.171875 2.1875 -4.101562 2.1875 -3.96875 L 2.1875 -3.625 C 2.1875 -3.425781 2.3125 -3.15625 2.5625 -2.8125 C 2.8125 -2.476562 3.054688 -2.203125 3.296875 -1.984375 C 3.546875 -1.765625 3.878906 -1.578125 4.296875 -1.421875 C 4.710938 -1.265625 5.160156 -1.1875 5.640625 -1.1875 C 6.472656 -1.1875 7.117188 -1.359375 7.578125 -1.703125 C 8.046875 -2.046875 8.28125 -2.523438 8.28125 -3.140625 C 8.28125 -3.492188 8.148438 -3.796875 7.890625 -4.046875 C 7.628906 -4.304688 7.285156 -4.507812 6.859375 -4.65625 C 6.441406 -4.8125 5.976562 -4.953125 5.46875 -5.078125 C 4.957031 -5.203125 4.445312 -5.347656 3.9375 -5.515625 C 3.425781 -5.679688 2.960938 -5.878906 2.546875 -6.109375 C 2.128906 -6.347656 1.785156 -6.671875 1.515625 -7.078125 C 1.253906 -7.492188 1.125 -7.984375 1.125 -8.546875 C 1.125 -9.453125 1.460938 -10.195312 2.140625 -10.78125 C 2.828125 -11.375 3.75 -11.671875 4.90625 -11.671875 C 6.351562 -11.671875 7.414062 -11.25 8.09375 -10.40625 L 8.0625 -11.40625 C 8.0625 -11.53125 8.128906 -11.59375 8.265625 -11.59375 L 9.171875 -11.59375 C 9.304688 -11.59375 9.375 -11.53125 9.375 -11.40625 L 9.375 -7.890625 C 9.375 -7.753906 9.304688 -7.6875 9.171875 -7.6875 L 8.15625 -7.6875 C 8.03125 -7.6875 7.96875 -7.753906 7.96875 -7.890625 L 7.96875 -8.34375 C 7.96875 -8.78125 7.71875 -9.222656 7.21875 -9.671875 C 6.726562 -10.128906 6.003906 -10.359375 5.046875 -10.359375 C 4.335938 -10.359375 3.765625 -10.1875 3.328125 -9.84375 C 2.890625 -9.507812 2.671875 -9.078125 2.671875 -8.546875 C 2.671875 -8.171875 2.804688 -7.847656 3.078125 -7.578125 C 3.347656 -7.304688 3.695312 -7.085938 4.125 -6.921875 C 4.550781 -6.765625 5.023438 -6.617188 5.546875 -6.484375 C 6.066406 -6.347656 6.582031 -6.203125 7.09375 -6.046875 C 7.613281 -5.890625 8.085938 -5.695312 8.515625 -5.46875 C 8.941406 -5.238281 9.289062 -4.925781 9.5625 -4.53125 C 9.832031 -4.144531 9.96875 -3.679688 9.96875 -3.140625 C 9.96875 -2.191406 9.628906 -1.410156 8.953125 -0.796875 C 8.273438 -0.191406 7.265625 0.109375 5.921875 0.109375 C 4.929688 0.109375 4.113281 -0.0859375 3.46875 -0.484375 C 2.820312 -0.878906 2.351562 -1.3125 2.0625 -1.78125 L 2.078125 -0.1875 C 2.078125 -0.0625 2.015625 0 1.890625 0 Z M 1.890625 0 "/></g></g></g><g fill="#000000" fill-opacity="1"><g transform="translate(88.090186, 15.530485)"><g><path d="M 7.703125 0 L 3.953125 0 C 3.804688 0 3.734375 -0.0664062 3.734375 -0.203125 L 3.734375 -1 C 3.734375 -1.132812 3.804688 -1.203125 3.953125 -1.203125 L 5.171875 -1.203125 L 5.171875 -10.375 L 2.125 -10.375 L 2.125 -8.65625 C 2.125 -8.507812 2.050781 -8.4375 1.90625 -8.4375 L 1 -8.4375 C 0.851562 -8.4375 0.78125 -8.507812 0.78125 -8.65625 L 0.78125 -11.375 C 0.78125 -11.507812 0.851562 -11.578125 1 -11.578125 L 10.71875 -11.578125 C 10.875 -11.578125 10.953125 -11.507812 10.953125 -11.375 L 10.953125 -8.65625 C 10.953125 -8.507812 10.875 -8.4375 10.71875 -8.4375 L 9.796875 -8.4375 C 9.660156 -8.4375 9.59375 -8.507812 9.59375 -8.65625 L 9.59375 -10.375 L 6.578125 -10.375 L 6.578125 -1.203125 L 7.703125 -1.203125 C 7.859375 -1.203125 7.9375 -1.132812 7.9375 -1 L 7.9375 -0.203125 C 7.9375 -0.0664062 7.859375 0 7.703125 0 Z M 7.703125 0 "/></g></g></g><g fill="#000000" fill-opacity="1"><g transform="translate(100.617382, 15.530485)"><g><path d="M 12 -5.84375 C 12 -4.070312 11.46875 -2.632812 10.40625 -1.53125 C 9.351562 -0.4375 8.019531 0.109375 6.40625 0.109375 C 4.800781 0.109375 3.460938 -0.441406 2.390625 -1.546875 C 1.316406 -2.660156 0.78125 -4.097656 0.78125 -5.859375 C 0.78125 -7.617188 1.332031 -9.023438 2.4375 -10.078125 C 3.539062 -11.140625 4.859375 -11.671875 6.390625 -11.671875 C 7.929688 -11.671875 9.25 -11.140625 10.34375 -10.078125 C 11.445312 -9.023438 12 -7.613281 12 -5.84375 Z M 3.515625 -2.421875 C 4.335938 -1.597656 5.296875 -1.1875 6.390625 -1.1875 C 7.492188 -1.1875 8.453125 -1.597656 9.265625 -2.421875 C 10.085938 -3.242188 10.5 -4.375 10.5 -5.8125 C 10.5 -7.25 10.082031 -8.375 9.25 -9.1875 C 8.414062 -10 7.46875 -10.40625 6.40625 -10.40625 C 5.34375 -10.40625 4.390625 -10 3.546875 -9.1875 C 2.710938 -8.375 2.296875 -7.25 2.296875 -5.8125 C 2.296875 -4.375 2.703125 -3.242188 3.515625 -2.421875 Z M 3.515625 -2.421875 "/></g></g></g><g fill="#000000" fill-opacity="1"><g transform="translate(114.208669, 15.530485)"><g><path d="M 10.5625 0 L 9.15625 0 C 8.769531 0 8.445312 -0.257812 8.1875 -0.78125 L 6.671875 -3.859375 C 6.546875 -4.117188 6.410156 -4.3125 6.265625 -4.4375 C 6.117188 -4.570312 5.914062 -4.644531 5.65625 -4.65625 L 3.609375 -4.65625 L 3.609375 -1.203125 L 5.0625 -1.203125 C 5.1875 -1.203125 5.25 -1.140625 5.25 -1.015625 L 5.25 -0.1875 C 5.25 -0.0625 5.1875 0 5.0625 0 L 0.984375 0 C 0.847656 0 0.78125 -0.0625 0.78125 -0.1875 L 0.78125 -1.015625 C 0.78125 -1.140625 0.847656 -1.203125 0.984375 -1.203125 L 2.203125 -1.203125 L 2.203125 -10.375 L 0.984375 -10.375 C 0.847656 -10.375 0.78125 -10.4375 0.78125 -10.5625 L 0.78125 -11.390625 C 0.78125 -11.515625 0.847656 -11.578125 0.984375 -11.578125 L 5.953125 -11.578125 C 7.097656 -11.578125 8.03125 -11.269531 8.75 -10.65625 C 9.476562 -10.050781 9.84375 -9.195312 9.84375 -8.09375 C 9.84375 -6.40625 9.050781 -5.351562 7.46875 -4.9375 C 7.664062 -4.769531 7.914062 -4.410156 8.21875 -3.859375 L 9.578125 -1.203125 L 10.5625 -1.203125 C 10.6875 -1.203125 10.75 -1.140625 10.75 -1.015625 L 10.75 -0.1875 C 10.75 -0.0625 10.6875 0 10.5625 0 Z M 3.609375 -5.8125 L 5.671875 -5.8125 C 7.503906 -5.8125 8.421875 -6.554688 8.421875 -8.046875 C 8.421875 -9.597656 7.503906 -10.375 5.671875 -10.375 L 3.609375 -10.375 Z M 3.609375 -5.8125 "/></g></g></g><g fill="#000000" fill-opacity="1"><g transform="translate(126.5424, 15.530485)"><g><path d="M 9.546875 0 L 0.984375 0 C 0.847656 0 0.78125 -0.0625 0.78125 -0.1875 L 0.78125 -1.015625 C 0.78125 -1.140625 0.847656 -1.203125 0.984375 -1.203125 L 2.203125 -1.203125 L 2.203125 -10.375 L 0.984375 -10.375 C 0.847656 -10.375 0.78125 -10.4375 0.78125 -10.5625 L 0.78125 -11.390625 C 0.78125 -11.515625 0.847656 -11.578125 0.984375 -11.578125 L 9.546875 -11.578125 C 9.679688 -11.578125 9.75 -11.515625 9.75 -11.390625 L 9.75 -8.78125 C 9.75 -8.644531 9.679688 -8.578125 9.546875 -8.578125 L 8.671875 -8.578125 C 8.546875 -8.578125 8.484375 -8.644531 8.484375 -8.78125 L 8.484375 -10.375 L 3.609375 -10.375 L 3.609375 -6.375 L 7.6875 -6.375 C 7.832031 -6.375 7.90625 -6.304688 7.90625 -6.171875 L 7.90625 -5.359375 C 7.90625 -5.222656 7.832031 -5.15625 7.6875 -5.15625 L 3.609375 -5.15625 L 3.609375 -1.203125 L 8.46875 -1.203125 L 8.46875 -2.796875 C 8.46875 -2.921875 8.535156 -2.984375 8.671875 -2.984375 L 9.546875 -2.984375 C 9.679688 -2.984375 9.75 -2.921875 9.75 -2.796875 L 9.75 -0.1875 C 9.75 -0.0625 9.679688 0 9.546875 0 Z M 9.546875 0 "/></g></g></g></g></g></svg>