<svg xmlns="http://www.w3.org/2000/svg" xmlns:xlink="http://www.w3.org/1999/xlink" width="500" zoomAndPan="magnify" viewBox="0 0 375 374.999991" height="500" preserveAspectRatio="xMidYMid meet" version="1.0"><defs><filter x="0%" y="0%" width="100%" height="100%" id="a800506c9f"><feColorMatrix values="0 0 0 0 1 0 0 0 0 1 0 0 0 0 1 0 0 0 1 0" color-interpolation-filters="sRGB"/></filter><mask id="5a673d5252"><g filter="url(#a800506c9f)"><rect x="-37.5" width="450" fill="#000000" y="-37.499999" height="449.999989" fill-opacity="0.1"/></g></mask><clipPath id="4a937b5d6b"><path d="M 0.917969 0.03125 L 196.125 0.03125 L 196.125 33.707031 L 0.917969 33.707031 Z M 0.917969 0.03125 " clip-rule="nonzero"/></clipPath><clipPath id="06a2d580fc"><path d="M 98.5 0.03125 C 44.605469 0.03125 0.917969 7.570312 0.917969 16.867188 C 0.917969 26.167969 44.605469 33.707031 98.5 33.707031 C 152.394531 33.707031 196.082031 26.167969 196.082031 16.867188 C 196.082031 7.570312 152.394531 0.03125 98.5 0.03125 Z M 98.5 0.03125 " clip-rule="nonzero"/></clipPath><clipPath id="afd3b85f78"><path d="M 0.917969 0.03125 L 196.121094 0.03125 L 196.121094 33.707031 L 0.917969 33.707031 Z M 0.917969 0.03125 " clip-rule="nonzero"/></clipPath><clipPath id="d19a4a9c0b"><path d="M 98.5 0.03125 C 44.605469 0.03125 0.917969 7.570312 0.917969 16.867188 C 0.917969 26.167969 44.605469 33.707031 98.5 33.707031 C 152.394531 33.707031 196.082031 26.167969 196.082031 16.867188 C 196.082031 7.570312 152.394531 0.03125 98.5 0.03125 Z M 98.5 0.03125 " clip-rule="nonzero"/></clipPath><clipPath id="8d09367905"><rect x="0" width="197" y="0" height="34"/></clipPath><clipPath id="2e344adfdc"><rect x="0" width="197" y="0" height="34"/></clipPath><clipPath id="b0b0189ed5"><path d="M 59.171875 47.292969 L 315.828125 47.292969 L 315.828125 303.949219 L 59.171875 303.949219 Z M 59.171875 47.292969 " clip-rule="nonzero"/></clipPath><clipPath id="9d254ad349"><path d="M 187.5 47.292969 C 116.625 47.292969 59.171875 104.75 59.171875 175.621094 C 59.171875 246.496094 116.625 303.949219 187.5 303.949219 C 258.375 303.949219 315.828125 246.496094 315.828125 175.621094 C 315.828125 104.75 258.375 47.292969 187.5 47.292969 Z M 187.5 47.292969 " clip-rule="nonzero"/></clipPath><clipPath id="952137482a"><path d="M 0.171875 0.292969 L 256.828125 0.292969 L 256.828125 256.949219 L 0.171875 256.949219 Z M 0.171875 0.292969 " clip-rule="nonzero"/></clipPath><clipPath id="ce477e3069"><path d="M 128.5 0.292969 C 57.625 0.292969 0.171875 57.75 0.171875 128.621094 C 0.171875 199.496094 57.625 256.949219 128.5 256.949219 C 199.375 256.949219 256.828125 199.496094 256.828125 128.621094 C 256.828125 57.75 199.375 0.292969 128.5 0.292969 Z M 128.5 0.292969 " clip-rule="nonzero"/></clipPath><clipPath id="c81798b133"><rect x="0" width="257" y="0" height="257"/></clipPath><clipPath id="6360e7ffc0"><path d="M 65.820312 102.082031 L 308.820312 102.082031 L 308.820312 298.582031 L 65.820312 298.582031 Z M 65.820312 102.082031 " clip-rule="nonzero"/></clipPath><clipPath id="605d3661bf"><path d="M 57.277344 57 L 312 57 L 312 327.671875 L 57.277344 327.671875 Z M 57.277344 57 " clip-rule="nonzero"/></clipPath><clipPath id="b6f1d827ee"><path d="M 57.277344 57 L 312 57 L 312 327.671875 L 57.277344 327.671875 Z M 57.277344 57 " clip-rule="nonzero"/></clipPath></defs><g mask="url(#5a673d5252)"><g transform="matrix(1, 0, 0, 1, 89, 294)"><g clip-path="url(#2e344adfdc)"><g clip-path="url(#4a937b5d6b)"><g clip-path="url(#06a2d580fc)"><g><g clip-path="url(#8d09367905)"><g clip-path="url(#afd3b85f78)"><g clip-path="url(#d19a4a9c0b)"><path fill="#000000" d="M 0.917969 0.03125 L 196.125 0.03125 L 196.125 33.707031 L 0.917969 33.707031 Z M 0.917969 0.03125 " fill-opacity="1" fill-rule="nonzero"/></g></g></g></g></g></g></g></g></g><g clip-path="url(#b0b0189ed5)"><g clip-path="url(#9d254ad349)"><g transform="matrix(1, 0, 0, 1, 59, 47)"><g clip-path="url(#c81798b133)"><g clip-path="url(#952137482a)"><g clip-path="url(#ce477e3069)"><path fill="#ffc035" d="M 0.171875 0.292969 L 256.828125 0.292969 L 256.828125 256.949219 L 0.171875 256.949219 Z M 0.171875 0.292969 " fill-opacity="1" fill-rule="nonzero"/></g></g></g></g></g></g><g clip-path="url(#6360e7ffc0)"><path fill="#ffad38" d="M 186.320312 169.109375 C 142.761719 169.109375 105.417969 142.582031 89.535156 104.792969 C 74.699219 124.953125 65.820312 149.769531 65.820312 176.714844 C 65.820312 243.902344 120.292969 298.347656 187.5 298.347656 C 254.699219 298.347656 309.171875 243.902344 309.171875 176.714844 C 309.171875 148.820312 299.675781 123.199219 283.878906 102.679688 C 268.511719 141.566406 230.675781 169.109375 186.320312 169.109375 Z M 186.320312 169.109375 " fill-opacity="1" fill-rule="nonzero"/></g><g clip-path="url(#605d3661bf)"><path fill="#000000" d="M 262.269531 165.261719 C 256.148438 159.824219 249.265625 155.28125 241.789062 151.691406 C 251.992188 142.222656 258.285156 129.378906 258.285156 115.238281 C 258.285156 110.207031 257.488281 105.097656 255.917969 100.03125 C 262.484375 95.714844 266.503906 88.347656 266.503906 80.445312 C 266.503906 67.546875 256 57.039062 243.089844 57.039062 C 236.632812 57.039062 230.53125 59.679688 226.109375 64.332031 C 217.695312 59.832031 208.394531 57.457031 199.117188 57.457031 C 189.84375 57.457031 180.542969 59.832031 172.125 64.332031 C 167.714844 59.679688 161.613281 57.039062 155.152344 57.039062 C 142.238281 57.039062 131.742188 67.546875 131.742188 80.460938 C 131.742188 88.363281 135.761719 95.734375 142.328125 100.046875 C 140.75 105.105469 139.960938 110.21875 139.960938 115.257812 C 139.960938 130.964844 147.722656 145.074219 160 154.738281 C 154.710938 157.761719 149.769531 161.296875 145.304688 165.28125 C 131.101562 177.886719 107.460938 209.40625 99.152344 236.511719 C 98.734375 236.503906 98.328125 236.484375 97.902344 236.484375 C 75.5 236.484375 57.277344 254.707031 57.277344 277.109375 C 57.277344 299.511719 75.5 317.734375 97.875 317.734375 C 97.902344 317.734375 98.265625 317.742188 98.921875 317.742188 C 103.847656 317.742188 125.390625 317.433594 147.820312 312.472656 C 155.269531 321.695312 166.667969 327.613281 179.417969 327.613281 C 179.71875 327.613281 210.316406 327.445312 241.601562 315.519531 C 243.066406 315.023438 272.457031 304.667969 274.53125 276.710938 C 278.152344 278.855469 281.925781 279.9375 285.851562 279.9375 C 287.640625 279.9375 289.464844 279.714844 291.308594 279.261719 C 301.769531 276.730469 308.21875 270.820312 310.496094 261.703125 C 317.714844 232.792969 279.96875 181.003906 262.269531 165.261719 Z M 262.269531 165.261719 " fill-opacity="1" fill-rule="nonzero"/></g><path fill="#c16644" d="M 259.914062 167.914062 C 253.667969 162.367188 246.589844 157.777344 238.867188 154.253906 C 228.359375 162.757812 214.40625 167.949219 199.117188 167.949219 C 185.589844 167.949219 173.117188 163.871094 163.136719 157.042969 C 157.535156 160.109375 152.320312 163.757812 147.652344 167.914062 C 134.246094 179.828125 111.019531 210.785156 102.765625 236.796875 C 113.535156 238.160156 121.835938 243.882812 127.585938 249.523438 C 135.425781 245.953125 136.914062 232.578125 138.226562 220.707031 C 138.339844 219.636719 138.464844 218.574219 138.578125 217.527344 C 141.9375 188.570312 154.515625 177.914062 155.046875 177.480469 C 155.800781 176.859375 156.917969 176.964844 157.546875 177.71875 C 158.164062 178.472656 158.058594 179.585938 157.296875 180.214844 C 157.183594 180.3125 145.277344 190.535156 142.105469 217.9375 C 141.980469 218.972656 141.867188 220.035156 141.75 221.097656 C 140.378906 233.4375 138.84375 247.273438 130.148438 252.191406 C 131.5 253.707031 132.664062 255.160156 133.628906 256.453125 C 134.210938 257.242188 134.054688 258.347656 133.265625 258.933594 C 132.484375 259.515625 131.367188 259.359375 130.785156 258.570312 C 125.636719 251.640625 114.511719 240.027344 97.902344 240.027344 C 77.457031 240.027344 60.820312 256.664062 60.820312 277.117188 C 60.820312 297.5625 77.457031 314.199219 97.902344 314.199219 C 98.167969 314.207031 121.09375 314.535156 145.523438 309.34375 C 141.273438 302.933594 138.792969 295.242188 138.792969 286.988281 C 138.792969 264.585938 157.015625 246.351562 179.417969 246.351562 C 197.578125 246.351562 209.597656 258.871094 215.152344 266.328125 C 215.738281 267.117188 215.566406 268.226562 214.789062 268.808594 C 214 269.394531 212.894531 269.226562 212.308594 268.445312 C 207.152344 261.519531 196.027344 249.898438 179.417969 249.898438 C 158.972656 249.898438 142.335938 266.542969 142.335938 286.988281 C 142.335938 307.433594 158.972656 324.066406 179.417969 324.066406 C 179.710938 324.066406 209.703125 323.890625 240.371094 312.199219 C 240.398438 312.1875 240.433594 312.171875 240.460938 312.164062 C 240.761719 312.066406 270.550781 302.0625 271.082031 274.328125 C 267.496094 271.449219 264.066406 267.472656 260.816406 262.394531 C 252.527344 249.425781 247.167969 232.003906 244.289062 222.640625 C 235.933594 195.425781 225.570312 183.398438 225.464844 183.28125 C 224.816406 182.546875 224.894531 181.421875 225.621094 180.773438 C 226.359375 180.136719 227.472656 180.207031 228.121094 180.933594 C 228.5625 181.4375 239.070312 193.574219 247.671875 221.59375 C 250.507812 230.796875 255.769531 247.921875 263.800781 260.484375 C 271.820312 273.015625 280.792969 278.171875 290.476562 275.824219 C 299.679688 273.59375 305.101562 268.695312 307.058594 260.855469 C 313.410156 235.359375 279.675781 185.496094 259.914062 167.914062 Z M 94.386719 306.464844 C 80.148438 306.464844 68.5625 293.304688 68.5625 277.117188 C 68.5625 260.941406 80.148438 247.78125 94.386719 247.78125 C 108.628906 247.78125 120.214844 260.941406 120.214844 277.117188 C 120.214844 293.304688 108.628906 306.464844 94.386719 306.464844 Z M 175.898438 316.335938 C 161.664062 316.335938 150.078125 303.171875 150.078125 286.988281 C 150.078125 270.8125 161.664062 257.648438 175.898438 257.648438 C 190.144531 257.648438 201.730469 270.8125 201.730469 286.988281 C 201.730469 303.171875 190.144531 316.335938 175.898438 316.335938 Z M 145.3125 97.726562 C 146.046875 98.144531 146.382812 99.027344 146.117188 99.835938 C 144.375 104.964844 143.496094 110.15625 143.496094 115.25 C 143.496094 142.355469 168.449219 164.402344 199.117188 164.402344 C 229.785156 164.402344 254.738281 142.355469 254.738281 115.25 C 254.738281 110.15625 253.863281 104.964844 252.117188 99.835938 C 251.851562 99.027344 252.179688 98.144531 252.925781 97.726562 C 259.117188 94.191406 262.960938 87.574219 262.960938 80.460938 C 262.960938 69.503906 254.039062 60.582031 243.082031 60.582031 C 237.191406 60.582031 231.636719 63.179688 227.847656 67.707031 C 227.296875 68.359375 226.359375 68.53125 225.613281 68.105469 C 217.410156 63.460938 208.25 61 199.117188 61 C 189.984375 61 180.824219 63.460938 172.621094 68.105469 C 171.878906 68.53125 170.941406 68.359375 170.390625 67.707031 C 166.597656 63.179688 161.042969 60.582031 155.152344 60.582031 C 144.195312 60.582031 135.277344 69.503906 135.277344 80.460938 C 135.277344 87.574219 139.121094 94.191406 145.3125 97.726562 Z M 231.078125 69.414062 C 231.664062 68.636719 232.769531 68.46875 233.558594 69.042969 C 241.179688 74.667969 247.511719 82.011719 251.871094 90.285156 C 252.320312 91.152344 251.992188 92.226562 251.125 92.675781 C 250.859375 92.820312 250.578125 92.882812 250.300781 92.882812 C 249.664062 92.882812 249.054688 92.535156 248.734375 91.933594 C 244.625 84.128906 238.652344 77.203125 231.453125 71.894531 C 230.664062 71.320312 230.496094 70.203125 231.078125 69.414062 Z M 211.539062 99.160156 C 214.957031 99.160156 217.746094 101.945312 217.746094 105.371094 C 217.746094 108.800781 214.957031 111.582031 211.539062 111.582031 C 208.109375 111.582031 205.328125 108.800781 205.328125 105.371094 C 205.328125 101.945312 208.109375 99.160156 211.539062 99.160156 Z M 215.675781 132.550781 C 215.675781 143.78125 203.636719 152.921875 188.832031 152.921875 C 174.039062 152.921875 162 143.78125 162 132.550781 C 162 121.148438 173.96875 107.363281 188.832031 107.363281 C 203.707031 107.363281 215.675781 121.148438 215.675781 132.550781 Z M 174.421875 105.371094 C 174.421875 108.800781 171.628906 111.582031 168.210938 111.582031 C 164.78125 111.582031 162 108.800781 162 105.371094 C 162 101.945312 164.78125 99.160156 168.210938 99.160156 C 171.628906 99.160156 174.421875 101.945312 174.421875 105.371094 Z M 146.367188 90.285156 C 150.726562 82.011719 157.058594 74.667969 164.675781 69.042969 C 165.464844 68.46875 166.574219 68.636719 167.15625 69.414062 C 167.734375 70.203125 167.574219 71.320312 166.785156 71.894531 C 159.582031 77.203125 153.613281 84.128906 149.503906 91.933594 C 149.183594 92.535156 148.570312 92.882812 147.933594 92.882812 C 147.660156 92.882812 147.375 92.820312 147.109375 92.675781 C 146.242188 92.226562 145.914062 91.152344 146.367188 90.285156 Z M 146.367188 90.285156 " fill-opacity="1" fill-rule="nonzero"/><path fill="#ffffff" d="M 212.132812 132.550781 C 212.132812 141.175781 203.105469 148.300781 191.527344 149.265625 C 190.914062 149.230469 190.402344 148.964844 189.90625 148.414062 C 187.175781 145.394531 186.875 136.554688 187.027344 131.847656 C 191.90625 131.265625 195.679688 126.632812 195.679688 122.75 C 195.679688 118.527344 191.332031 115.097656 185.988281 115.097656 C 180.640625 115.097656 176.289062 118.527344 176.289062 122.75 C 176.289062 126.234375 179.335938 130.308594 183.492188 131.539062 C 183.351562 135.285156 183.351562 144.3125 186.195312 149.273438 C 174.589844 148.316406 165.542969 141.1875 165.542969 132.550781 C 165.542969 122.804688 176.289062 110.910156 188.832031 110.910156 C 201.386719 110.910156 212.132812 122.804688 212.132812 132.550781 Z M 212.132812 132.550781 " fill-opacity="1" fill-rule="nonzero"/><path fill="#9d4c2d" d="M 116.671875 277.117188 C 116.671875 291.34375 106.679688 302.921875 94.386719 302.921875 C 82.097656 302.921875 72.105469 291.34375 72.105469 277.117188 C 72.105469 262.890625 82.097656 251.324219 94.386719 251.324219 C 106.679688 251.324219 116.671875 262.890625 116.671875 277.117188 Z M 175.898438 261.191406 C 163.613281 261.191406 153.621094 272.761719 153.621094 286.988281 C 153.621094 301.214844 163.613281 312.792969 175.898438 312.792969 C 188.195312 312.792969 198.1875 301.214844 198.1875 286.988281 C 198.1875 272.761719 188.195312 261.191406 175.898438 261.191406 Z M 175.898438 261.191406 " fill-opacity="1" fill-rule="nonzero"/><g clip-path="url(#b6f1d827ee)"><path fill="#000000" d="M 262.269531 165.261719 C 256.148438 159.824219 249.265625 155.28125 241.789062 151.691406 C 251.992188 142.222656 258.285156 129.378906 258.285156 115.238281 C 258.285156 110.207031 257.488281 105.097656 255.917969 100.03125 C 262.484375 95.714844 266.503906 88.347656 266.503906 80.445312 C 266.503906 67.546875 256 57.039062 243.089844 57.039062 C 236.632812 57.039062 230.53125 59.679688 226.109375 64.332031 C 217.695312 59.832031 208.394531 57.457031 199.117188 57.457031 C 189.84375 57.457031 180.542969 59.832031 172.125 64.332031 C 167.714844 59.679688 161.613281 57.039062 155.152344 57.039062 C 142.238281 57.039062 131.742188 67.546875 131.742188 80.460938 C 131.742188 88.363281 135.761719 95.734375 142.328125 100.046875 C 140.75 105.105469 139.960938 110.21875 139.960938 115.257812 C 139.960938 130.964844 147.722656 145.074219 160 154.738281 C 154.710938 157.761719 149.769531 161.296875 145.304688 165.28125 C 131.101562 177.886719 107.460938 209.40625 99.152344 236.511719 C 98.734375 236.503906 98.328125 236.484375 97.902344 236.484375 C 75.5 236.484375 57.277344 254.707031 57.277344 277.109375 C 57.277344 299.511719 75.5 317.734375 97.875 317.734375 C 97.902344 317.734375 98.265625 317.742188 98.921875 317.742188 C 103.847656 317.742188 125.390625 317.433594 147.820312 312.472656 C 155.269531 321.695312 166.667969 327.613281 179.417969 327.613281 C 179.71875 327.613281 210.316406 327.445312 241.601562 315.519531 C 243.066406 315.023438 272.457031 304.667969 274.53125 276.710938 C 278.152344 278.855469 281.925781 279.9375 285.851562 279.9375 C 287.640625 279.9375 289.464844 279.714844 291.308594 279.261719 C 301.769531 276.730469 308.21875 270.820312 310.496094 261.703125 C 317.714844 232.792969 279.96875 181.003906 262.269531 165.261719 Z M 143.496094 115.25 C 143.496094 110.15625 144.382812 104.964844 146.117188 99.835938 C 146.394531 99.027344 146.054688 98.152344 145.320312 97.726562 C 139.128906 94.191406 135.285156 87.574219 135.285156 80.460938 C 135.285156 69.496094 144.195312 60.582031 155.152344 60.582031 C 161.042969 60.582031 166.597656 63.179688 170.390625 67.707031 C 170.941406 68.359375 171.878906 68.53125 172.621094 68.113281 C 180.824219 63.460938 189.992188 61.007812 199.117188 61.007812 C 208.25 61.007812 217.410156 63.460938 225.613281 68.113281 C 226.359375 68.539062 227.296875 68.359375 227.847656 67.707031 C 231.644531 63.179688 237.199219 60.582031 243.089844 60.582031 C 254.050781 60.582031 262.96875 69.496094 262.96875 80.460938 C 262.96875 87.574219 259.125 94.191406 252.933594 97.726562 C 252.199219 98.144531 251.859375 99.027344 252.136719 99.835938 C 253.871094 104.972656 254.757812 110.15625 254.757812 115.25 C 254.757812 142.355469 229.804688 164.402344 199.136719 164.402344 C 168.449219 164.402344 143.496094 142.355469 143.496094 115.25 Z M 307.058594 260.847656 C 305.101562 268.683594 299.679688 273.585938 290.476562 275.816406 C 280.792969 278.164062 271.820312 273.007812 263.8125 260.484375 C 255.777344 247.921875 250.515625 230.796875 247.679688 221.59375 C 239.078125 193.566406 228.574219 181.4375 228.128906 180.933594 C 227.484375 180.199219 226.367188 180.128906 225.632812 180.773438 C 224.894531 181.421875 224.824219 182.539062 225.472656 183.273438 C 225.578125 183.386719 235.941406 195.425781 244.296875 222.628906 C 247.175781 231.992188 252.535156 249.417969 260.824219 262.386719 C 264.078125 267.464844 267.503906 271.449219 271.09375 274.328125 C 270.5625 302.0625 240.769531 312.066406 240.46875 312.164062 C 240.441406 312.171875 240.40625 312.179688 240.378906 312.1875 C 209.703125 323.882812 179.71875 324.058594 179.417969 324.058594 C 158.972656 324.058594 142.335938 307.421875 142.335938 286.976562 C 142.335938 266.523438 158.972656 249.886719 179.417969 249.886719 C 196.027344 249.886719 207.152344 261.511719 212.308594 268.429688 C 212.894531 269.21875 214 269.375 214.789062 268.792969 C 215.578125 268.207031 215.738281 267.101562 215.152344 266.3125 C 209.605469 258.851562 197.578125 246.34375 179.417969 246.34375 C 157.015625 246.34375 138.792969 264.574219 138.792969 286.976562 C 138.792969 295.234375 141.273438 302.921875 145.523438 309.335938 C 121.09375 314.527344 98.167969 314.191406 97.902344 314.191406 C 77.457031 314.199219 60.820312 297.5625 60.820312 277.109375 C 60.820312 256.664062 77.457031 240.027344 97.902344 240.027344 C 114.511719 240.027344 125.636719 251.640625 130.785156 258.570312 C 131.367188 259.359375 132.476562 259.515625 133.265625 258.933594 C 134.054688 258.347656 134.210938 257.242188 133.628906 256.453125 C 132.664062 255.160156 131.492188 253.707031 130.136719 252.191406 C 138.835938 247.273438 140.378906 233.429688 141.742188 221.097656 C 141.855469 220.035156 141.980469 218.972656 142.097656 217.925781 C 145.269531 190.535156 157.171875 180.304688 157.289062 180.207031 C 158.042969 179.585938 158.15625 178.472656 157.527344 177.71875 C 156.90625 176.964844 155.792969 176.851562 155.039062 177.480469 C 154.507812 177.921875 141.929688 188.570312 138.570312 217.527344 C 138.445312 218.574219 138.332031 219.636719 138.214844 220.707031 C 136.90625 232.570312 135.417969 245.953125 127.578125 249.515625 C 121.828125 243.882812 113.527344 238.152344 102.757812 236.785156 C 111.003906 210.785156 134.238281 179.828125 147.640625 167.914062 C 152.320312 163.75 157.527344 160.097656 163.125 157.035156 C 173.101562 163.863281 185.582031 167.9375 199.109375 167.9375 C 214.398438 167.9375 228.351562 162.746094 238.855469 154.242188 C 246.582031 157.769531 253.660156 162.359375 259.90625 167.914062 C 279.675781 185.488281 313.417969 235.359375 307.058594 260.847656 Z M 231.460938 71.894531 C 238.652344 77.203125 244.632812 84.128906 248.734375 91.933594 C 249.054688 92.535156 249.664062 92.882812 250.300781 92.882812 C 250.578125 92.882812 250.859375 92.820312 251.125 92.675781 C 251.992188 92.226562 252.320312 91.152344 251.871094 90.285156 C 247.511719 82.011719 241.1875 74.660156 233.558594 69.042969 C 232.769531 68.457031 231.664062 68.628906 231.078125 69.414062 C 230.503906 70.203125 230.671875 71.3125 231.460938 71.894531 Z M 167.15625 69.414062 C 166.582031 68.628906 165.464844 68.457031 164.675781 69.042969 C 157.050781 74.660156 150.714844 82.011719 146.367188 90.285156 C 145.914062 91.152344 146.242188 92.226562 147.109375 92.675781 C 147.375 92.820312 147.660156 92.882812 147.933594 92.882812 C 148.570312 92.882812 149.183594 92.535156 149.503906 91.933594 C 153.613281 84.128906 159.582031 77.203125 166.777344 71.894531 C 167.574219 71.3125 167.742188 70.203125 167.15625 69.414062 Z M 215.683594 132.550781 C 215.683594 121.140625 203.707031 107.363281 188.84375 107.363281 C 173.976562 107.363281 162 121.140625 162 132.550781 C 162 143.78125 174.039062 152.921875 188.84375 152.921875 C 203.644531 152.921875 215.683594 143.78125 215.683594 132.550781 Z M 191.527344 149.265625 C 190.914062 149.230469 190.402344 148.964844 189.914062 148.414062 C 187.1875 145.394531 186.882812 136.554688 187.035156 131.847656 C 191.917969 131.257812 195.691406 126.625 195.691406 122.742188 C 195.691406 118.527344 191.339844 115.089844 186 115.089844 C 180.65625 115.089844 176.308594 118.519531 176.308594 122.742188 C 176.308594 126.222656 179.355469 130.308594 183.5 131.53125 C 183.359375 135.277344 183.359375 144.304688 186.210938 149.257812 C 174.605469 148.308594 165.554688 141.167969 165.554688 132.539062 C 165.554688 122.796875 176.308594 110.898438 188.851562 110.898438 C 201.394531 110.898438 212.148438 122.796875 212.148438 132.539062 C 212.140625 141.167969 203.113281 148.300781 191.527344 149.265625 Z M 211.539062 111.582031 C 214.964844 111.582031 217.746094 108.792969 217.746094 105.371094 C 217.746094 101.945312 214.957031 99.160156 211.539062 99.160156 C 208.117188 99.160156 205.328125 101.953125 205.328125 105.371094 C 205.328125 108.792969 208.117188 111.582031 211.539062 111.582031 Z M 162 105.371094 C 162 108.800781 164.792969 111.582031 168.210938 111.582031 C 171.640625 111.582031 174.421875 108.792969 174.421875 105.371094 C 174.421875 101.945312 171.628906 99.160156 168.210938 99.160156 C 164.792969 99.160156 162 101.945312 162 105.371094 Z M 94.394531 247.78125 C 80.148438 247.78125 68.5625 260.941406 68.5625 277.117188 C 68.5625 293.292969 80.148438 306.457031 94.394531 306.457031 C 108.636719 306.457031 120.226562 293.292969 120.226562 277.117188 C 120.226562 260.941406 108.636719 247.78125 94.394531 247.78125 Z M 94.394531 302.921875 C 82.105469 302.921875 72.105469 291.34375 72.105469 277.128906 C 72.105469 262.902344 82.105469 251.332031 94.394531 251.332031 C 106.679688 251.332031 116.683594 262.910156 116.683594 277.128906 C 116.683594 291.34375 106.679688 302.921875 94.394531 302.921875 Z M 175.910156 257.648438 C 161.664062 257.648438 150.078125 270.8125 150.078125 286.988281 C 150.078125 303.171875 161.664062 316.324219 175.910156 316.324219 C 190.152344 316.324219 201.742188 303.164062 201.742188 286.988281 C 201.742188 270.8125 190.152344 257.648438 175.910156 257.648438 Z M 175.910156 312.792969 C 163.621094 312.792969 153.621094 301.214844 153.621094 286.996094 C 153.621094 272.769531 163.621094 261.199219 175.910156 261.199219 C 188.195312 261.199219 198.195312 272.777344 198.195312 286.996094 C 198.195312 301.214844 188.195312 312.792969 175.910156 312.792969 Z M 175.910156 312.792969 " fill-opacity="1" fill-rule="nonzero"/></g></svg>