<?xml version="1.0" encoding="utf-8"?>
<!-- Generator: Adobe Illustrator 29.7.1, SVG Export Plug-In . SVG Version: 9.03 Build 0)  -->
<svg version="1.0" id="Layer_1" xmlns="http://www.w3.org/2000/svg" xmlns:xlink="http://www.w3.org/1999/xlink" x="0px" y="0px"
	 viewBox="0 0 272 398" style="enable-background:new 0 0 272 398;" xml:space="preserve">
<style type="text/css">
	.st0{filter:url(#Adobe_OpacityMaskFilter);}
	.st1{fill-opacity:0.1;}
	.st2{mask:url(#_x39_9ae6919e1_00000067236544041562263020000016040736096396023997_);}
	.st3{clip-path:url(#SVGID_00000094588112191527022840000014718567359419086505_);}
	.st4{clip-path:url(#SVGID_00000093881389181974433950000012188615807491593138_);}
	.st5{clip-path:url(#SVGID_00000058572415297233576710000001987401595934829962_);}
	.st6{clip-path:url(#SVGID_00000131333778950776100060000000078532439791354790_);}
	.st7{clip-path:url(#SVGID_00000153703964916694685430000012827546646455758511_);}
	.st8{clip-path:url(#SVGID_00000107574929690050966630000013122860025442962563_);}
	.st9{clip-path:url(#SVGID_00000123401136454171359730000004242054918545107090_);}
	.st10{clip-path:url(#SVGID_00000115509854778979016540000011563980775592960408_);}
	.st11{clip-path:url(#SVGID_00000109714214892773888810000017427360541111102641_);}
	.st12{clip-path:url(#SVGID_00000127018525780772922980000008026078422782470844_);}
	.st13{clip-path:url(#SVGID_00000149369919868816398810000000086218595549492409_);}
	.st14{fill:#FFC035;}
	.st15{clip-path:url(#SVGID_00000010312323083037836760000013887036009582762387_);}
	.st16{fill:#FFAD38;}
	.st17{clip-path:url(#SVGID_00000066474187965234986690000012104193851099552702_);}
	.st18{fill:#C16644;}
	.st19{fill:#FFFFFF;}
	.st20{fill:#9D4C2D;}
	.st21{clip-path:url(#SVGID_00000091716639016142166050000000647983326955723398_);}
	.st22{clip-path:url(#SVGID_00000088838529867976774490000011437941541506533519_);}
	.st23{clip-path:url(#SVGID_00000090994223284097480380000005009225741843639686_);}
</style>
<defs>
	<filter id="Adobe_OpacityMaskFilter" filterUnits="userSpaceOnUse" x="36.67" y="254" width="198.67" height="36">
		<feColorMatrix  type="matrix" values="1 0 0 0 0  0 1 0 0 0  0 0 1 0 0  0 0 0 1 0"/>
	</filter>
</defs>
<mask maskUnits="userSpaceOnUse" x="36.67" y="254" width="198.67" height="36" id="_x39_9ae6919e1_00000067236544041562263020000016040736096396023997_">
	<g class="st0">
		<rect x="-164" y="-100" class="st1" width="600" height="600"/>
	</g>
</mask>
<g class="st2">
	<g transform="matrix(1, 0, 0, 1, 113, 228)">
		<g>
			<defs>
				<rect id="SVGID_1_" x="-76.33" y="26" width="198.67" height="36"/>
			</defs>
			<clipPath id="SVGID_00000145739228175396371860000009360430998431806136_">
				<use xlink:href="#SVGID_1_"  style="overflow:visible;"/>
			</clipPath>
			<g style="clip-path:url(#SVGID_00000145739228175396371860000009360430998431806136_);">
				<g>
					<defs>
						<rect id="SVGID_00000039106540256254931950000013826081682673019791_" x="-75.72" y="26.82" width="197.49" height="34.07"/>
					</defs>
					<clipPath id="SVGID_00000078758851991077313070000001504627957890220440_">
						<use xlink:href="#SVGID_00000039106540256254931950000013826081682673019791_"  style="overflow:visible;"/>
					</clipPath>
					<g style="clip-path:url(#SVGID_00000078758851991077313070000001504627957890220440_);">
						<g>
							<defs>
								<path id="SVGID_00000023269376168884411190000009287091256179092874_" d="M23,26.82c-54.52,0-98.72,7.63-98.72,17.04
									c0,9.41,44.2,17.03,98.72,17.03s98.72-7.62,98.72-17.03C121.72,34.45,77.52,26.82,23,26.82z"/>
							</defs>
							<clipPath id="SVGID_00000039815197599593197000000002179086559729546921_">
								<use xlink:href="#SVGID_00000023269376168884411190000009287091256179092874_"  style="overflow:visible;"/>
							</clipPath>
							<g style="clip-path:url(#SVGID_00000039815197599593197000000002179086559729546921_);">
								<g>
									<g>
										<defs>
											<rect id="SVGID_00000164475825818593966450000001913207834321291660_" x="-76.33" y="26" width="198.67" height="36"/>
										</defs>
										<clipPath id="SVGID_00000061452842748798816210000008336264329984543366_">
											<use xlink:href="#SVGID_00000164475825818593966450000001913207834321291660_"  style="overflow:visible;"/>
										</clipPath>
										<g style="clip-path:url(#SVGID_00000061452842748798816210000008336264329984543366_);">
											<g>
												<defs>
													
														<rect id="SVGID_00000020367420890278156560000017949699337808066694_" x="-75.72" y="26.82" width="197.49" height="34.07"/>
												</defs>
												<clipPath id="SVGID_00000032624298077542544540000018016137869257806476_">
													<use xlink:href="#SVGID_00000020367420890278156560000017949699337808066694_"  style="overflow:visible;"/>
												</clipPath>
												<g style="clip-path:url(#SVGID_00000032624298077542544540000018016137869257806476_);">
													<g>
														<defs>
															<path id="SVGID_00000155129691263230274390000012126703453877225907_" d="M23,26.82c-54.52,0-98.72,7.63-98.72,17.04
																c0,9.41,44.2,17.03,98.72,17.03s98.72-7.62,98.72-17.03C121.72,34.45,77.52,26.82,23,26.82z"/>
														</defs>
														<clipPath id="SVGID_00000002342172861271286910000012185296515840601278_">
															<use xlink:href="#SVGID_00000155129691263230274390000012126703453877225907_"  style="overflow:visible;"/>
														</clipPath>
														<g style="clip-path:url(#SVGID_00000002342172861271286910000012185296515840601278_);">
															<path d="M-75.72,26.82h197.49v34.07H-75.72V26.82z"/>
														</g>
													</g>
												</g>
											</g>
										</g>
									</g>
								</g>
							</g>
						</g>
					</g>
				</g>
			</g>
		</g>
	</g>
</g>
<g>
	<defs>
		<rect id="SVGID_00000041273116221433344360000003769710843774442426_" x="6.17" y="5.2" width="259.66" height="259.66"/>
	</defs>
	<clipPath id="SVGID_00000085211296322297753530000017104293939090205864_">
		<use xlink:href="#SVGID_00000041273116221433344360000003769710843774442426_"  style="overflow:visible;"/>
	</clipPath>
	<g style="clip-path:url(#SVGID_00000085211296322297753530000017104293939090205864_);">
		<g>
			<defs>
				<circle id="SVGID_00000108987418346166594290000009788662455116757179_" cx="136" cy="135.03" r="129.83"/>
			</defs>
			<clipPath id="SVGID_00000102536917246940288450000012886402387720774075_">
				<use xlink:href="#SVGID_00000108987418346166594290000009788662455116757179_"  style="overflow:visible;"/>
			</clipPath>
			<g style="clip-path:url(#SVGID_00000102536917246940288450000012886402387720774075_);">
				<g transform="matrix(1, 0, 0, 1, 90, 41)">
					<g>
						<defs>
							<rect id="SVGID_00000073702293464081256430000014258998447428459921_" x="-84" y="-36.33" width="260" height="261.33"/>
						</defs>
						<clipPath id="SVGID_00000060729000794676725610000002285070856279618187_">
							<use xlink:href="#SVGID_00000073702293464081256430000014258998447428459921_"  style="overflow:visible;"/>
						</clipPath>
						<g style="clip-path:url(#SVGID_00000060729000794676725610000002285070856279618187_);">
							<g>
								<defs>
									
										<rect id="SVGID_00000069394334438812118930000018140324293586966695_" x="-83.83" y="-35.8" width="259.66" height="259.66"/>
								</defs>
								<clipPath id="SVGID_00000003088842267928158810000009619733979872345741_">
									<use xlink:href="#SVGID_00000069394334438812118930000018140324293586966695_"  style="overflow:visible;"/>
								</clipPath>
								<g style="clip-path:url(#SVGID_00000003088842267928158810000009619733979872345741_);">
									<g>
										<defs>
											<circle id="SVGID_00000088828121050146590810000014075925158768037283_" cx="46" cy="94.03" r="129.83"/>
										</defs>
										<clipPath id="SVGID_00000137099378727392011480000003737813698597276298_">
											<use xlink:href="#SVGID_00000088828121050146590810000014075925158768037283_"  style="overflow:visible;"/>
										</clipPath>
										<g style="clip-path:url(#SVGID_00000137099378727392011480000003737813698597276298_);">
											<path class="st14" d="M-83.83-35.8h259.66v259.66H-83.83V-35.8z"/>
										</g>
									</g>
								</g>
							</g>
						</g>
					</g>
				</g>
			</g>
		</g>
	</g>
</g>
<g>
	<defs>
		<rect id="SVGID_00000000917029958334115540000008762320201498468762_" x="12.91" y="61.43" width="246" height="197.91"/>
	</defs>
	<clipPath id="SVGID_00000167354144978215784800000004621863564268992185_">
		<use xlink:href="#SVGID_00000000917029958334115540000008762320201498468762_"  style="overflow:visible;"/>
	</clipPath>
	<g style="clip-path:url(#SVGID_00000167354144978215784800000004621863564268992185_);">
		<path class="st16" d="M134.81,128.44c-44.07,0-81.84-26.84-97.91-65.07c-15.02,20.4-23.99,45.5-23.99,72.77
			c0,67.97,55.11,123.05,123.1,123.05c67.98,0,123.09-55.08,123.09-123.05c0-28.22-9.6-54.14-25.58-74.9
			C217.96,100.57,179.68,128.44,134.81,128.44z"/>
	</g>
</g>
<g>
	<defs>
		<rect id="SVGID_00000023985770680450876470000007011461345820937108_" x="4.26" y="14.94" width="257.74" height="274"/>
	</defs>
	<clipPath id="SVGID_00000009583237511599506270000014977543866668269707_">
		<use xlink:href="#SVGID_00000023985770680450876470000007011461345820937108_"  style="overflow:visible;"/>
	</clipPath>
	<g style="clip-path:url(#SVGID_00000009583237511599506270000014977543866668269707_);">
		<path d="M211.65,124.55c-6.19-5.51-13.16-10.1-20.72-13.73c10.32-9.58,16.69-22.57,16.69-36.88c0-5.09-0.81-10.27-2.4-15.39
			c6.64-4.36,10.71-11.82,10.71-19.81c0-13.05-10.63-23.68-23.69-23.68c-6.54,0-12.71,2.67-17.18,7.38
			c-8.52-4.55-17.92-6.96-27.31-6.96c-9.38,0-18.79,2.41-27.31,6.96c-4.46-4.71-10.64-7.38-17.17-7.38
			c-13.07,0-23.69,10.62-23.69,23.69c0,7.99,4.07,15.45,10.71,19.82c-1.6,5.11-2.4,10.29-2.4,15.39c0,15.89,7.85,30.17,20.27,39.94
			c-5.35,3.06-10.35,6.64-14.86,10.67c-14.37,12.76-38.29,44.64-46.69,72.06c-0.42-0.01-0.83-0.03-1.27-0.03
			c-22.66,0-41.1,18.44-41.1,41.1c0,22.67,18.44,41.1,41.07,41.1c0.03,0,0.4,0.01,1.06,0.01c4.98,0,26.78-0.31,49.47-5.33
			c7.54,9.33,19.07,15.32,31.97,15.32c0.31,0,31.26-0.17,62.92-12.23c1.48-0.5,31.21-10.98,33.31-39.26
			c3.66,2.17,7.48,3.26,11.45,3.26c1.81,0,3.66-0.22,5.52-0.68c10.58-2.56,17.1-8.54,19.41-17.76
			C267.74,192.87,229.55,140.47,211.65,124.55z"/>
	</g>
</g>
<path class="st18" d="M209.26,127.23c-6.32-5.61-13.48-10.25-21.29-13.82c-10.63,8.6-24.74,13.85-40.21,13.85
	c-13.68,0-26.3-4.12-36.4-11.03c-5.67,3.1-10.94,6.79-15.67,10.99c-13.56,12.05-37.06,43.38-45.41,69.69
	c10.9,1.38,19.3,7.17,25.11,12.88c7.93-3.61,9.44-17.15,10.77-29.16c0.11-1.08,0.24-2.16,0.36-3.21
	c3.4-29.3,16.12-40.08,16.66-40.52c0.76-0.62,1.89-0.52,2.53,0.24c0.62,0.76,0.52,1.89-0.25,2.53c-0.12,0.1-12.16,10.44-15.37,38.16
	c-0.12,1.05-0.24,2.12-0.36,3.2c-1.39,12.48-2.94,26.48-11.74,31.46c1.37,1.53,2.54,3,3.52,4.31c0.59,0.8,0.43,1.92-0.37,2.51
	c-0.79,0.59-1.92,0.43-2.51-0.36c-5.21-7.01-16.46-18.76-33.27-18.76c-20.68,0-37.52,16.83-37.52,37.53
	c0,20.68,16.83,37.52,37.52,37.52c0.27,0.01,23.46,0.34,48.18-4.91c-4.3-6.49-6.81-14.27-6.81-22.62c0-22.67,18.44-41.11,41.1-41.11
	c18.38,0,30.54,12.66,36.16,20.21c0.59,0.8,0.42,1.92-0.37,2.51c-0.8,0.59-1.92,0.42-2.51-0.37c-5.21-7.01-16.47-18.77-33.28-18.77
	c-20.68,0-37.52,16.84-37.52,37.53c0,20.68,16.83,37.52,37.52,37.52c0.3,0,30.64-0.18,61.67-12.01c0.03-0.01,0.07-0.03,0.09-0.04
	c0.3-0.1,30.44-10.21,30.98-38.28c-3.63-2.91-7.1-6.94-10.39-12.07c-8.39-13.12-13.81-30.75-16.72-40.22
	c-8.45-27.53-18.94-39.7-19.04-39.82c-0.66-0.74-0.58-1.88,0.16-2.53c0.74-0.65,1.87-0.58,2.53,0.16
	c0.45,0.52,11.08,12.79,19.78,41.14c2.87,9.31,8.19,26.64,16.32,39.34c8.11,12.68,17.19,17.9,26.98,15.52
	c9.31-2.26,14.8-7.21,16.78-15.15C263.39,195.47,229.26,145.02,209.26,127.23z M41.8,267.41c-14.4,0-26.12-13.32-26.12-29.69
	c0-16.36,11.72-29.68,26.12-29.68c14.41,0,26.14,13.32,26.14,29.68C67.93,254.09,56.21,267.41,41.8,267.41z M124.27,277.39
	c-14.4,0-26.12-13.32-26.12-29.69c0-16.36,11.72-29.68,26.12-29.68c14.41,0,26.14,13.32,26.14,29.68
	C150.4,264.07,138.68,277.39,124.27,277.39z M93.32,56.22c0.74,0.42,1.08,1.32,0.81,2.13c-1.77,5.19-2.65,10.44-2.65,15.59
	c0,27.43,25.24,49.73,56.27,49.73s56.27-22.31,56.27-49.73c0-5.15-0.89-10.4-2.65-15.59c-0.27-0.81,0.06-1.71,0.82-2.13
	c6.27-3.58,10.15-10.27,10.15-17.47c0-11.08-9.02-20.11-20.11-20.11c-5.96,0-11.58,2.62-15.42,7.2c-0.55,0.67-1.51,0.83-2.26,0.41
	c-8.3-4.7-17.57-7.19-26.81-7.19c-9.24,0-18.51,2.49-26.81,7.19c-0.75,0.43-1.7,0.26-2.26-0.41c-3.84-4.58-9.45-7.2-15.42-7.2
	c-11.08,0-20.11,9.03-20.11,20.11C83.17,45.95,87.06,52.65,93.32,56.22z M180.09,27.58c0.59-0.79,1.71-0.96,2.51-0.38
	c7.71,5.69,14.11,13.12,18.53,21.49c0.46,0.88,0.12,1.96-0.76,2.42c-0.27,0.15-0.55,0.21-0.83,0.21c-0.64,0-1.26-0.35-1.58-0.96
	c-4.16-7.89-10.2-14.9-17.48-20.27C179.67,29.51,179.5,28.38,180.09,27.58z M160.32,57.68c3.46,0,6.28,2.81,6.28,6.28
	s-2.82,6.28-6.28,6.28c-3.47,0-6.29-2.81-6.29-6.28S156.85,57.68,160.32,57.68z M164.51,91.45c0,11.36-12.18,20.61-27.16,20.61
	c-14.96,0-27.15-9.25-27.15-20.61c0-11.54,12.11-25.48,27.15-25.48C152.4,65.97,164.51,79.92,164.51,91.45z M122.77,63.96
	c0,3.47-2.82,6.28-6.28,6.28c-3.47,0-6.29-2.81-6.29-6.28s2.82-6.28,6.29-6.28C119.95,57.68,122.77,60.49,122.77,63.96z
	 M94.39,48.69c4.41-8.37,10.82-15.8,18.53-21.49c0.8-0.58,1.92-0.41,2.51,0.38c0.58,0.8,0.42,1.93-0.38,2.51
	c-7.29,5.37-13.33,12.38-17.49,20.27c-0.32,0.61-0.94,0.96-1.58,0.96c-0.28,0-0.57-0.06-0.83-0.21
	C94.26,50.66,93.93,49.57,94.39,48.69z"/>
<path class="st19" d="M160.92,91.45c0,8.73-9.14,15.93-20.85,16.91c-0.61-0.04-1.14-0.31-1.64-0.86c-2.76-3.06-3.07-12-2.92-16.76
	c4.94-0.59,8.76-5.28,8.76-9.2c0-4.28-4.4-7.74-9.8-7.74c-5.41,0-9.81,3.47-9.81,7.74c0,3.52,3.08,7.65,7.29,8.89
	c-0.15,3.79-0.15,12.92,2.73,17.94c-11.74-0.97-20.89-8.18-20.89-16.92c0-9.86,10.87-21.9,23.56-21.9
	C150.05,69.56,160.92,81.59,160.92,91.45z"/>
<path class="st20" d="M64.34,237.71c0,14.39-10.11,26.1-22.55,26.1c-12.43,0-22.54-11.71-22.54-26.1s10.11-26.1,22.54-26.1
	C54.23,211.61,64.34,223.32,64.34,237.71z M124.27,221.6c-12.43,0-22.54,11.7-22.54,26.1c0,14.39,10.11,26.1,22.54,26.1
	c12.44,0,22.55-11.71,22.55-26.1C146.81,233.3,136.7,221.6,124.27,221.6z"/>
<g>
	<defs>
		<rect id="SVGID_00000163058893340609952130000005421466584735591848_" x="4.26" y="14.94" width="257.74" height="274"/>
	</defs>
	<clipPath id="SVGID_00000173152907542857061810000009687066037740914366_">
		<use xlink:href="#SVGID_00000163058893340609952130000005421466584735591848_"  style="overflow:visible;"/>
	</clipPath>
	<g style="clip-path:url(#SVGID_00000173152907542857061810000009687066037740914366_);">
		<path d="M211.65,124.55c-6.19-5.51-13.16-10.1-20.72-13.73c10.32-9.58,16.69-22.57,16.69-36.88c0-5.09-0.81-10.27-2.4-15.39
			c6.64-4.36,10.71-11.82,10.71-19.81c0-13.05-10.63-23.68-23.69-23.68c-6.54,0-12.71,2.67-17.18,7.38
			c-8.52-4.55-17.92-6.96-27.31-6.96c-9.38,0-18.79,2.41-27.31,6.96c-4.46-4.71-10.64-7.38-17.17-7.38
			c-13.07,0-23.69,10.62-23.69,23.69c0,7.99,4.07,15.45,10.71,19.82c-1.6,5.11-2.4,10.29-2.4,15.39c0,15.89,7.85,30.17,20.27,39.94
			c-5.35,3.06-10.35,6.64-14.86,10.67c-14.37,12.76-38.29,44.64-46.69,72.06c-0.42-0.01-0.83-0.03-1.27-0.03
			c-22.66,0-41.1,18.44-41.1,41.1c0,22.67,18.44,41.1,41.07,41.1c0.03,0,0.4,0.01,1.06,0.01c4.98,0,26.78-0.31,49.47-5.33
			c7.54,9.33,19.07,15.32,31.97,15.32c0.31,0,31.26-0.17,62.92-12.23c1.48-0.5,31.21-10.98,33.31-39.26
			c3.66,2.17,7.48,3.26,11.45,3.26c1.81,0,3.66-0.22,5.52-0.68c10.58-2.56,17.1-8.54,19.41-17.76
			C267.74,192.87,229.55,140.47,211.65,124.55z M91.48,73.95c0-5.15,0.9-10.4,2.65-15.59c0.28-0.81-0.06-1.7-0.81-2.13
			c-6.27-3.58-10.15-10.27-10.15-17.47c0-11.09,9.02-20.11,20.1-20.11c5.96,0,11.58,2.62,15.42,7.2c0.56,0.67,1.51,0.83,2.26,0.41
			c8.3-4.7,17.58-7.19,26.81-7.19c9.24,0,18.51,2.48,26.81,7.19c0.75,0.43,1.7,0.26,2.26-0.41c3.85-4.58,9.46-7.2,15.43-7.2
			c11.08,0,20.11,9.02,20.11,20.11c0,7.2-3.89,13.89-10.16,17.47c-0.74,0.42-1.08,1.32-0.8,2.13c1.76,5.2,2.65,10.44,2.65,15.59
			c0,27.43-25.24,49.73-56.27,49.73C116.73,123.68,91.48,101.38,91.48,73.95z M256.96,221.25c-1.98,7.93-7.46,12.89-16.78,15.15
			c-9.8,2.38-18.88-2.84-26.97-15.51c-8.13-12.71-13.45-30.04-16.32-39.34c-8.7-28.36-19.33-40.62-19.78-41.14
			c-0.65-0.74-1.78-0.81-2.53-0.16c-0.74,0.65-0.81,1.78-0.16,2.53c0.11,0.11,10.59,12.3,19.05,39.82
			c2.91,9.47,8.33,27.1,16.72,40.22c3.29,5.14,6.76,9.17,10.39,12.08c-0.54,28.06-30.68,38.18-30.98,38.28
			c-0.03,0.01-0.06,0.02-0.09,0.03c-31.04,11.83-61.37,12.01-61.68,12.01c-20.68,0-37.52-16.83-37.52-37.52
			c0-20.69,16.83-37.52,37.52-37.52c16.81,0,28.06,11.76,33.28,18.76c0.59,0.8,1.71,0.96,2.51,0.37c0.8-0.59,0.96-1.71,0.37-2.51
			c-5.61-7.55-17.78-20.2-36.16-20.2c-22.66,0-41.1,18.44-41.1,41.11c0,8.35,2.51,16.13,6.81,22.62
			c-24.72,5.26-47.91,4.91-48.18,4.91C24.67,275.23,7.84,258.4,7.84,237.7c0-20.68,16.83-37.52,37.52-37.52
			c16.81,0,28.06,11.75,33.27,18.76c0.59,0.8,1.71,0.96,2.51,0.36c0.8-0.59,0.96-1.71,0.37-2.51c-0.98-1.31-2.16-2.78-3.53-4.31
			c8.8-4.97,10.36-18.98,11.74-31.46c0.11-1.07,0.24-2.15,0.36-3.21c3.21-27.71,15.26-38.06,15.37-38.16
			c0.76-0.62,0.88-1.76,0.24-2.52c-0.62-0.76-1.76-0.88-2.52-0.24c-0.54,0.45-13.27,11.22-16.66,40.52
			c-0.12,1.06-0.24,2.13-0.36,3.21c-1.32,12.01-2.83,25.55-10.76,29.15c-5.82-5.7-14.21-11.49-25.11-12.88
			c8.34-26.31,31.85-57.63,45.41-69.68c4.73-4.21,10-7.91,15.67-11.01c10.09,6.91,22.72,11.03,36.4,11.03
			c15.47,0,29.58-5.25,40.21-13.85c7.82,3.57,14.98,8.21,21.3,13.83C229.26,145.01,263.4,195.47,256.96,221.25z M180.47,30.09
			c7.28,5.37,13.33,12.38,17.48,20.27c0.32,0.61,0.94,0.96,1.58,0.96c0.28,0,0.57-0.06,0.83-0.21c0.88-0.46,1.21-1.54,0.76-2.42
			c-4.41-8.37-10.81-15.81-18.53-21.49c-0.8-0.59-1.92-0.42-2.51,0.38C179.51,28.38,179.68,29.5,180.47,30.09z M115.42,27.58
			c-0.58-0.8-1.71-0.96-2.51-0.38c-7.72,5.68-14.13,13.12-18.53,21.49c-0.45,0.88-0.12,1.96,0.76,2.42
			c0.27,0.15,0.56,0.21,0.83,0.21c0.65,0,1.26-0.35,1.58-0.96c4.16-7.89,10.2-14.9,17.48-20.27
			C115.84,29.5,116.01,28.38,115.42,27.58z M164.52,91.45c0-11.54-12.12-25.48-27.16-25.48c-15.04,0-27.16,13.94-27.16,25.48
			c0,11.36,12.18,20.61,27.16,20.61C152.33,112.07,164.52,102.82,164.52,91.45z M140.07,108.36c-0.61-0.04-1.14-0.31-1.63-0.86
			c-2.76-3.06-3.06-12-2.91-16.76c4.94-0.6,8.76-5.29,8.76-9.21c0-4.27-4.4-7.74-9.8-7.74c-5.41,0-9.81,3.47-9.81,7.74
			c0,3.52,3.08,7.66,7.28,8.89c-0.15,3.79-0.15,12.92,2.74,17.93c-11.74-0.96-20.9-8.18-20.9-16.91c0-9.86,10.88-21.89,23.57-21.89
			c12.69,0,23.57,12.03,23.57,21.89C160.93,100.17,151.8,107.39,140.07,108.36z M160.32,70.24c3.46,0,6.28-2.82,6.28-6.28
			c0-3.47-2.82-6.28-6.28-6.28c-3.46,0-6.29,2.82-6.29,6.28C154.04,67.42,156.86,70.24,160.32,70.24z M110.2,63.96
			c0,3.47,2.82,6.28,6.29,6.28c3.46,0,6.28-2.82,6.28-6.28c0-3.47-2.82-6.28-6.28-6.28C113.03,57.68,110.2,60.49,110.2,63.96z
			 M41.81,208.03c-14.41,0-26.14,13.32-26.14,29.68S27.4,267.4,41.81,267.4s26.13-13.32,26.13-29.68S56.22,208.03,41.81,208.03z
			 M41.81,263.82c-12.43,0-22.55-11.71-22.55-26.09c0-14.4,10.11-26.1,22.55-26.1c12.43,0,22.55,11.71,22.55,26.1
			C64.35,252.1,54.23,263.82,41.81,263.82z M124.28,218.02c-14.41,0-26.14,13.32-26.14,29.68c0,16.38,11.72,29.68,26.14,29.68
			s26.13-13.32,26.13-29.68S138.69,218.02,124.28,218.02z M124.28,273.8c-12.43,0-22.55-11.71-22.55-26.09
			c0-14.4,10.11-26.1,22.55-26.1c12.43,0,22.55,11.71,22.55,26.1C146.82,262.09,136.7,273.8,124.28,273.8z"/>
	</g>
</g>
<g transform="matrix(1, 0, 0, 1, 99, 266)">
	<g>
		<defs>
			<rect id="SVGID_00000155828853386916407740000014280709988288326055_" x="-81" y="38.67" width="236" height="72"/>
		</defs>
		<clipPath id="SVGID_00000068676257736773322800000014786920077233964223_">
			<use xlink:href="#SVGID_00000155828853386916407740000014280709988288326055_"  style="overflow:visible;"/>
		</clipPath>
		<g style="clip-path:url(#SVGID_00000068676257736773322800000014786920077233964223_);">
			<g>
				<g transform="translate(1.571147, 41.25241)">
					<g>
						<path d="M-78.04,53.13c-0.74-0.2-1.24-0.58-1.5-1.17c-0.25-0.58-0.38-1.29-0.38-2.12V39.48c0-0.88,0.44-1.47,1.31-1.79
							c0.89-0.33,2-0.51,3.33-0.54c1.33-0.03,2.69,0.01,4.06,0.1c1.38,0.1,2.53,0.12,3.46,0.06c1.58-0.08,2.65-0.45,3.21-1.1
							c0.55-0.65,0.59-1.41,0.1-2.27c-0.49-0.86-1.52-1.57-3.1-2.15c-2.99-1.11-5.44-2.26-7.35-3.44c-1.91-1.19-3.31-2.58-4.23-4.17
							c-0.91-1.58-1.35-3.5-1.35-5.75c0-2.51,0.36-4.78,1.08-6.81c0.72-2.03,2.06-3.8,4.02-5.33c1.3-1.03,2.82-1.8,4.54-2.31
							c1.72-0.51,3.53-0.86,5.42-1.04c1.89-0.19,3.67-0.31,5.35-0.35c0.79-0.04,1.96-0.06,3.52-0.06c1.55,0,3.18,0.05,4.88,0.15
							c1.71,0.08,3.23,0.23,4.56,0.44c1.33,0.21,2.16,0.5,2.48,0.88c0.28,0.32,0.46,0.81,0.56,1.46c0.09,0.66,0.13,1.78,0.1,3.38
							c-0.03,1.58-0.06,4-0.1,7.25c0,1.68-1,2.52-3,2.52c-1.07,0-2.27-0.03-3.6-0.1c-1.33-0.07-2.6-0.1-3.81-0.1
							c-1.21,0-2.14,0.17-2.79,0.5c-1.12,0.52-1.77,1.27-1.94,2.27c-0.16,1,0.49,1.87,1.94,2.6c0.83,0.43,1.86,0.89,3.1,1.35
							c1.23,0.46,2.44,0.95,3.6,1.46c3.34,1.58,5.65,3.75,6.92,6.5c1.26,2.75,1.5,5.78,0.71,9.08c-0.33,1.45-0.88,2.84-1.62,4.19
							c-0.74,1.35-1.71,2.52-2.92,3.5c-1.68,1.35-4.04,2.3-7.06,2.85c-3.03,0.57-6.54,0.84-10.52,0.81
							C-69.05,53.47-73.37,53.34-78.04,53.13z"/>
					</g>
				</g>
			</g>
			<g>
				<g transform="translate(32.174812, 41.25241)">
					<g>
						<path d="M-46.17,53.04c-0.56,0-1.04-0.28-1.46-0.83c-0.42-0.55-0.62-1.19-0.62-1.9l0.15-17.33c-0.16-2.42-0.62-4.33-1.42-5.75
							c-0.79-1.43-2.05-1.84-3.77-1.23c-0.66,0.32-1.24,0.85-1.75,1.6c-0.52,0.75-0.77,1.49-0.77,2.23v0.42l0.56,19.44
							c0.09,0.75-0.14,1.41-0.69,1.96c-0.47,0.56-1.06,0.83-1.75,0.83l-10.06,0.08c-0.61,0-1.18-0.26-1.69-0.77
							c-0.46-0.47-0.69-1.12-0.69-1.96l-0.15-43.75c0-0.65,0.26-1.28,0.77-1.9c0.51-0.55,1.05-0.83,1.6-0.83l8.96,0.06
							c0.64,0,1.21,0.26,1.73,0.77c0.47,0.52,0.71,1.17,0.71,1.96l0.27,8.81c3.36-0.61,6.4-0.75,9.12-0.42
							c2.72,0.32,4.99,1.02,6.81,2.08c1.68,0.99,2.98,2.05,3.92,3.19c0.93,1.14,1.58,2.47,1.96,3.98c0.38,1.52,0.6,3.32,0.69,5.42
							c0.09,2.1,0.15,4.59,0.15,7.48l-0.06,13.62c0,0.75-0.21,1.39-0.62,1.9c-0.47,0.55-0.99,0.83-1.54,0.83H-46.17z"/>
					</g>
				</g>
			</g>
			<g>
				<g transform="translate(61.782798, 41.25241)">
					<g>
						<path d="M-37.2,53.67c-1.54,0-2.2-1-1.96-3c-3.82,2.29-7.74,3.15-11.75,2.58c-2.28-0.32-4.1-0.96-5.46-1.94
							c-1.35-0.98-2.33-2.14-2.94-3.46c-0.6-1.33-0.93-2.7-1-4.1c-0.07-1.4-0.02-2.69,0.17-3.85c0.38-1.9,1.27-3.49,2.69-4.77
							c1.43-1.29,3.16-2.3,5.19-3.02c2.03-0.72,4.06-1.12,6.1-1.21l7-0.42c-0.1-1.3-0.22-2.34-0.35-3.1
							c-0.14-0.78-0.53-1.32-1.17-1.62c-0.62-0.3-1.8-0.43-3.52-0.38c-0.79,0-1.39,0.21-1.79,0.62c-0.39,0.42-0.72,0.89-0.98,1.4
							c-0.25,0.52-0.53,0.96-0.83,1.33c-0.29,0.36-0.74,0.5-1.35,0.42l-7.54-0.98c-0.66-0.09-1.16-0.25-1.5-0.46
							c-0.35-0.21-0.52-0.59-0.52-1.15c0-1.72,0.21-3.32,0.65-4.79c0.44-1.47,1.35-2.76,2.73-3.85c1.38-1.09,3.44-1.94,6.19-2.54
							c2.89-0.65,5.68-0.95,8.38-0.9c2.71,0.04,5.17,0.47,7.38,1.29c2.22,0.81,4.04,2.05,5.46,3.73c1.43,1.68,2.3,3.85,2.62,6.5
							c0.05,0.38,0.1,1.74,0.15,4.1c0.04,2.35,0.08,5.38,0.12,9.08c0.05,3.7,0.08,7.78,0.08,12.25c0.09,0.66-0.12,1.17-0.67,1.56
							c-0.53,0.4-1.01,0.6-1.44,0.6L-37.2,53.67z M-41.53,37.25c-1.45,0-2.52,0.38-3.23,1.12c-0.7,0.74-1.03,1.61-1,2.62
							c0.03,1,0.41,1.88,1.15,2.62c0.75,0.74,1.84,1.1,3.29,1.1c0.83,0,1.25-0.32,1.25-0.98v-5.52
							C-40.07,37.58-40.56,37.25-41.53,37.25z"/>
					</g>
				</g>
			</g>
			<g>
				<g transform="translate(90.447531, 41.25241)">
					<g>
						<path d="M-26.39,53.04c-0.56,0-1.04-0.28-1.46-0.83c-0.42-0.55-0.62-1.19-0.62-1.9l0.12-17.33c-0.14-2.42-0.6-4.33-1.4-5.75
							c-0.79-1.43-2.05-1.84-3.77-1.23c-0.61,0.28-1.22,0.7-1.83,1.25c-0.6,0.56-0.95,1.4-1.04,2.52l0.5,20.9
							c0.09,0.66-0.18,1.18-0.81,1.58c-0.62,0.39-1.22,0.58-1.77,0.58l-9.73,0.06c-0.7,0-1.29-0.2-1.77-0.58
							c-0.49-0.4-0.73-0.93-0.73-1.58l-0.15-34.1c0-0.55,0.26-1.05,0.77-1.5c0.51-0.44,1.09-0.67,1.75-0.67h9.08
							c0.79,0,1.4,0.21,1.81,0.62c3.58-0.69,6.83-0.89,9.75-0.58c2.92,0.31,5.3,1.02,7.17,2.12c1.68,0.99,2.98,2.05,3.92,3.19
							c0.93,1.14,1.58,2.47,1.96,3.98c0.38,1.52,0.6,3.32,0.69,5.42c0.09,2.1,0.15,4.59,0.15,7.48l-0.06,13.62
							c0,0.75-0.21,1.39-0.62,1.9c-0.47,0.55-0.99,0.83-1.54,0.83H-26.39z"/>
					</g>
				</g>
			</g>
			<g>
				<g transform="translate(120.317549, 41.25241)">
					<g>
						<path d="M-20.77,52.83c-0.42,0-0.81-0.12-1.19-0.35c-0.28-0.32-0.49-0.65-0.62-0.98l-4.19-10.33l0.21,9.44
							c0.08,0.6-0.1,1.14-0.56,1.6c-0.47,0.42-0.99,0.62-1.54,0.62h-10.12c-0.57,0-1.04-0.19-1.4-0.56
							c-0.38-0.38-0.56-0.91-0.56-1.6l-0.15-45.5c0-0.51,0.21-1,0.62-1.46c0.42-0.43,0.88-0.65,1.4-0.65h9.31
							c0.59,0,1.1,0.22,1.52,0.65c0.38,0.46,0.56,0.95,0.56,1.46l0.42,21.81l4.83-11.13c0.18-0.51,0.44-0.86,0.77-1.04
							c0.22-0.09,0.55-0.17,1-0.21c0.44-0.04,0.78-0.06,1.02-0.06h8.88c0.65,0,1.19,0.33,1.6,0.98c0.42,0.66,0.48,1.31,0.21,1.96
							l-7.19,16.35L-8.6,50.1c0.23,0.75,0.15,1.43-0.27,2.04c-0.43,0.55-1.02,0.83-1.75,0.83L-20.77,52.83z"/>
					</g>
				</g>
			</g>
			<g>
				<g transform="translate(146.728914, 41.25241)">
					<g>
						<path d="M-8.88,53.67c-1.54,0-2.2-1-1.96-3c-3.82,2.29-7.74,3.15-11.75,2.58c-2.28-0.32-4.1-0.96-5.46-1.94
							c-1.35-0.98-2.33-2.14-2.94-3.46c-0.6-1.33-0.93-2.7-1-4.1c-0.07-1.4-0.02-2.69,0.17-3.85c0.38-1.9,1.27-3.49,2.69-4.77
							c1.43-1.29,3.16-2.3,5.19-3.02c2.03-0.72,4.06-1.12,6.1-1.21l7-0.42c-0.1-1.3-0.22-2.34-0.35-3.1
							c-0.14-0.78-0.53-1.32-1.17-1.62c-0.62-0.3-1.8-0.43-3.52-0.38c-0.79,0-1.39,0.21-1.79,0.62c-0.39,0.42-0.72,0.89-0.98,1.4
							c-0.25,0.52-0.53,0.96-0.83,1.33c-0.29,0.36-0.74,0.5-1.35,0.42l-7.54-0.98c-0.66-0.09-1.16-0.25-1.5-0.46
							c-0.35-0.21-0.52-0.59-0.52-1.15c0-1.72,0.21-3.32,0.65-4.79c0.44-1.47,1.35-2.76,2.73-3.85c1.38-1.09,3.44-1.94,6.19-2.54
							c2.89-0.65,5.68-0.95,8.38-0.9c2.71,0.04,5.17,0.47,7.38,1.29c2.22,0.81,4.04,2.05,5.46,3.73c1.43,1.68,2.3,3.85,2.62,6.5
							c0.05,0.38,0.1,1.74,0.15,4.1c0.04,2.35,0.08,5.38,0.12,9.08c0.05,3.7,0.08,7.78,0.08,12.25c0.09,0.66-0.12,1.17-0.67,1.56
							c-0.53,0.4-1.01,0.6-1.44,0.6L-8.88,53.67z M-13.22,37.25c-1.45,0-2.52,0.38-3.23,1.12c-0.7,0.74-1.03,1.61-1,2.62
							c0.03,1,0.41,1.88,1.15,2.62c0.75,0.74,1.84,1.1,3.29,1.1c0.83,0,1.25-0.32,1.25-0.98v-5.52
							C-11.76,37.58-12.25,37.25-13.22,37.25z"/>
					</g>
				</g>
			</g>
		</g>
	</g>
</g>
<g transform="matrix(1, 0, 0, 1, 118, 315)">
	<g>
		<defs>
			<rect id="SVGID_00000068669018336632605750000008129150557240954018_" x="-74.67" y="55" width="185.33" height="28"/>
		</defs>
		<clipPath id="SVGID_00000067236516764229964420000012622991502573087365_">
			<use xlink:href="#SVGID_00000068669018336632605750000008129150557240954018_"  style="overflow:visible;"/>
		</clipPath>
		<g style="clip-path:url(#SVGID_00000067236516764229964420000012622991502573087365_);">
			<g>
				<g transform="translate(1.8831, 15.530485)">
					<g>
						<path d="M-59.96,60.18h-1.88c-0.52,0-0.95-0.34-1.29-1.04l-2.02-4.1c-0.17-0.34-0.35-0.6-0.54-0.77
							c-0.2-0.18-0.47-0.28-0.81-0.29h-2.73v4.6h1.94c0.17,0,0.25,0.08,0.25,0.25v1.1c0,0.17-0.08,0.25-0.25,0.25h-5.44
							c-0.18,0-0.27-0.08-0.27-0.25v-1.1c0-0.17,0.09-0.25,0.27-0.25h1.62V46.34h-1.62c-0.18,0-0.27-0.08-0.27-0.25v-1.1
							c0-0.17,0.09-0.25,0.27-0.25h6.62c1.53,0,2.77,0.41,3.73,1.23c0.97,0.81,1.46,1.95,1.46,3.42c0,2.25-1.06,3.66-3.17,4.21
							c0.26,0.22,0.59,0.7,1,1.44l1.81,3.54h1.31c0.17,0,0.25,0.08,0.25,0.25v1.1C-59.71,60.09-59.79,60.18-59.96,60.18z
							 M-69.23,52.43h2.75c2.44,0,3.67-0.99,3.67-2.98c0-2.07-1.22-3.1-3.67-3.1h-2.75V52.43z"/>
					</g>
				</g>
			</g>
			<g>
				<g transform="translate(14.216831, 15.530485)">
					<g>
						<path d="M-57.2,60.18h-11.42c-0.18,0-0.27-0.08-0.27-0.25v-1.1c0-0.17,0.09-0.25,0.27-0.25h1.62V46.34h-1.62
							c-0.18,0-0.27-0.08-0.27-0.25v-1.1c0-0.17,0.09-0.25,0.27-0.25h11.42c0.18,0,0.27,0.08,0.27,0.25v3.48
							c0,0.18-0.09,0.27-0.27,0.27h-1.17c-0.17,0-0.25-0.09-0.25-0.27v-2.12h-6.5v5.33h5.44c0.19,0,0.29,0.09,0.29,0.27v1.08
							c0,0.18-0.1,0.27-0.29,0.27h-5.44v5.27h6.48v-2.12c0-0.17,0.09-0.25,0.27-0.25h1.17c0.18,0,0.27,0.08,0.27,0.25v3.48
							C-56.93,60.09-57.02,60.18-57.2,60.18z"/>
					</g>
				</g>
			</g>
			<g>
				<g transform="translate(25.550967, 15.530485)">
					<g>
						<path d="M-55.88,60.18h-5c-0.2,0-0.29-0.09-0.29-0.27v-1.06c0-0.18,0.09-0.27,0.29-0.27h1.62V46.34h-4.06v2.29
							c0,0.2-0.1,0.29-0.29,0.29h-1.21c-0.2,0-0.29-0.09-0.29-0.29v-3.62c0-0.18,0.09-0.27,0.29-0.27h12.96
							c0.21,0,0.31,0.09,0.31,0.27v3.62c0,0.2-0.1,0.29-0.31,0.29h-1.23c-0.18,0-0.27-0.09-0.27-0.29v-2.29h-4.02v12.23h1.5
							c0.21,0,0.31,0.09,0.31,0.27v1.06C-55.57,60.09-55.67,60.18-55.88,60.18z"/>
					</g>
				</g>
			</g>
			<g>
				<g transform="translate(38.078164, 15.530485)">
					<g>
						<path d="M-45.45,60.18h-4.88c-0.17,0-0.25-0.08-0.25-0.25v-1.1c0-0.17,0.08-0.25,0.25-0.25h1.52l-1.4-3.73h-6l-1.42,3.73h1.52
							c0.17,0,0.25,0.08,0.25,0.25v1.1c0,0.17-0.08,0.25-0.25,0.25h-4.83c-0.18,0-0.27-0.08-0.27-0.25v-1.1
							c0-0.17,0.09-0.25,0.27-0.25h1.44l4.62-12.23h-1.17c-0.2,0-0.29-0.08-0.29-0.25v-1.1c0-0.17,0.09-0.25,0.29-0.25h2.92
							c0.34,0,0.61,0.08,0.79,0.23c0.18,0.14,0.33,0.37,0.46,0.69l4.94,12.92h1.48c0.17,0,0.25,0.08,0.25,0.25v1.1
							C-45.2,60.09-45.29,60.18-45.45,60.18z M-50.79,53.36l-2.4-6.4h-0.06l-2.42,6.4H-50.79z"/>
					</g>
				</g>
			</g>
			<g>
				<g transform="translate(52.443333, 15.530485)">
					<g>
						<path d="M-50.71,60.18h-5.17c-0.18,0-0.27-0.08-0.27-0.25v-1.1c0-0.17,0.09-0.25,0.27-0.25h1.62V46.34h-1.62
							c-0.18,0-0.27-0.08-0.27-0.25v-1.1c0-0.17,0.09-0.25,0.27-0.25h5.17c0.18,0,0.27,0.08,0.27,0.25v1.1
							c0,0.17-0.09,0.25-0.27,0.25h-1.67v12.23h1.67c0.18,0,0.27,0.08,0.27,0.25v1.1C-50.44,60.09-50.53,60.18-50.71,60.18z"/>
					</g>
				</g>
			</g>
			<g>
				<g transform="translate(59.085795, 15.530485)">
					<g>
						<path d="M-41.91,60.18h-11.75c-0.18,0-0.27-0.08-0.27-0.25v-1.1c0-0.17,0.09-0.25,0.27-0.25h1.62V46.34h-1.62
							c-0.18,0-0.27-0.08-0.27-0.25v-1.1c0-0.17,0.09-0.25,0.27-0.25h5.15c0.18,0,0.27,0.09,0.27,0.27v1.06
							c0,0.18-0.09,0.27-0.27,0.27h-1.65v12.23h6.83v-2.12c0-0.17,0.09-0.25,0.29-0.25h1.15c0.18,0,0.27,0.08,0.27,0.25v3.46
							C-41.62,60.09-41.72,60.18-41.91,60.18z"/>
					</g>
				</g>
			</g>
			<g>
				<g transform="translate(70.694005, 15.530485)">
				</g>
			</g>
			<g>
				<g transform="translate(76.546471, 15.530485)">
					<g>
						<path d="M-46.63,60.18h-1.21c-0.18,0-0.27-0.08-0.27-0.25v-5.04c0-0.18,0.09-0.27,0.27-0.27h1.35c0.17,0,0.25,0.09,0.25,0.27
							v0.46c0,0.27,0.17,0.62,0.5,1.08c0.33,0.45,0.66,0.81,0.98,1.1c0.33,0.29,0.78,0.54,1.33,0.75c0.55,0.21,1.15,0.31,1.79,0.31
							c1.11,0,1.97-0.23,2.58-0.69c0.62-0.46,0.94-1.09,0.94-1.92c0-0.47-0.18-0.88-0.52-1.21c-0.35-0.34-0.81-0.61-1.38-0.81
							c-0.56-0.21-1.18-0.4-1.85-0.56c-0.68-0.17-1.36-0.36-2.04-0.58c-0.68-0.22-1.3-0.48-1.85-0.79
							c-0.56-0.32-1.02-0.75-1.38-1.29c-0.35-0.55-0.52-1.21-0.52-1.96c0-1.21,0.45-2.2,1.35-2.98c0.92-0.79,2.15-1.19,3.69-1.19
							c1.93,0,3.34,0.56,4.25,1.69l-0.04-1.33c0-0.17,0.09-0.25,0.27-0.25h1.21c0.18,0,0.27,0.08,0.27,0.25v4.69
							c0,0.18-0.09,0.27-0.27,0.27h-1.35c-0.17,0-0.25-0.09-0.25-0.27v-0.6c0-0.58-0.33-1.17-1-1.77c-0.66-0.61-1.62-0.92-2.9-0.92
							c-0.95,0-1.71,0.23-2.29,0.69c-0.58,0.45-0.88,1.02-0.88,1.73c0,0.5,0.18,0.93,0.54,1.29c0.36,0.36,0.82,0.66,1.4,0.88
							c0.57,0.21,1.2,0.41,1.9,0.58c0.69,0.18,1.38,0.38,2.06,0.58c0.69,0.21,1.32,0.47,1.9,0.77c0.57,0.31,1.03,0.72,1.4,1.25
							c0.36,0.52,0.54,1.14,0.54,1.85c0,1.27-0.45,2.31-1.35,3.12c-0.91,0.81-2.25,1.21-4.04,1.21c-1.32,0-2.41-0.26-3.27-0.79
							c-0.86-0.53-1.49-1.1-1.88-1.73l0.02,2.12C-46.38,60.09-46.46,60.18-46.63,60.18z"/>
					</g>
				</g>
			</g>
			<g>
				<g transform="translate(88.090186, 15.530485)">
					<g>
						<path d="M-35.03,60.18h-5c-0.2,0-0.29-0.09-0.29-0.27v-1.06c0-0.18,0.09-0.27,0.29-0.27h1.62V46.34h-4.06v2.29
							c0,0.2-0.1,0.29-0.29,0.29h-1.21c-0.2,0-0.29-0.09-0.29-0.29v-3.62c0-0.18,0.09-0.27,0.29-0.27h12.96
							c0.21,0,0.31,0.09,0.31,0.27v3.62c0,0.2-0.1,0.29-0.31,0.29h-1.23c-0.18,0-0.27-0.09-0.27-0.29v-2.29h-4.02v12.23h1.5
							c0.21,0,0.31,0.09,0.31,0.27v1.06C-34.72,60.09-34.82,60.18-35.03,60.18z"/>
					</g>
				</g>
			</g>
			<g>
				<g transform="translate(100.617382, 15.530485)">
					<g>
						<path d="M-25.13,52.39c0,2.36-0.71,4.28-2.12,5.75c-1.41,1.46-3.18,2.19-5.33,2.19c-2.14,0-3.93-0.73-5.35-2.21
							c-1.43-1.48-2.15-3.4-2.15-5.75c0-2.34,0.73-4.22,2.21-5.62c1.47-1.42,3.23-2.12,5.27-2.12c2.05,0,3.81,0.71,5.27,2.12
							C-25.87,48.15-25.13,50.03-25.13,52.39z M-36.44,56.95c1.09,1.1,2.38,1.65,3.83,1.65c1.47,0,2.75-0.55,3.83-1.65
							c1.09-1.09,1.65-2.6,1.65-4.52c0-1.92-0.56-3.42-1.67-4.5c-1.11-1.08-2.38-1.62-3.79-1.62c-1.42,0-2.69,0.54-3.81,1.62
							c-1.11,1.08-1.67,2.58-1.67,4.5C-38.07,54.34-37.52,55.85-36.44,56.95z"/>
					</g>
				</g>
			</g>
			<g>
				<g transform="translate(114.208669, 15.530485)">
					<g>
						<path d="M-22.51,60.18h-1.88c-0.52,0-0.95-0.34-1.29-1.04l-2.02-4.1c-0.17-0.34-0.35-0.6-0.54-0.77
							c-0.2-0.18-0.47-0.28-0.81-0.29h-2.73v4.6h1.94c0.17,0,0.25,0.08,0.25,0.25v1.1c0,0.17-0.08,0.25-0.25,0.25h-5.44
							c-0.18,0-0.27-0.08-0.27-0.25v-1.1c0-0.17,0.09-0.25,0.27-0.25h1.62V46.34h-1.62c-0.18,0-0.27-0.08-0.27-0.25v-1.1
							c0-0.17,0.09-0.25,0.27-0.25h6.62c1.53,0,2.77,0.41,3.73,1.23c0.97,0.81,1.46,1.95,1.46,3.42c0,2.25-1.06,3.66-3.17,4.21
							c0.26,0.22,0.59,0.7,1,1.44l1.81,3.54h1.31c0.17,0,0.25,0.08,0.25,0.25v1.1C-22.26,60.09-22.35,60.18-22.51,60.18z
							 M-31.78,52.43h2.75c2.44,0,3.67-0.99,3.67-2.98c0-2.07-1.22-3.1-3.67-3.1h-2.75V52.43z"/>
					</g>
				</g>
			</g>
			<g>
				<g transform="translate(126.5424, 15.530485)">
					<g>
						<path d="M-19.76,60.18h-11.42c-0.18,0-0.27-0.08-0.27-0.25v-1.1c0-0.17,0.09-0.25,0.27-0.25h1.62V46.34h-1.62
							c-0.18,0-0.27-0.08-0.27-0.25v-1.1c0-0.17,0.09-0.25,0.27-0.25h11.42c0.18,0,0.27,0.08,0.27,0.25v3.48
							c0,0.18-0.09,0.27-0.27,0.27h-1.17c-0.17,0-0.25-0.09-0.25-0.27v-2.12h-6.5v5.33h5.44c0.19,0,0.29,0.09,0.29,0.27v1.08
							c0,0.18-0.1,0.27-0.29,0.27h-5.44v5.27h6.48v-2.12c0-0.17,0.09-0.25,0.27-0.25h1.17c0.18,0,0.27,0.08,0.27,0.25v3.48
							C-19.49,60.09-19.58,60.18-19.76,60.18z"/>
					</g>
				</g>
			</g>
		</g>
	</g>
</g>
</svg>
