<?xml version="1.0" encoding="utf-8"?>
<!-- Generator: Adobe Illustrator 29.7.1, SVG Export Plug-In . SVG Version: 9.03 Build 0)  -->
<svg version="1.0" id="Layer_1" xmlns="http://www.w3.org/2000/svg" xmlns:xlink="http://www.w3.org/1999/xlink" x="0px" y="0px"
	 viewBox="0 0 356 384" style="enable-background:new 0 0 356 384;" xml:space="preserve">
<style type="text/css">
	.st0{filter:url(#Adobe_OpacityMaskFilter);}
	.st1{fill-opacity:0.1;}
	.st2{mask:url(#_x35_a673d5252_00000152952042699596443540000013705337682307547813_);}
	.st3{clip-path:url(#SVGID_00000130610912759420543070000008005178308008937635_);}
	.st4{clip-path:url(#SVGID_00000075872896851307539530000014255299595323772578_);}
	.st5{clip-path:url(#SVGID_00000162327353594171755820000002253392163619840935_);}
	.st6{clip-path:url(#SVGID_00000173848656368112952420000010272595599730659465_);}
	.st7{clip-path:url(#SVGID_00000160185517091738091960000007478182090982443942_);}
	.st8{clip-path:url(#SVGID_00000138551648784889669710000017590678726430416045_);}
	.st9{clip-path:url(#SVGID_00000098935653380124743500000003332232930543785636_);}
	.st10{clip-path:url(#SVGID_00000072268102757739088540000011487823402692137872_);}
	.st11{clip-path:url(#SVGID_00000173842184270803411660000013053625079236020153_);}
	.st12{clip-path:url(#SVGID_00000039812037913234498530000005778863078057091744_);}
	.st13{clip-path:url(#SVGID_00000183245444575460063420000005653306031122913202_);}
	.st14{fill:#FFC035;}
	.st15{clip-path:url(#SVGID_00000088844902842024112660000005499239858374360979_);}
	.st16{fill:#FFAD38;}
	.st17{clip-path:url(#SVGID_00000052095026457391999700000006170907401129023113_);}
	.st18{fill:#C16644;}
	.st19{fill:#FFFFFF;}
	.st20{fill:#9D4C2D;}
	.st21{clip-path:url(#SVGID_00000091726799256722946520000012207682026897513382_);}
</style>
<defs>
	<filter id="Adobe_OpacityMaskFilter" filterUnits="userSpaceOnUse" x="46.67" y="334" width="262.67" height="45.33">
		<feColorMatrix  type="matrix" values="1 0 0 0 0  0 1 0 0 0  0 0 1 0 0  0 0 0 1 0"/>
	</filter>
</defs>
<mask maskUnits="userSpaceOnUse" x="46.67" y="334" width="262.67" height="45.33" id="_x35_a673d5252_00000152952042699596443540000013705337682307547813_">
	<g class="st0">
		<rect x="-122" y="-108" class="st1" width="600" height="600"/>
	</g>
</mask>
<g class="st2">
	<g transform="matrix(1, 0, 0, 1, 89, 294)">
		<g>
			<defs>
				<rect id="SVGID_1_" x="-42.33" y="40" width="262.67" height="45.33"/>
			</defs>
			<clipPath id="SVGID_00000112616453994363152840000008183628130925015441_">
				<use xlink:href="#SVGID_1_"  style="overflow:visible;"/>
			</clipPath>
			<g style="clip-path:url(#SVGID_00000112616453994363152840000008183628130925015441_);">
				<g>
					<defs>
						<rect id="SVGID_00000017484402542719861530000016914621767677330608_" x="-41.11" y="40.04" width="260.28" height="44.9"/>
					</defs>
					<clipPath id="SVGID_00000117641730482204329120000012009703338542522537_">
						<use xlink:href="#SVGID_00000017484402542719861530000016914621767677330608_"  style="overflow:visible;"/>
					</clipPath>
					<g style="clip-path:url(#SVGID_00000117641730482204329120000012009703338542522537_);">
						<g>
							<defs>
								<path id="SVGID_00000003074371989567216390000010604722593011955602_" d="M89,40.04c-71.86,0-130.11,10.05-130.11,22.45
									c0,12.4,58.25,22.45,130.11,22.45s130.11-10.05,130.11-22.45C219.11,50.09,160.86,40.04,89,40.04z"/>
							</defs>
							<clipPath id="SVGID_00000148659796625671351000000002829434197396409272_">
								<use xlink:href="#SVGID_00000003074371989567216390000010604722593011955602_"  style="overflow:visible;"/>
							</clipPath>
							<g style="clip-path:url(#SVGID_00000148659796625671351000000002829434197396409272_);">
								<g>
									<g>
										<defs>
											
												<rect id="SVGID_00000026145582274647197120000003489101780166579894_" x="-42.33" y="40" width="262.67" height="45.33"/>
										</defs>
										<clipPath id="SVGID_00000131342787274629810740000018339510728293882290_">
											<use xlink:href="#SVGID_00000026145582274647197120000003489101780166579894_"  style="overflow:visible;"/>
										</clipPath>
										<g style="clip-path:url(#SVGID_00000131342787274629810740000018339510728293882290_);">
											<g>
												<defs>
													
														<rect id="SVGID_00000153676497470326343530000017178024191604687503_" x="-41.11" y="40.04" width="260.27" height="44.9"/>
												</defs>
												<clipPath id="SVGID_00000057145827677608645200000017098212705370197648_">
													<use xlink:href="#SVGID_00000153676497470326343530000017178024191604687503_"  style="overflow:visible;"/>
												</clipPath>
												<g style="clip-path:url(#SVGID_00000057145827677608645200000017098212705370197648_);">
													<g>
														<defs>
															<path id="SVGID_00000139992062792682372090000002954046094687483315_" d="M89,40.04
																c-71.86,0-130.11,10.05-130.11,22.45c0,12.4,58.25,22.45,130.11,22.45s130.11-10.05,130.11-22.45
																C219.11,50.09,160.86,40.04,89,40.04z"/>
														</defs>
														<clipPath id="SVGID_00000054235267264555112780000001060607828155274161_">
															<use xlink:href="#SVGID_00000139992062792682372090000002954046094687483315_"  style="overflow:visible;"/>
														</clipPath>
														<g style="clip-path:url(#SVGID_00000054235267264555112780000001060607828155274161_);">
															<path d="M-41.11,40.04h260.28v44.9H-41.11V40.04z"/>
														</g>
													</g>
												</g>
											</g>
										</g>
									</g>
								</g>
							</g>
						</g>
					</g>
				</g>
			</g>
		</g>
	</g>
</g>
<g>
	<defs>
		<rect id="SVGID_00000103961981484684167680000004849055052897836212_" x="6.9" y="5.06" width="342.21" height="342.21"/>
	</defs>
	<clipPath id="SVGID_00000031175989160248304440000017431765161018045883_">
		<use xlink:href="#SVGID_00000103961981484684167680000004849055052897836212_"  style="overflow:visible;"/>
	</clipPath>
	<g style="clip-path:url(#SVGID_00000031175989160248304440000017431765161018045883_);">
		<g>
			<defs>
				<circle id="SVGID_00000183941748841781494350000001418892532831429543_" cx="178" cy="176.16" r="171.1"/>
			</defs>
			<clipPath id="SVGID_00000105427847941102393890000001390117154743222962_">
				<use xlink:href="#SVGID_00000183941748841781494350000001418892532831429543_"  style="overflow:visible;"/>
			</clipPath>
			<g style="clip-path:url(#SVGID_00000105427847941102393890000001390117154743222962_);">
				<g transform="matrix(1, 0, 0, 1, 59, 47)">
					<g>
						<defs>
							
								<rect id="SVGID_00000109709150985293044540000003613710927499895996_" x="-52.33" y="-42.33" width="342.67" height="342.67"/>
						</defs>
						<clipPath id="SVGID_00000098927306433853925380000012866950289189515397_">
							<use xlink:href="#SVGID_00000109709150985293044540000003613710927499895996_"  style="overflow:visible;"/>
						</clipPath>
						<g style="clip-path:url(#SVGID_00000098927306433853925380000012866950289189515397_);">
							<g>
								<defs>
									
										<rect id="SVGID_00000092455205249638882020000016237386182932675482_" x="-52.1" y="-41.94" width="342.21" height="342.21"/>
								</defs>
								<clipPath id="SVGID_00000067959192445846476300000010195370148997482904_">
									<use xlink:href="#SVGID_00000092455205249638882020000016237386182932675482_"  style="overflow:visible;"/>
								</clipPath>
								<g style="clip-path:url(#SVGID_00000067959192445846476300000010195370148997482904_);">
									<g>
										<defs>
											<circle id="SVGID_00000168807507387677126950000017718805328047536526_" cx="119" cy="129.16" r="171.1"/>
										</defs>
										<clipPath id="SVGID_00000129914894943355802210000013812671663472909228_">
											<use xlink:href="#SVGID_00000168807507387677126950000017718805328047536526_"  style="overflow:visible;"/>
										</clipPath>
										<g style="clip-path:url(#SVGID_00000129914894943355802210000013812671663472909228_);">
											<path class="st14" d="M-52.1-41.94H290.1v342.21H-52.1V-41.94z"/>
										</g>
									</g>
								</g>
							</g>
						</g>
					</g>
				</g>
			</g>
		</g>
	</g>
</g>
<g>
	<defs>
		<rect id="SVGID_00000054961482880974923160000003222295633141475519_" x="15.76" y="78.11" width="324" height="262"/>
	</defs>
	<clipPath id="SVGID_00000171706955537062702590000015899569981192981646_">
		<use xlink:href="#SVGID_00000054961482880974923160000003222295633141475519_"  style="overflow:visible;"/>
	</clipPath>
	<g style="clip-path:url(#SVGID_00000171706955537062702590000015899569981192981646_);">
		<path class="st16" d="M176.43,167.48c-58.08,0-107.87-35.37-129.05-85.76c-19.78,26.88-31.62,59.97-31.62,95.9
			C15.76,267.2,88.39,339.8,178,339.8c89.6,0,162.23-72.59,162.23-162.18c0-37.19-12.66-71.35-33.72-98.71
			C286.02,130.76,235.57,167.48,176.43,167.48z"/>
	</g>
</g>
<g>
	<defs>
		<rect id="SVGID_00000105408800090295451650000002911302301039396994_" x="4.37" y="18" width="339.63" height="360.9"/>
	</defs>
	<clipPath id="SVGID_00000070835595435936291140000001134991959528910725_">
		<use xlink:href="#SVGID_00000105408800090295451650000002911302301039396994_"  style="overflow:visible;"/>
	</clipPath>
	<g style="clip-path:url(#SVGID_00000070835595435936291140000001134991959528910725_);">
		<path d="M277.69,162.35c-8.16-7.25-17.34-13.31-27.31-18.09c13.6-12.62,21.99-29.75,21.99-48.6c0-6.71-1.06-13.52-3.16-20.28
			c8.76-5.76,14.11-15.58,14.11-26.11c0-17.2-14.01-31.21-31.22-31.21c-8.61,0-16.74,3.52-22.64,9.72
			c-11.22-6-23.62-9.17-35.99-9.17c-12.36,0-24.77,3.17-35.99,9.17c-5.88-6.2-14.02-9.72-22.63-9.72
			c-17.22,0-31.21,14.01-31.21,31.23c0,10.54,5.36,20.36,14.11,26.11c-2.1,6.74-3.16,13.56-3.16,20.28
			c0,20.94,10.35,39.76,26.72,52.64c-7.05,4.03-13.64,8.74-19.59,14.06c-18.94,16.81-50.46,58.83-61.54,94.97
			c-0.56-0.01-1.1-0.04-1.67-0.04c-29.87,0-54.17,24.3-54.17,54.17c0,29.87,24.3,54.17,54.13,54.17c0.04,0,0.52,0.01,1.4,0.01
			c6.57,0,35.29-0.41,65.2-7.03c9.93,12.3,25.13,20.19,42.13,20.19c0.4,0,41.2-0.22,82.91-16.12c1.95-0.66,41.14-14.47,43.91-51.74
			c4.83,2.86,9.86,4.3,15.09,4.3c2.39,0,4.82-0.3,7.28-0.9c13.95-3.38,22.55-11.26,25.58-23.41
			C351.62,252.39,301.29,183.34,277.69,162.35z"/>
	</g>
</g>
<path class="st18" d="M274.55,165.89c-8.33-7.4-17.77-13.52-28.06-18.21c-14.01,11.34-32.61,18.26-53,18.26
	c-18.04,0-34.67-5.44-47.97-14.54c-7.47,4.09-14.42,8.95-20.65,14.49c-17.88,15.89-48.84,57.16-59.85,91.84
	c14.36,1.82,25.43,9.45,33.09,16.97c10.45-4.76,12.44-22.59,14.19-38.42c0.15-1.43,0.32-2.84,0.47-4.24
	c4.48-38.61,21.25-52.82,21.96-53.4c1.01-0.83,2.49-0.69,3.33,0.32c0.82,1.01,0.68,2.49-0.33,3.33
	c-0.15,0.13-16.03,13.76-20.26,50.3c-0.17,1.38-0.32,2.8-0.47,4.21c-1.83,16.45-3.88,34.9-15.47,41.46c1.8,2.02,3.35,3.96,4.64,5.68
	c0.78,1.05,0.57,2.53-0.48,3.31c-1.04,0.78-2.53,0.57-3.31-0.48c-6.86-9.24-21.7-24.72-43.84-24.72
	c-27.26,0-49.44,22.18-49.44,49.45c0,27.26,22.18,49.44,49.44,49.44c0.35,0.01,30.92,0.45,63.49-6.47
	c-5.67-8.55-8.97-18.8-8.97-29.81c0-29.87,24.3-54.18,54.17-54.18c24.21,0,40.24,16.69,47.65,26.64c0.78,1.05,0.55,2.53-0.48,3.31
	c-1.05,0.78-2.53,0.56-3.31-0.48c-6.88-9.23-21.71-24.73-43.85-24.73c-27.26,0-49.44,22.19-49.44,49.45
	c0,27.26,22.18,49.44,49.44,49.44c0.39,0,40.38-0.23,81.27-15.82c0.04-0.02,0.08-0.04,0.12-0.05c0.4-0.13,40.12-13.47,40.83-50.45
	c-4.78-3.84-9.35-9.14-13.69-15.91c-11.05-17.29-18.2-40.52-22.04-53.01c-11.14-36.29-24.96-52.32-25.1-52.48
	c-0.86-0.98-0.76-2.48,0.21-3.34c0.98-0.85,2.47-0.76,3.33,0.21c0.59,0.67,14.6,16.85,26.07,54.21c3.78,12.27,10.8,35.1,21.51,51.85
	c10.69,16.71,22.66,23.58,35.57,20.45c12.27-2.97,19.5-9.51,22.11-19.96C345.88,255.81,300.9,189.33,274.55,165.89z M53.85,350.62
	c-18.98,0-34.43-17.55-34.43-39.13c0-21.57,15.45-39.11,34.43-39.11c18.99,0,34.44,17.55,34.44,39.11
	C88.29,333.07,72.84,350.62,53.85,350.62z M162.53,363.78c-18.98,0-34.43-17.55-34.43-39.13c0-21.57,15.45-39.12,34.43-39.12
	c18.99,0,34.44,17.55,34.44,39.12C196.97,346.23,181.53,363.78,162.53,363.78z M121.75,72.3c0.98,0.56,1.43,1.73,1.07,2.81
	c-2.32,6.84-3.49,13.76-3.49,20.55c0,36.14,33.27,65.54,74.16,65.54s74.16-29.4,74.16-65.54c0-6.79-1.17-13.71-3.49-20.55
	c-0.35-1.08,0.08-2.26,1.08-2.81c8.26-4.71,13.38-13.54,13.38-23.02c0-14.61-11.9-26.51-26.51-26.51c-7.85,0-15.26,3.46-20.31,9.5
	c-0.73,0.87-1.98,1.1-2.98,0.53c-10.94-6.19-23.15-9.47-35.33-9.47c-12.18,0-24.39,3.28-35.33,9.47c-0.99,0.57-2.24,0.34-2.97-0.53
	c-5.06-6.04-12.46-9.5-20.32-9.5c-14.61,0-26.5,11.9-26.5,26.51C108.37,58.77,113.49,67.59,121.75,72.3z M236.1,34.55
	c0.78-1.04,2.26-1.26,3.31-0.49c10.16,7.5,18.6,17.29,24.42,28.32c0.6,1.16,0.16,2.59-0.99,3.19c-0.35,0.19-0.73,0.28-1.1,0.28
	c-0.85,0-1.66-0.46-2.09-1.27c-5.48-10.41-13.44-19.64-23.04-26.72C235.55,37.09,235.33,35.6,236.1,34.55z M210.05,74.21
	c4.56,0,8.28,3.71,8.28,8.28c0,4.57-3.72,8.28-8.28,8.28c-4.57,0-8.28-3.71-8.28-8.28C201.77,77.93,205.48,74.21,210.05,74.21z
	 M215.57,118.73c0,14.97-16.05,27.16-35.79,27.16c-19.72,0-35.78-12.19-35.78-27.16c0-15.2,15.96-33.58,35.78-33.58
	C199.61,85.15,215.57,103.53,215.57,118.73z M160.56,82.49c0,4.57-3.72,8.28-8.28,8.28c-4.57,0-8.28-3.71-8.28-8.28
	c0-4.57,3.71-8.28,8.28-8.28C156.84,74.21,160.56,77.93,160.56,82.49z M123.16,62.38c5.81-11.03,14.26-20.82,24.41-28.32
	c1.05-0.77,2.53-0.54,3.31,0.49c0.77,1.05,0.56,2.54-0.49,3.31c-9.6,7.08-17.56,16.31-23.04,26.72c-0.43,0.8-1.24,1.27-2.09,1.27
	c-0.36,0-0.74-0.08-1.1-0.28C122.99,64.97,122.55,63.54,123.16,62.38z"/>
<path class="st19" d="M210.84,118.73c0,11.5-12.04,21-27.47,22.29c-0.82-0.05-1.5-0.4-2.16-1.14c-3.64-4.03-4.04-15.81-3.84-22.09
	c6.51-0.78,11.54-6.95,11.54-12.13c0-5.63-5.8-10.2-12.92-10.2c-7.13,0-12.93,4.57-12.93,10.2c0,4.65,4.06,10.08,9.6,11.72
	c-0.19,4.99-0.19,17.03,3.6,23.65c-15.47-1.28-27.54-10.78-27.54-22.3c0-12.99,14.33-28.85,31.05-28.85
	C196.52,89.88,210.84,105.74,210.84,118.73z"/>
<path class="st20" d="M83.56,311.49c0,18.97-13.32,34.41-29.71,34.41c-16.39,0-29.71-15.44-29.71-34.41s13.32-34.39,29.71-34.39
	C70.24,277.1,83.56,292.52,83.56,311.49z M162.53,290.26c-16.38,0-29.7,15.43-29.7,34.4s13.32,34.41,29.7,34.41
	c16.4,0,29.72-15.44,29.72-34.41S178.93,290.26,162.53,290.26z"/>
<g>
	<defs>
		<rect id="SVGID_00000157987074792037383120000005743607459949432708_" x="4.37" y="18" width="339.63" height="360.9"/>
	</defs>
	<clipPath id="SVGID_00000019663151798123838720000012818119859233928636_">
		<use xlink:href="#SVGID_00000157987074792037383120000005743607459949432708_"  style="overflow:visible;"/>
	</clipPath>
	<g style="clip-path:url(#SVGID_00000019663151798123838720000012818119859233928636_);">
		<path d="M277.69,162.35c-8.16-7.25-17.34-13.31-27.31-18.09c13.6-12.62,21.99-29.75,21.99-48.6c0-6.71-1.06-13.52-3.16-20.28
			c8.76-5.76,14.11-15.58,14.11-26.11c0-17.2-14.01-31.21-31.22-31.21c-8.61,0-16.74,3.52-22.64,9.72
			c-11.22-6-23.62-9.17-35.99-9.17c-12.36,0-24.77,3.17-35.99,9.17c-5.88-6.2-14.02-9.72-22.63-9.72
			c-17.22,0-31.21,14.01-31.21,31.23c0,10.54,5.36,20.36,14.11,26.11c-2.1,6.74-3.16,13.56-3.16,20.28
			c0,20.94,10.35,39.76,26.72,52.64c-7.05,4.03-13.64,8.74-19.59,14.06c-18.94,16.81-50.46,58.83-61.54,94.97
			c-0.56-0.01-1.1-0.04-1.67-0.04c-29.87,0-54.17,24.3-54.17,54.17c0,29.87,24.3,54.17,54.13,54.17c0.04,0,0.52,0.01,1.4,0.01
			c6.57,0,35.29-0.41,65.2-7.03c9.93,12.3,25.13,20.19,42.13,20.19c0.4,0,41.2-0.22,82.91-16.12c1.95-0.66,41.14-14.47,43.91-51.74
			c4.83,2.86,9.86,4.3,15.09,4.3c2.39,0,4.82-0.3,7.28-0.9c13.95-3.38,22.55-11.26,25.58-23.41
			C351.62,252.39,301.29,183.34,277.69,162.35z M119.33,95.67c0-6.79,1.18-13.71,3.49-20.55c0.37-1.08-0.08-2.24-1.06-2.81
			c-8.26-4.71-13.38-13.54-13.38-23.02c0-14.62,11.88-26.51,26.49-26.51c7.85,0,15.26,3.46,20.32,9.5c0.73,0.87,1.98,1.1,2.97,0.54
			c10.94-6.2,23.16-9.47,35.33-9.47c12.18,0,24.39,3.27,35.33,9.47c0.99,0.57,2.24,0.33,2.98-0.54c5.06-6.04,12.47-9.5,20.32-9.5
			c14.61,0,26.51,11.89,26.51,26.51c0,9.48-5.12,18.31-13.38,23.02c-0.98,0.56-1.43,1.73-1.06,2.81c2.31,6.85,3.49,13.76,3.49,20.55
			c0,36.14-33.27,65.54-74.16,65.54C152.6,161.2,119.33,131.81,119.33,95.67z M337.41,289.8c-2.61,10.45-9.84,16.98-22.11,19.96
			c-12.91,3.13-24.88-3.74-35.55-20.44c-10.71-16.75-17.73-39.58-21.51-51.85c-11.47-37.37-25.47-53.54-26.07-54.21
			c-0.86-0.98-2.35-1.07-3.33-0.21c-0.98,0.86-1.08,2.35-0.21,3.33c0.14,0.15,13.96,16.2,25.1,52.47
			c3.84,12.48,10.98,35.72,22.04,53.01c4.34,6.77,8.91,12.08,13.69,15.92c-0.71,36.98-40.43,50.32-40.83,50.45
			c-0.04,0.01-0.08,0.02-0.12,0.03c-40.9,15.59-80.88,15.83-81.28,15.83c-27.26,0-49.44-22.18-49.44-49.44
			c0-27.27,22.18-49.45,49.44-49.45c22.15,0,36.98,15.5,43.85,24.72c0.78,1.05,2.26,1.26,3.31,0.48c1.05-0.78,1.27-2.26,0.48-3.31
			c-7.4-9.95-23.43-26.62-47.65-26.62c-29.87,0-54.17,24.31-54.17,54.18c0,11.01,3.31,21.26,8.97,29.81
			c-32.57,6.92-63.14,6.47-63.49,6.47c-27.26,0.01-49.44-22.17-49.44-49.44c0-27.26,22.18-49.44,49.44-49.44
			c22.15,0,36.98,15.48,43.84,24.72c0.78,1.05,2.26,1.26,3.31,0.48c1.05-0.78,1.26-2.26,0.48-3.31c-1.29-1.72-2.85-3.66-4.66-5.68
			c11.6-6.56,13.66-25.02,15.47-41.46c0.15-1.42,0.32-2.83,0.47-4.23c4.23-36.52,20.1-50.16,20.26-50.29
			c1.01-0.83,1.16-2.31,0.32-3.32c-0.83-1.01-2.31-1.16-3.32-0.32c-0.71,0.59-17.48,14.79-21.96,53.4c-0.17,1.4-0.32,2.81-0.47,4.24
			c-1.74,15.82-3.73,33.66-14.18,38.41c-7.67-7.51-18.73-15.15-33.09-16.97c10.99-34.67,41.97-75.94,59.84-91.83
			c6.24-5.55,13.18-10.42,20.65-14.51c13.3,9.1,29.94,14.54,47.98,14.54c20.39,0,38.99-6.92,52.99-18.26
			c10.3,4.7,19.74,10.82,28.07,18.23C300.9,189.32,345.89,255.81,337.41,289.8z M236.61,37.86c9.59,7.08,17.56,16.31,23.03,26.72
			c0.43,0.8,1.24,1.27,2.09,1.27c0.37,0,0.74-0.08,1.1-0.28c1.16-0.6,1.59-2.03,0.99-3.19c-5.81-11.03-14.24-20.83-24.42-28.32
			c-1.05-0.78-2.53-0.55-3.31,0.49C235.34,35.6,235.56,37.08,236.61,37.86z M150.88,34.55c-0.77-1.05-2.26-1.28-3.31-0.49
			c-10.17,7.49-18.61,17.29-24.41,28.32c-0.6,1.16-0.17,2.59,0.99,3.19c0.35,0.19,0.73,0.28,1.1,0.28c0.85,0,1.67-0.46,2.09-1.27
			c5.48-10.41,13.44-19.64,23.03-26.72C151.43,37.08,151.66,35.6,150.88,34.55z M215.58,118.73c0-15.21-15.97-33.58-35.79-33.58
			c-19.82,0-35.79,18.37-35.79,33.58c0,14.97,16.05,27.16,35.79,27.16C199.53,145.9,215.58,133.71,215.58,118.73z M183.37,141.02
			c-0.82-0.05-1.5-0.4-2.15-1.14c-3.64-4.03-4.04-15.81-3.84-22.09c6.51-0.79,11.54-6.96,11.54-12.14c0-5.62-5.8-10.2-12.92-10.2
			c-7.12,0-12.92,4.57-12.92,10.2c0,4.64,4.06,10.09,9.59,11.72c-0.19,4.99-0.19,17.03,3.61,23.64
			c-15.47-1.27-27.54-10.79-27.54-22.29c0-12.99,14.34-28.85,31.06-28.85s31.06,15.86,31.06,28.85
			C210.85,130.22,198.82,139.73,183.37,141.02z M210.05,90.78c4.57,0,8.28-3.72,8.28-8.28c0-4.57-3.72-8.28-8.28-8.28
			c-4.56,0-8.28,3.72-8.28,8.28C201.77,87.06,205.49,90.78,210.05,90.78z M144,82.49c0,4.57,3.72,8.28,8.28,8.28
			c4.57,0,8.28-3.72,8.28-8.28c0-4.57-3.72-8.28-8.28-8.28C147.72,74.21,144,77.93,144,82.49z M53.86,272.38
			c-18.99,0-34.44,17.55-34.44,39.11s15.45,39.12,34.44,39.12c18.99,0,34.44-17.55,34.44-39.12S72.85,272.38,53.86,272.38z
			 M53.86,345.9c-16.39,0-29.72-15.44-29.72-34.39c0-18.97,13.33-34.4,29.72-34.4c16.38,0,29.72,15.44,29.72,34.4
			C83.58,330.46,70.24,345.9,53.86,345.9z M162.55,285.53c-18.99,0-34.44,17.55-34.44,39.12c0,21.58,15.45,39.11,34.44,39.11
			c18.99,0,34.44-17.55,34.44-39.11C196.99,303.08,181.54,285.53,162.55,285.53z M162.55,359.06c-16.39,0-29.72-15.44-29.72-34.4
			c0-18.97,13.33-34.4,29.72-34.4c16.38,0,29.71,15.44,29.71,34.4S178.93,359.06,162.55,359.06z"/>
	</g>
</g>
</svg>
