<?xml version="1.0" encoding="utf-8"?>
<!-- Generator: Adobe Illustrator 29.7.1, SVG Export Plug-In . SVG Version: 9.03 Build 0)  -->
<svg version="1.0" id="Layer_1" xmlns="http://www.w3.org/2000/svg" xmlns:xlink="http://www.w3.org/1999/xlink" x="0px" y="0px"
	 viewBox="0 0 384 108" style="enable-background:new 0 0 384 108;" xml:space="preserve">
<style type="text/css">
	.st0{clip-path:url(#SVGID_00000094612018623190432020000013034608079291178652_);}
</style>
<g transform="matrix(1, 0, 0, 1, 43, 144)">
	<g>
		<defs>
			<rect id="SVGID_1_" x="-43" y="-137" width="384" height="114.67"/>
		</defs>
		<clipPath id="SVGID_00000011006999307092570270000016545659253174379160_">
			<use xlink:href="#SVGID_1_"  style="overflow:visible;"/>
		</clipPath>
		<g style="clip-path:url(#SVGID_00000011006999307092570270000016545659253174379160_);">
			<g>
				<g transform="translate(2.720637, 66.712723)">
					<g>
						<path d="M-38.09-113.62c-1.22-0.31-2.04-0.93-2.46-1.88c-0.42-0.96-0.62-2.11-0.62-3.48v-16.88c0-1.44,0.72-2.43,2.17-2.96
							c1.44-0.54,3.25-0.82,5.42-0.85c2.17-0.04,4.36,0.02,6.6,0.17c2.23,0.16,4.11,0.19,5.65,0.1c2.58-0.15,4.32-0.76,5.23-1.81
							c0.92-1.07,0.97-2.3,0.17-3.71c-0.79-1.42-2.48-2.57-5.06-3.48c-4.86-1.83-8.85-3.71-11.98-5.65
							c-3.11-1.94-5.41-4.21-6.9-6.79c-1.47-2.58-2.21-5.69-2.21-9.33c0-4.11,0.59-7.82,1.77-11.12c1.18-3.3,3.36-6.21,6.54-8.73
							c2.14-1.67,4.61-2.92,7.42-3.75c2.82-0.83,5.76-1.4,8.83-1.71c3.08-0.3,5.99-0.5,8.73-0.58c1.29-0.07,3.21-0.1,5.75-0.1
							s5.2,0.08,7.98,0.23c2.78,0.16,5.25,0.41,7.42,0.75c2.17,0.33,3.51,0.81,4.04,1.42c0.46,0.53,0.76,1.33,0.92,2.4
							c0.15,1.06,0.21,2.89,0.17,5.48c-0.04,2.58-0.1,6.54-0.17,11.85c0,2.74-1.64,4.1-4.9,4.1c-1.75,0-3.71-0.05-5.88-0.17
							c-2.17-0.12-4.24-0.19-6.23-0.19c-1.97,0-3.49,0.27-4.54,0.79c-1.83,0.85-2.89,2.09-3.15,3.73c-0.27,1.62,0.78,3.04,3.15,4.25
							c1.36,0.7,3.05,1.43,5.06,2.19c2.01,0.75,3.97,1.54,5.88,2.38c5.47,2.58,9.23,6.12,11.27,10.6c2.05,4.49,2.44,9.43,1.15,14.83
							c-0.53,2.35-1.41,4.62-2.62,6.83c-1.21,2.21-2.8,4.11-4.77,5.71c-2.74,2.2-6.58,3.75-11.52,4.67
							c-4.95,0.92-10.67,1.35-17.17,1.31C-23.46-113.03-30.5-113.24-38.09-113.62z"/>
					</g>
				</g>
			</g>
			<g>
				<g transform="translate(52.634656, 66.712723)">
					<g>
						<path d="M13.88-113.74c-0.92,0-1.72-0.45-2.4-1.35c-0.68-0.92-1.02-1.94-1.02-3.08l0.23-28.27c-0.24-3.96-1-7.09-2.29-9.42
							c-1.29-2.32-3.34-2.98-6.15-1.98c-1.07,0.53-2.02,1.41-2.85,2.62c-0.83,1.21-1.25,2.43-1.25,3.65v0.67l0.9,31.71
							c0.15,1.21-0.22,2.27-1.12,3.19c-0.77,0.91-1.72,1.35-2.85,1.35l-16.42,0.12c-0.99,0-1.9-0.42-2.73-1.25
							c-0.77-0.76-1.15-1.82-1.15-3.19l-0.23-71.38c0-1.07,0.42-2.09,1.25-3.08c0.83-0.9,1.71-1.35,2.62-1.35l14.58,0.1
							c1.07,0,2.02,0.42,2.85,1.25c0.76,0.85,1.15,1.92,1.15,3.21l0.46,14.35c5.47-0.98,10.43-1.21,14.88-0.69
							c4.44,0.53,8.15,1.67,11.1,3.42c2.73,1.6,4.86,3.33,6.38,5.19c1.53,1.86,2.59,4.03,3.21,6.5c0.61,2.47,0.99,5.43,1.15,8.85
							c0.15,3.42,0.23,7.48,0.23,12.19l-0.12,22.23c0,1.21-0.34,2.24-1.02,3.08c-0.77,0.9-1.6,1.35-2.5,1.35H13.88z"/>
					</g>
				</g>
			</g>
			<g>
				<g transform="translate(100.92474, 66.712723)">
					<g>
						<path d="M28.5-112.72c-2.52,0-3.58-1.64-3.21-4.9c-6.22,3.72-12.6,5.13-19.15,4.23c-3.72-0.54-6.69-1.6-8.9-3.19
							c-2.2-1.59-3.79-3.48-4.79-5.65c-0.99-2.17-1.54-4.39-1.65-6.67c-0.11-2.29-0.02-4.38,0.29-6.27
							c0.61-3.12,2.07-5.73,4.38-7.81c2.32-2.09,5.13-3.73,8.44-4.9c3.32-1.18,6.65-1.84,9.98-2l11.4-0.69
							c-0.14-2.12-0.33-3.81-0.56-5.06c-0.22-1.26-0.85-2.14-1.88-2.62c-1.03-0.5-2.95-0.71-5.75-0.65c-1.31,0-2.29,0.35-2.94,1.04
							c-0.64,0.68-1.17,1.44-1.58,2.27c-0.42,0.83-0.88,1.56-1.38,2.17c-0.49,0.61-1.22,0.84-2.21,0.69l-12.31-1.6
							c-1.07-0.15-1.89-0.4-2.46-0.73c-0.57-0.34-0.85-0.98-0.85-1.9c0-2.8,0.36-5.4,1.08-7.79c0.72-2.4,2.2-4.49,4.44-6.27
							c2.25-1.79,5.61-3.18,10.1-4.17c4.71-1.07,9.26-1.56,13.67-1.48c4.42,0.07,8.43,0.77,12.04,2.1c3.61,1.33,6.57,3.37,8.9,6.1
							c2.32,2.74,3.74,6.27,4.27,10.6c0.07,0.6,0.14,2.82,0.21,6.67c0.08,3.83,0.16,8.77,0.23,14.81c0.08,6.04,0.12,12.71,0.12,20
							c0.15,1.07-0.21,1.92-1.08,2.56c-0.88,0.65-1.66,0.98-2.33,0.98L28.5-112.72z M21.41-139.49c-2.35,0-4.09,0.61-5.23,1.83
							c-1.14,1.21-1.7,2.64-1.67,4.27c0.04,1.62,0.67,3.05,1.88,4.27c1.22,1.21,3.01,1.81,5.38,1.81c1.36,0,2.04-0.53,2.04-1.6v-9
							C23.81-138.96,23.01-139.49,21.41-139.49z"/>
					</g>
				</g>
			</g>
			<g>
				<g transform="translate(147.676396, 66.712723)">
					<g>
						<path d="M46.12-113.74c-0.91,0-1.7-0.45-2.4-1.35c-0.68-0.92-1.02-1.94-1.02-3.08l0.23-28.27c-0.22-3.96-0.98-7.09-2.27-9.42
							c-1.29-2.32-3.35-2.98-6.17-1.98c-0.99,0.45-1.97,1.12-2.96,2.04c-0.99,0.92-1.56,2.29-1.71,4.1l0.79,34.08
							c0.15,1.07-0.29,1.93-1.31,2.58c-1.03,0.64-1.99,0.96-2.9,0.96l-15.85,0.1c-1.14,0-2.11-0.32-2.92-0.96
							c-0.79-0.65-1.19-1.51-1.19-2.56l-0.23-55.65c0-0.9,0.42-1.71,1.25-2.44c0.83-0.72,1.78-1.08,2.85-1.08h14.81
							c1.29,0,2.28,0.34,2.98,1.02c5.84-1.14,11.15-1.46,15.9-0.96c4.75,0.49,8.65,1.64,11.69,3.46c2.73,1.6,4.86,3.33,6.38,5.19
							c1.53,1.86,2.59,4.03,3.19,6.5c0.61,2.47,0.99,5.43,1.15,8.85c0.15,3.42,0.23,7.48,0.23,12.19l-0.1,22.23
							c0,1.21-0.35,2.24-1.04,3.08c-0.75,0.9-1.58,1.35-2.5,1.35H46.12z"/>
					</g>
				</g>
			</g>
			<g>
				<g transform="translate(196.39385, 66.712723)">
					<g>
						<path d="M55.3-114.07c-0.68,0-1.33-0.2-1.94-0.58c-0.46-0.53-0.8-1.05-1.02-1.58l-6.85-16.87l0.35,15.4
							c0.15,0.99-0.16,1.86-0.92,2.62c-0.77,0.68-1.6,1.02-2.5,1.02H25.88c-0.92,0-1.68-0.31-2.27-0.92
							c-0.61-0.61-0.92-1.48-0.92-2.62l-0.23-74.21c0-0.83,0.34-1.63,1.02-2.4c0.68-0.68,1.44-1.02,2.29-1.02h15.15
							c1,0,1.84,0.34,2.52,1.02c0.61,0.77,0.92,1.56,0.92,2.4l0.67,35.56l7.88-18.12c0.3-0.83,0.72-1.4,1.25-1.71
							c0.39-0.15,0.94-0.26,1.67-0.33c0.72-0.08,1.27-0.12,1.65-0.12h14.48c1.05,0,1.93,0.54,2.62,1.6
							c0.68,1.06,0.79,2.12,0.33,3.19L63.17-145.1l11.96,26.56c0.38,1.22,0.22,2.33-0.46,3.31c-0.68,0.92-1.64,1.38-2.85,1.38
							L55.3-114.07z"/>
					</g>
				</g>
			</g>
			<g>
				<g transform="translate(239.470304, 66.712723)">
					<g>
						<path d="M74.68-112.72c-2.52,0-3.58-1.64-3.21-4.9c-6.22,3.72-12.6,5.13-19.15,4.23c-3.72-0.54-6.69-1.6-8.9-3.19
							c-2.2-1.59-3.79-3.48-4.79-5.65c-0.99-2.17-1.54-4.39-1.65-6.67c-0.11-2.29-0.02-4.38,0.29-6.27
							c0.61-3.12,2.07-5.73,4.38-7.81c2.32-2.09,5.13-3.73,8.44-4.9c3.32-1.18,6.65-1.84,9.98-2l11.4-0.69
							c-0.14-2.12-0.33-3.81-0.56-5.06c-0.22-1.26-0.85-2.14-1.88-2.62c-1.03-0.5-2.95-0.71-5.75-0.65c-1.31,0-2.29,0.35-2.94,1.04
							c-0.64,0.68-1.17,1.44-1.58,2.27c-0.42,0.83-0.88,1.56-1.38,2.17c-0.49,0.61-1.22,0.84-2.21,0.69l-12.31-1.6
							c-1.07-0.15-1.89-0.4-2.46-0.73c-0.57-0.34-0.85-0.98-0.85-1.9c0-2.8,0.36-5.4,1.08-7.79c0.72-2.4,2.2-4.49,4.44-6.27
							c2.25-1.79,5.61-3.18,10.1-4.17c4.71-1.07,9.26-1.56,13.67-1.48c4.42,0.07,8.43,0.77,12.04,2.1c3.61,1.33,6.57,3.37,8.9,6.1
							c2.32,2.74,3.74,6.27,4.27,10.6c0.07,0.6,0.14,2.82,0.21,6.67c0.08,3.83,0.16,8.77,0.23,14.81c0.08,6.04,0.12,12.71,0.12,20
							c0.15,1.07-0.21,1.92-1.08,2.56c-0.88,0.65-1.66,0.98-2.33,0.98L74.68-112.72z M67.59-139.49c-2.35,0-4.09,0.61-5.23,1.83
							c-1.14,1.21-1.7,2.64-1.67,4.27c0.04,1.62,0.67,3.05,1.88,4.27c1.22,1.21,3.01,1.81,5.38,1.81c1.36,0,2.04-0.53,2.04-1.6v-9
							C69.99-138.96,69.19-139.49,67.59-139.49z"/>
					</g>
				</g>
			</g>
		</g>
	</g>
</g>
</svg>
