<svg xmlns="http://www.w3.org/2000/svg" xmlns:xlink="http://www.w3.org/1999/xlink" width="500" zoomAndPan="magnify" viewBox="0 0 375 374.999991" height="500" preserveAspectRatio="xMidYMid meet" version="1.0"><defs><g/><clipPath id="7dc44a08c3"><rect x="0" width="288" y="0" height="86"/></clipPath></defs><g transform="matrix(1, 0, 0, 1, 43, 144)"><g clip-path="url(#7dc44a08c3)"><g fill="#000000" fill-opacity="1"><g transform="translate(2.720637, 66.712723)"><g><path d="M 3 0.859375 C 2.082031 0.628906 1.46875 0.160156 1.15625 -0.546875 C 0.84375 -1.265625 0.6875 -2.132812 0.6875 -3.15625 L 0.6875 -15.8125 C 0.6875 -16.894531 1.226562 -17.632812 2.3125 -18.03125 C 3.394531 -18.4375 4.75 -18.648438 6.375 -18.671875 C 8 -18.703125 9.648438 -18.660156 11.328125 -18.546875 C 13.003906 -18.429688 14.414062 -18.40625 15.5625 -18.46875 C 17.5 -18.582031 18.804688 -19.035156 19.484375 -19.828125 C 20.171875 -20.628906 20.210938 -21.554688 19.609375 -22.609375 C 19.015625 -23.671875 17.75 -24.539062 15.8125 -25.21875 C 12.164062 -26.59375 9.171875 -28.003906 6.828125 -29.453125 C 4.492188 -30.910156 2.769531 -32.609375 1.65625 -34.546875 C 0.550781 -36.484375 0 -38.816406 0 -41.546875 C 0 -44.628906 0.441406 -47.410156 1.328125 -49.890625 C 2.210938 -52.367188 3.847656 -54.550781 6.234375 -56.4375 C 7.835938 -57.6875 9.691406 -58.625 11.796875 -59.25 C 13.910156 -59.875 16.117188 -60.300781 18.421875 -60.53125 C 20.734375 -60.757812 22.914062 -60.90625 24.96875 -60.96875 C 25.9375 -61.019531 27.375 -61.046875 29.28125 -61.046875 C 31.1875 -61.046875 33.179688 -60.988281 35.265625 -60.875 C 37.347656 -60.757812 39.203125 -60.570312 40.828125 -60.3125 C 42.453125 -60.0625 43.460938 -59.707031 43.859375 -59.25 C 44.203125 -58.851562 44.429688 -58.253906 44.546875 -57.453125 C 44.660156 -56.660156 44.703125 -55.289062 44.671875 -53.34375 C 44.640625 -51.40625 44.597656 -48.441406 44.546875 -44.453125 C 44.546875 -42.398438 43.320312 -41.375 40.875 -41.375 C 39.5625 -41.375 38.09375 -41.414062 36.46875 -41.5 C 34.84375 -41.59375 33.285156 -41.640625 31.796875 -41.640625 C 30.316406 -41.640625 29.179688 -41.441406 28.390625 -41.046875 C 27.015625 -40.410156 26.226562 -39.476562 26.03125 -38.25 C 25.832031 -37.03125 26.617188 -35.96875 28.390625 -35.0625 C 29.410156 -34.539062 30.675781 -33.992188 32.1875 -33.421875 C 33.695312 -32.859375 35.164062 -32.265625 36.59375 -31.640625 C 40.695312 -29.703125 43.515625 -27.050781 45.046875 -23.6875 C 46.585938 -20.320312 46.875 -16.613281 45.90625 -12.5625 C 45.507812 -10.800781 44.851562 -9.09375 43.9375 -7.4375 C 43.03125 -5.78125 41.835938 -4.351562 40.359375 -3.15625 C 38.304688 -1.507812 35.425781 -0.34375 31.71875 0.34375 C 28.007812 1.03125 23.71875 1.359375 18.84375 1.328125 C 13.976562 1.296875 8.695312 1.140625 3 0.859375 Z M 3 0.859375 "/></g></g></g><g fill="#000000" fill-opacity="1"><g transform="translate(52.634656, 66.712723)"><g><path d="M 29.5 0.765625 C 28.8125 0.765625 28.210938 0.425781 27.703125 -0.25 C 27.191406 -0.9375 26.9375 -1.707031 26.9375 -2.5625 L 27.109375 -23.765625 C 26.929688 -26.734375 26.359375 -29.085938 25.390625 -30.828125 C 24.421875 -32.566406 22.882812 -33.0625 20.78125 -32.3125 C 19.976562 -31.914062 19.265625 -31.257812 18.640625 -30.34375 C 18.015625 -29.4375 17.703125 -28.523438 17.703125 -27.609375 L 17.703125 -27.109375 L 18.375 -3.328125 C 18.488281 -2.421875 18.207031 -1.625 17.53125 -0.9375 C 16.957031 -0.257812 16.242188 0.078125 15.390625 0.078125 L 3.078125 0.171875 C 2.335938 0.171875 1.65625 -0.140625 1.03125 -0.765625 C 0.457031 -1.335938 0.171875 -2.132812 0.171875 -3.15625 L 0 -56.6875 C 0 -57.488281 0.3125 -58.257812 0.9375 -59 C 1.5625 -59.675781 2.21875 -60.015625 2.90625 -60.015625 L 13.84375 -59.9375 C 14.644531 -59.9375 15.359375 -59.625 15.984375 -59 C 16.554688 -58.363281 16.84375 -57.5625 16.84375 -56.59375 L 17.1875 -45.828125 C 21.289062 -46.566406 25.007812 -46.738281 28.34375 -46.34375 C 31.675781 -45.945312 34.453125 -45.09375 36.671875 -43.78125 C 38.722656 -42.582031 40.316406 -41.285156 41.453125 -39.890625 C 42.597656 -38.492188 43.398438 -36.867188 43.859375 -35.015625 C 44.316406 -33.160156 44.601562 -30.945312 44.71875 -28.375 C 44.832031 -25.8125 44.890625 -22.765625 44.890625 -19.234375 L 44.796875 -2.5625 C 44.796875 -1.65625 44.539062 -0.882812 44.03125 -0.25 C 43.457031 0.425781 42.832031 0.765625 42.15625 0.765625 Z M 29.5 0.765625 "/></g></g></g><g fill="#000000" fill-opacity="1"><g transform="translate(100.92474, 66.712723)"><g><path d="M 28.390625 1.53125 C 26.503906 1.53125 25.703125 0.304688 25.984375 -2.140625 C 21.316406 0.648438 16.53125 1.707031 11.625 1.03125 C 8.832031 0.625 6.609375 -0.171875 4.953125 -1.359375 C 3.304688 -2.554688 2.109375 -3.96875 1.359375 -5.59375 C 0.617188 -7.21875 0.207031 -8.882812 0.125 -10.59375 C 0.0390625 -12.3125 0.113281 -13.878906 0.34375 -15.296875 C 0.800781 -17.640625 1.894531 -19.59375 3.625 -21.15625 C 5.363281 -22.726562 7.472656 -23.953125 9.953125 -24.828125 C 12.441406 -25.710938 14.9375 -26.210938 17.4375 -26.328125 L 25.984375 -26.84375 C 25.878906 -28.4375 25.738281 -29.703125 25.5625 -30.640625 C 25.394531 -31.585938 24.925781 -32.242188 24.15625 -32.609375 C 23.382812 -32.984375 21.945312 -33.144531 19.84375 -33.09375 C 18.863281 -33.09375 18.128906 -32.832031 17.640625 -32.3125 C 17.160156 -31.800781 16.765625 -31.234375 16.453125 -30.609375 C 16.140625 -29.984375 15.796875 -29.441406 15.421875 -28.984375 C 15.054688 -28.523438 14.503906 -28.351562 13.765625 -28.46875 L 4.53125 -29.671875 C 3.726562 -29.785156 3.113281 -29.96875 2.6875 -30.21875 C 2.257812 -30.476562 2.046875 -30.953125 2.046875 -31.640625 C 2.046875 -33.742188 2.316406 -35.691406 2.859375 -37.484375 C 3.398438 -39.285156 4.507812 -40.851562 6.1875 -42.1875 C 7.875 -43.53125 10.398438 -44.570312 13.765625 -45.3125 C 17.296875 -46.113281 20.710938 -46.484375 24.015625 -46.421875 C 27.328125 -46.367188 30.335938 -45.84375 33.046875 -44.84375 C 35.753906 -43.84375 37.976562 -42.316406 39.71875 -40.265625 C 41.457031 -38.210938 42.523438 -35.5625 42.921875 -32.3125 C 42.972656 -31.863281 43.023438 -30.195312 43.078125 -27.3125 C 43.140625 -24.4375 43.195312 -20.734375 43.25 -16.203125 C 43.3125 -11.671875 43.34375 -6.671875 43.34375 -1.203125 C 43.457031 -0.398438 43.1875 0.238281 42.53125 0.71875 C 41.875 1.207031 41.289062 1.453125 40.78125 1.453125 Z M 23.078125 -18.546875 C 21.316406 -18.546875 20.007812 -18.085938 19.15625 -17.171875 C 18.300781 -16.265625 17.882812 -15.195312 17.90625 -13.96875 C 17.9375 -12.75 18.40625 -11.679688 19.3125 -10.765625 C 20.226562 -9.859375 21.570312 -9.40625 23.34375 -9.40625 C 24.363281 -9.40625 24.875 -9.804688 24.875 -10.609375 L 24.875 -17.359375 C 24.875 -18.148438 24.273438 -18.546875 23.078125 -18.546875 Z M 23.078125 -18.546875 "/></g></g></g><g fill="#000000" fill-opacity="1"><g transform="translate(147.676396, 66.712723)"><g><path d="M 29.921875 0.765625 C 29.242188 0.765625 28.644531 0.425781 28.125 -0.25 C 27.613281 -0.9375 27.359375 -1.707031 27.359375 -2.5625 L 27.53125 -23.765625 C 27.363281 -26.734375 26.796875 -29.085938 25.828125 -30.828125 C 24.859375 -32.566406 23.316406 -33.0625 21.203125 -32.3125 C 20.460938 -31.976562 19.722656 -31.46875 18.984375 -30.78125 C 18.242188 -30.09375 17.816406 -29.066406 17.703125 -27.703125 L 18.296875 -2.140625 C 18.410156 -1.335938 18.082031 -0.691406 17.3125 -0.203125 C 16.539062 0.273438 15.816406 0.515625 15.140625 0.515625 L 3.25 0.59375 C 2.394531 0.59375 1.664062 0.351562 1.0625 -0.125 C 0.46875 -0.613281 0.171875 -1.253906 0.171875 -2.046875 L 0 -43.78125 C 0 -44.457031 0.3125 -45.066406 0.9375 -45.609375 C 1.5625 -46.148438 2.273438 -46.421875 3.078125 -46.421875 L 14.1875 -46.421875 C 15.15625 -46.421875 15.898438 -46.164062 16.421875 -45.65625 C 20.804688 -46.507812 24.78125 -46.75 28.34375 -46.375 C 31.90625 -46.007812 34.828125 -45.144531 37.109375 -43.78125 C 39.160156 -42.582031 40.753906 -41.285156 41.890625 -39.890625 C 43.035156 -38.492188 43.832031 -36.867188 44.28125 -35.015625 C 44.738281 -33.160156 45.023438 -30.945312 45.140625 -28.375 C 45.253906 -25.8125 45.3125 -22.765625 45.3125 -19.234375 L 45.234375 -2.5625 C 45.234375 -1.65625 44.972656 -0.882812 44.453125 -0.25 C 43.890625 0.425781 43.265625 0.765625 42.578125 0.765625 Z M 29.921875 0.765625 "/></g></g></g><g fill="#000000" fill-opacity="1"><g transform="translate(196.39385, 66.712723)"><g><path d="M 24.625 0.515625 C 24.113281 0.515625 23.628906 0.367188 23.171875 0.078125 C 22.828125 -0.316406 22.570312 -0.710938 22.40625 -1.109375 L 17.265625 -13.765625 L 17.53125 -2.21875 C 17.644531 -1.476562 17.414062 -0.820312 16.84375 -0.25 C 16.269531 0.257812 15.644531 0.515625 14.96875 0.515625 L 2.5625 0.515625 C 1.875 0.515625 1.304688 0.285156 0.859375 -0.171875 C 0.398438 -0.628906 0.171875 -1.285156 0.171875 -2.140625 L 0 -57.796875 C 0 -58.421875 0.253906 -59.019531 0.765625 -59.59375 C 1.273438 -60.101562 1.847656 -60.359375 2.484375 -60.359375 L 13.84375 -60.359375 C 14.59375 -60.359375 15.222656 -60.101562 15.734375 -59.59375 C 16.191406 -59.019531 16.421875 -58.421875 16.421875 -57.796875 L 16.921875 -31.125 L 22.828125 -44.71875 C 23.054688 -45.34375 23.367188 -45.769531 23.765625 -46 C 24.054688 -46.113281 24.472656 -46.195312 25.015625 -46.25 C 25.554688 -46.3125 25.96875 -46.34375 26.25 -46.34375 L 37.109375 -46.34375 C 37.898438 -46.34375 38.554688 -45.941406 39.078125 -45.140625 C 39.585938 -44.347656 39.671875 -43.550781 39.328125 -42.75 L 30.53125 -22.75 L 39.5 -2.828125 C 39.78125 -1.910156 39.664062 -1.082031 39.15625 -0.34375 C 38.644531 0.34375 37.929688 0.6875 37.015625 0.6875 Z M 24.625 0.515625 "/></g></g></g><g fill="#000000" fill-opacity="1"><g transform="translate(239.470304, 66.712723)"><g><path d="M 28.390625 1.53125 C 26.503906 1.53125 25.703125 0.304688 25.984375 -2.140625 C 21.316406 0.648438 16.53125 1.707031 11.625 1.03125 C 8.832031 0.625 6.609375 -0.171875 4.953125 -1.359375 C 3.304688 -2.554688 2.109375 -3.96875 1.359375 -5.59375 C 0.617188 -7.21875 0.207031 -8.882812 0.125 -10.59375 C 0.0390625 -12.3125 0.113281 -13.878906 0.34375 -15.296875 C 0.800781 -17.640625 1.894531 -19.59375 3.625 -21.15625 C 5.363281 -22.726562 7.472656 -23.953125 9.953125 -24.828125 C 12.441406 -25.710938 14.9375 -26.210938 17.4375 -26.328125 L 25.984375 -26.84375 C 25.878906 -28.4375 25.738281 -29.703125 25.5625 -30.640625 C 25.394531 -31.585938 24.925781 -32.242188 24.15625 -32.609375 C 23.382812 -32.984375 21.945312 -33.144531 19.84375 -33.09375 C 18.863281 -33.09375 18.128906 -32.832031 17.640625 -32.3125 C 17.160156 -31.800781 16.765625 -31.234375 16.453125 -30.609375 C 16.140625 -29.984375 15.796875 -29.441406 15.421875 -28.984375 C 15.054688 -28.523438 14.503906 -28.351562 13.765625 -28.46875 L 4.53125 -29.671875 C 3.726562 -29.785156 3.113281 -29.96875 2.6875 -30.21875 C 2.257812 -30.476562 2.046875 -30.953125 2.046875 -31.640625 C 2.046875 -33.742188 2.316406 -35.691406 2.859375 -37.484375 C 3.398438 -39.285156 4.507812 -40.851562 6.1875 -42.1875 C 7.875 -43.53125 10.398438 -44.570312 13.765625 -45.3125 C 17.296875 -46.113281 20.710938 -46.484375 24.015625 -46.421875 C 27.328125 -46.367188 30.335938 -45.84375 33.046875 -44.84375 C 35.753906 -43.84375 37.976562 -42.316406 39.71875 -40.265625 C 41.457031 -38.210938 42.523438 -35.5625 42.921875 -32.3125 C 42.972656 -31.863281 43.023438 -30.195312 43.078125 -27.3125 C 43.140625 -24.4375 43.195312 -20.734375 43.25 -16.203125 C 43.3125 -11.671875 43.34375 -6.671875 43.34375 -1.203125 C 43.457031 -0.398438 43.1875 0.238281 42.53125 0.71875 C 41.875 1.207031 41.289062 1.453125 40.78125 1.453125 Z M 23.078125 -18.546875 C 21.316406 -18.546875 20.007812 -18.085938 19.15625 -17.171875 C 18.300781 -16.265625 17.882812 -15.195312 17.90625 -13.96875 C 17.9375 -12.75 18.40625 -11.679688 19.3125 -10.765625 C 20.226562 -9.859375 21.570312 -9.40625 23.34375 -9.40625 C 24.363281 -9.40625 24.875 -9.804688 24.875 -10.609375 L 24.875 -17.359375 C 24.875 -18.148438 24.273438 -18.546875 23.078125 -18.546875 Z M 23.078125 -18.546875 "/></g></g></g></g></g></svg>